<?xml version="1.0" encoding="UTF-8"?>
<svg version="1.1" xmlns="http://www.w3.org/2000/svg" width="900" height="500">
<path d="M0 0 C297 0 594 0 900 0 C900 165 900 330 900 500 C603 500 306 500 0 500 C0 335 0 170 0 0 Z " fill="#FEFEFE" transform="translate(0,0)"/>
<path d="M0 0 C8.02146468 6.3055328 14.08000451 13.54641145 19.96875 21.8203125 C20.56558594 22.64015625 21.16242188 23.46 21.77734375 24.3046875 C34.60504885 43.62954193 35.04078871 67.76818615 30.625 89.734375 C30.4084375 90.75273437 30.191875 91.77109375 29.96875 92.8203125 C30.73832031 92.95695312 31.50789062 93.09359375 32.30078125 93.234375 C36.85417071 94.23438733 39.392356 95.9557215 41.96875 99.8203125 C42.06814937 103.09617003 41.90033856 106.32075036 41.74609375 109.59375 C41.99574643 113.21152397 43.01300533 114.83363265 44.96875 117.8203125 C45.24572418 121.76719456 44.95337121 125.02248783 43.96875 128.8203125 C44.29875 129.4803125 44.62875 130.1403125 44.96875 130.8203125 C45.51068702 134.74935591 45.74344454 137.33029783 43.8984375 140.87890625 C34.08780769 153.52426578 13.23006945 158.40849208 -1.94140625 160.53125 C-13.19184409 161.58375619 -22.93616856 161.76351965 -33.03125 155.8203125 C-33.43561279 155.3049292 -33.83997559 154.7895459 -34.2565918 154.25854492 C-36.97486404 152.05558141 -39.33267093 152.43142407 -42.78125 152.421875 C-43.43577148 152.41900482 -44.09029297 152.41613464 -44.76464844 152.41317749 C-46.14649319 152.41113882 -47.52836693 152.41665504 -48.91015625 152.42919922 C-51.0240945 152.44525814 -53.13612113 152.42934649 -55.25 152.41015625 C-56.59375422 152.41213872 -57.93750724 152.41598248 -59.28125 152.421875 C-60.50328125 152.42525879 -61.7253125 152.42864258 -62.984375 152.43212891 C-66.30073925 152.85464647 -67.02593764 153.2791114 -69.03125 155.8203125 C-82.02314069 163.11797262 -97.39419944 162.37952417 -111.4921875 158.86328125 C-140.04626041 150.44833923 -140.04626041 150.44833923 -146.03125 140.8203125 C-147.04815175 137.76960725 -147.10305584 135.81470871 -147.03125 132.6328125 C-146.98033355 129.12883471 -147.10788474 125.89374539 -147.71875 122.4453125 C-148.03125 118.8203125 -148.03125 118.8203125 -146.54296875 116.49609375 C-144.65344849 113.15159406 -144.87911897 111.17771968 -145.15625 107.3828125 C-145.3111104 100.18587924 -145.3111104 100.18587924 -142.96875 97.0703125 C-139.55344141 94.45433145 -137.28797126 93.98724275 -133.03125 93.8203125 C-133.23621094 93.26988281 -133.44117188 92.71945312 -133.65234375 92.15234375 C-139.98804835 72.59957118 -138.00647714 49.27938032 -129.09716797 30.89257812 C-124.09202666 21.29474051 -117.70721567 13.39571966 -110.03125 5.8203125 C-109.27972656 5.07007813 -108.52820313 4.31984375 -107.75390625 3.546875 C-98.31079638 -5.36687429 -87.31010815 -10.33990712 -75.03125 -14.1796875 C-74.10183594 -14.50066406 -73.17242187 -14.82164062 -72.21484375 -15.15234375 C-47.61292188 -22.67640236 -20.22858384 -14.54581158 0 0 Z " fill="#FED120" transform="translate(166.03125,178.1796875)"/>
<path d="M0 0 C8.02146468 6.3055328 14.08000451 13.54641145 19.96875 21.8203125 C20.56558594 22.64015625 21.16242188 23.46 21.77734375 24.3046875 C34.60504885 43.62954193 35.04078871 67.76818615 30.625 89.734375 C30.4084375 90.75273437 30.191875 91.77109375 29.96875 92.8203125 C30.73832031 92.95695312 31.50789062 93.09359375 32.30078125 93.234375 C36.85417071 94.23438733 39.392356 95.9557215 41.96875 99.8203125 C42.06814937 103.09617003 41.90033856 106.32075036 41.74609375 109.59375 C41.99574643 113.21152397 43.01300533 114.83363265 44.96875 117.8203125 C45.24572418 121.76719456 44.95337121 125.02248783 43.96875 128.8203125 C44.29875 129.4803125 44.62875 130.1403125 44.96875 130.8203125 C45.51068702 134.74935591 45.74344454 137.33029783 43.8984375 140.87890625 C34.08780769 153.52426578 13.23006945 158.40849208 -1.94140625 160.53125 C-13.19184409 161.58375619 -22.93616856 161.76351965 -33.03125 155.8203125 C-33.43561279 155.3049292 -33.83997559 154.7895459 -34.2565918 154.25854492 C-36.97486404 152.05558141 -39.33267093 152.43142407 -42.78125 152.421875 C-43.43577148 152.41900482 -44.09029297 152.41613464 -44.76464844 152.41317749 C-46.14649319 152.41113882 -47.52836693 152.41665504 -48.91015625 152.42919922 C-51.0240945 152.44525814 -53.13612113 152.42934649 -55.25 152.41015625 C-56.59375422 152.41213872 -57.93750724 152.41598248 -59.28125 152.421875 C-60.50328125 152.42525879 -61.7253125 152.42864258 -62.984375 152.43212891 C-66.30073925 152.85464647 -67.02593764 153.2791114 -69.03125 155.8203125 C-82.02314069 163.11797262 -97.39419944 162.37952417 -111.4921875 158.86328125 C-140.04626041 150.44833923 -140.04626041 150.44833923 -146.03125 140.8203125 C-147.04815175 137.76960725 -147.10305584 135.81470871 -147.03125 132.6328125 C-146.98033355 129.12883471 -147.10788474 125.89374539 -147.71875 122.4453125 C-148.03125 118.8203125 -148.03125 118.8203125 -146.54296875 116.49609375 C-144.65344849 113.15159406 -144.87911897 111.17771968 -145.15625 107.3828125 C-145.3111104 100.18587924 -145.3111104 100.18587924 -142.96875 97.0703125 C-139.55344141 94.45433145 -137.28797126 93.98724275 -133.03125 93.8203125 C-133.23621094 93.26988281 -133.44117188 92.71945312 -133.65234375 92.15234375 C-139.98804835 72.59957118 -138.00647714 49.27938032 -129.09716797 30.89257812 C-124.09202666 21.29474051 -117.70721567 13.39571966 -110.03125 5.8203125 C-109.27972656 5.07007813 -108.52820313 4.31984375 -107.75390625 3.546875 C-98.31079638 -5.36687429 -87.31010815 -10.33990712 -75.03125 -14.1796875 C-74.10183594 -14.50066406 -73.17242187 -14.82164062 -72.21484375 -15.15234375 C-47.61292188 -22.67640236 -20.22858384 -14.54581158 0 0 Z M-107.03125 14.8203125 C-107.65386719 15.43261719 -108.27648437 16.04492188 -108.91796875 16.67578125 C-122.11257028 30.58200174 -128.20555058 49.42223404 -128.21875 68.2578125 C-128.23099609 69.17369141 -128.24324219 70.08957031 -128.25585938 71.03320312 C-128.26734561 76.36664665 -127.78643142 80.77676746 -126.03125 85.8203125 C-125.226875 85.3046875 -124.4225 84.7890625 -123.59375 84.2578125 C-119.01679802 82.41097223 -115.71864014 82.22108527 -111.03125 83.8203125 C-108.06328951 85.88262667 -105.5285064 88.21418389 -103.03125 90.8203125 C-100.53763429 89.61649802 -98.34981917 88.36602528 -96.03125 86.8203125 C-91.12789684 86.25763263 -89.05277152 86.21132852 -84.78125 88.7578125 C-81.88875966 91.52622819 -80.62513092 94.62564337 -79.1484375 98.29296875 C-76.25516146 104.83824706 -72.12244011 110.7686327 -67.34375 116.0703125 C-61.09746818 123.06220904 -59.57844514 127.22363166 -59.79296875 136.83203125 C-60.03125 139.8203125 -60.03125 139.8203125 -61.03125 143.8203125 C-55.09125 143.8203125 -49.15125 143.8203125 -43.03125 143.8203125 C-43.11375 141.3453125 -43.19625 138.8703125 -43.28125 136.3203125 C-43.35580325 128.96906693 -42.73113855 123.66673129 -37.453125 118.1796875 C-36.27155226 117.04069396 -35.08377306 115.90811206 -33.890625 114.78125 C-27.87540358 108.43746607 -24.12030944 100.29048019 -20.68359375 92.3515625 C-18.57963458 89.12847611 -16.5740221 88.21441633 -13.03125 86.8203125 C-9.01506108 86.24657123 -7.63186876 86.3733404 -4.34375 88.8203125 C-3.580625 89.4803125 -2.8175 90.1403125 -2.03125 90.8203125 C1.18096338 91.16468723 1.18096338 91.16468723 3.46875 88.4453125 C4.29375 87.5790625 5.11875 86.7128125 5.96875 85.8203125 C9.47988888 83.47955325 11.7882991 83.11367748 15.96875 82.8203125 C18.15625 83.8203125 18.15625 83.8203125 19.96875 84.8203125 C22.05865939 84.41905658 22.05865939 84.41905658 23.96875 83.8203125 C26.63696779 60.47340682 23.70594755 39.36325963 9.03125 20.3828125 C7.69964979 18.84218202 6.34559121 17.32064901 4.96875 15.8203125 C4.29328125 15.05332031 3.6178125 14.28632813 2.921875 13.49609375 C-10.37452812 -0.79511325 -28.86903217 -7.86596571 -48.03125 -9.1796875 C-70.42060537 -9.79349489 -91.37091584 -1.06575621 -107.03125 14.8203125 Z " fill="#FE9E03" transform="translate(166.03125,178.1796875)"/>
<path d="M0 0 C1.96353819 0.07821221 3.9270802 0.15632874 5.890625 0.234375 C11.59481968 0.46852867 17.29742614 0.72936938 23 1 C23 5.62 23 10.24 23 15 C20.69 15 18.38 15 16 15 C16.04640625 15.72445312 16.0928125 16.44890625 16.140625 17.1953125 C16.36997852 23.33871035 16.38005371 27.27415257 12 32 C6.06456941 36.57522775 2.13492114 37.1308789 -5.25 37.0625 C-6.51328125 37.05347656 -7.7765625 37.04445313 -9.078125 37.03515625 C-10.04234375 37.02355469 -11.0065625 37.01195312 -12 37 C-11.67 38.65 -11.34 40.3 -11 42 C-10.44127197 42.01458252 -9.88254395 42.02916504 -9.30688477 42.04418945 C-6.72479948 42.11960798 -4.14387816 42.21594881 -1.5625 42.3125 C-0.24475586 42.34633789 -0.24475586 42.34633789 1.09960938 42.38085938 C8.42544697 42.6782181 14.93446085 43.82857643 21 48.125 C23.71256126 52.02430682 24.26716507 55.29121572 24 60 C21.99824183 66.38060416 17.41921789 70.06324022 11.765625 73.265625 C5.68906908 75.94534842 -0.13954856 76.37797317 -6.6875 76.4375 C-7.48317383 76.44765137 -8.27884766 76.45780273 -9.09863281 76.46826172 C-15.91679209 76.36770308 -21.34818724 74.87836737 -27 70.875 C-29.40866564 67.41254314 -29.71438138 65.29358628 -29.5078125 61.1484375 C-28.71513238 57.79479083 -26.55664803 56.17315083 -24 54 C-23.67460431 50.99548062 -23.67460431 50.99548062 -25.5 49.25 C-27.69911739 45.95132392 -27.52848993 43.89761323 -27 40 C-25.54400226 37.40144848 -23.89717522 35.32403965 -22 33 C-22.433125 32.55011719 -22.86625 32.10023438 -23.3125 31.63671875 C-27.59995734 26.68430853 -28.79353492 23.0920952 -28.38671875 16.546875 C-27.61910519 11.49148064 -25.87088124 8.85108848 -22.25 5.3125 C-14.57988155 -0.14508428 -9.21610117 -0.40070005 0 0 Z " fill="#040F1E" transform="translate(625,231)"/>
<path d="M0 0 C0 4.62 0 9.24 0 14 C-2.31 14 -4.62 14 -7 14 C-6.95359375 14.72445312 -6.9071875 15.44890625 -6.859375 16.1953125 C-6.63002148 22.33871035 -6.61994629 26.27415257 -11 31 C-16.93543059 35.57522775 -20.86507886 36.1308789 -28.25 36.0625 C-29.51328125 36.05347656 -30.7765625 36.04445313 -32.078125 36.03515625 C-33.04234375 36.02355469 -34.0065625 36.01195312 -35 36 C-34.67 37.65 -34.34 39.3 -34 41 C-33.44127197 41.01458252 -32.88254395 41.02916504 -32.30688477 41.04418945 C-29.72479948 41.11960798 -27.14387816 41.21594881 -24.5625 41.3125 C-23.24475586 41.34633789 -23.24475586 41.34633789 -21.90039062 41.38085938 C-14.49610116 41.68140249 -7.81157058 42.65702452 -2 47.5 C1.24676322 51.55845402 1.43109378 54.91309337 1 60 C-2.86761271 67.43771674 -8.67123515 71.64307443 -16.46484375 74.26953125 C-21.06255504 75.21955557 -25.50143673 75.43945988 -30.1875 75.5 C-31.03070801 75.51844971 -31.87391602 75.53689941 -32.74267578 75.5559082 C-39.8912188 75.48505415 -45.22563626 73.56628646 -50.5 68.6875 C-52.5017661 65.1010024 -52.64012487 63.0541242 -52 59 C-50.55142414 56.56254395 -49.06560134 55.01642035 -47 53 C-46.34 53 -45.68 53 -45 53 C-45.37253906 52.50371094 -45.74507813 52.00742187 -46.12890625 51.49609375 C-48.64194245 47.88745593 -49.98637068 45.8041298 -50.0625 41.3125 C-48.92559279 37.76802459 -47.4470514 35.76279997 -45 33 C-45 32.34 -45 31.68 -45 31 C-45.61875 30.38125 -46.2375 29.7625 -46.875 29.125 C-50.44653149 25.55346851 -51.30472928 22.64232927 -51.375 17.625 C-51.24706621 12.55478202 -50.60234034 9.77806426 -47 6 C-33.16544065 -4.58818261 -16.55507349 -0.7856645 0 0 Z " fill="#050F1F" transform="translate(439,232)"/>
<path d="M0 0 C0 4.62 0 9.24 0 14 C-2.31 14 -4.62 14 -7 14 C-6.95359375 14.72445312 -6.9071875 15.44890625 -6.859375 16.1953125 C-6.63002148 22.33871035 -6.61994629 26.27415257 -11 31 C-16.93543059 35.57522775 -20.86507886 36.1308789 -28.25 36.0625 C-29.51328125 36.05347656 -30.7765625 36.04445313 -32.078125 36.03515625 C-33.04234375 36.02355469 -34.0065625 36.01195312 -35 36 C-34.67 37.65 -34.34 39.3 -34 41 C-33.44127197 41.01458252 -32.88254395 41.02916504 -32.30688477 41.04418945 C-29.72479948 41.11960798 -27.14387816 41.21594881 -24.5625 41.3125 C-23.24475586 41.34633789 -23.24475586 41.34633789 -21.90039062 41.38085938 C-14.47888095 41.68210147 -7.77162956 42.63256641 -2 47.5625 C0.88855816 51.08293026 1.35214757 53.31387702 1.27734375 57.91015625 C0.65900974 62.56943365 -2.40792449 65.39348362 -5.5625 68.625 C-13.04942945 74.30917986 -21.03394723 75.38174355 -30.1875 75.5 C-31.03070801 75.51844971 -31.87391602 75.53689941 -32.74267578 75.5559082 C-39.8912188 75.48505415 -45.22563626 73.56628646 -50.5 68.6875 C-52.5017661 65.1010024 -52.64012487 63.0541242 -52 59 C-50.55142414 56.56254395 -49.06560134 55.01642035 -47 53 C-46.34 53 -45.68 53 -45 53 C-45.66 52.195625 -46.32 51.39125 -47 50.5625 C-49.64748585 46.57236061 -49.88910419 42.65069884 -49 38 C-47 34.9375 -47 34.9375 -45 33 C-46.02911077 30.78345373 -47.08234225 28.89130823 -48.5625 26.9375 C-51.84834032 22.5087587 -51.56113656 17.27303329 -51 12 C-48.41887301 6.16440855 -43.48445854 2.96431122 -38 0 C-26.77846445 -3.74790417 -11.66538087 -0.58119335 0 0 Z " fill="#050F1F" transform="translate(497,232)"/>
<path d="M0 0 C5.94 0 11.88 0 18 0 C18 8.58 18 17.16 18 26 C24.93 26 31.86 26 39 26 C39 17.42 39 8.84 39 0 C44.94 0 50.88 0 57 0 C57 23.1 57 46.2 57 70 C51.06 70 45.12 70 39 70 C39 60.76 39 51.52 39 42 C32.4 42 25.8 42 19 42 C19.01160156 43.93746094 19.02320313 45.87492187 19.03515625 47.87109375 C19.04453221 50.39322821 19.05363262 52.9153637 19.0625 55.4375 C19.07087891 56.71689453 19.07925781 57.99628906 19.08789062 59.31445312 C19.09272461 61.13686523 19.09272461 61.13686523 19.09765625 62.99609375 C19.10551147 64.68496704 19.10551147 64.68496704 19.11352539 66.40795898 C19 69 19 69 18 70 C12.06 70 6.12 70 0 70 C0 46.9 0 23.8 0 0 Z " fill="#061120" transform="translate(257,216)"/>
<path d="M0 0 C1 1 1 1 1.3828125 4.68359375 C1.32801854 8.64908569 0.20898662 10.71314081 -2.60791016 13.61572266 C-3.1085498 14.09315918 -3.60918945 14.5705957 -4.125 15.0625 C-5.13610001 16.09177709 -6.14652105 17.12172161 -7.15625 18.15234375 C-7.89101562 18.88300049 -7.89101562 18.88300049 -8.640625 19.62841797 C-13.37897889 24.40571776 -13.37897889 24.40571776 -17 30 C-11.27521882 28.22674082 -7.2789914 24.31882691 -2.79101562 20.51953125 C2.38305458 16.24229988 7.60223489 12.30888774 14.4375 11.6875 C17 12 17 12 18 13 C18.29962028 15.78416387 18.4402575 17.38673396 16.77734375 19.703125 C11.63047662 24.0304273 6.1510168 27.46384153 0.28100586 30.71582031 C-3.70732488 32.98014963 -6.32896893 35.15533407 -9 39 C-6.81118759 37.9192549 -4.62389008 36.83562729 -2.4375 35.75 C-1.79288818 35.431521 -1.14827637 35.11304199 -0.48413086 34.78491211 C2.75329842 33.17295662 5.88948759 31.50789041 8.9375 29.5625 C12.57520163 27.70652978 14.96818907 27.5256693 19 28 C21 30 21 30 21.125 32.3125 C18.61555962 38.30727425 11.32396573 40.36955088 5.6875 42.75 C2.80593538 43.91590835 -0.05089519 45.01696506 -3 46 C-3 47.32 -3 48.64 -3 50 C-1.38931641 49.11634766 -1.38931641 49.11634766 0.25390625 48.21484375 C1.68959773 47.45477179 3.12582446 46.69571026 4.5625 45.9375 C5.26697266 45.54755859 5.97144531 45.15761719 6.69726562 44.75585938 C11.66222803 42.17041812 14.54419993 41.63067304 20 43 C20.24609375 45.31640625 20.24609375 45.31640625 20 48 C9.53724354 58.46275646 -13.85203802 62.98676004 -27.8125 63.375 C-34.58047726 63.19364129 -39.93353314 61.81200315 -45.75 58.375 C-49.86202251 54.0345318 -52.5318555 49.38328111 -53.6875 43.5 C-52.39388275 36.91431217 -48.17605348 32.18733512 -43.625 27.4375 C-39.6202971 23.05012549 -37.26436752 17.96145242 -34.75244141 12.63452148 C-33.10103809 9.1346772 -31.50151442 5.99564072 -29 3 C-26.625 3.1875 -26.625 3.1875 -24 4 C-21.62391738 7.56412393 -21.75355105 10.99183181 -22.3828125 15.08203125 C-23.37930135 18.17871497 -25.63209906 19.86311379 -28 22 C-29.319018 24.66533035 -29.319018 24.66533035 -30 27 C-27.71010516 27.62414843 -27.71010516 27.62414843 -25 27 C-22.96718463 24.77385058 -21.59326103 22.18312963 -20.125 19.5625 C-19.25496237 18.09027865 -18.38126927 16.62021136 -17.50390625 15.15234375 C-17.07996582 14.43804199 -16.65602539 13.72374023 -16.21923828 12.98779297 C-7.87182855 -0.62146015 -7.87182855 -0.62146015 0 0 Z " fill="#FED228" transform="translate(182,268)"/>
<path d="M0 0 C8.99231056 2.79849193 14.38124377 14.94992035 18.80078125 22.69921875 C20.46051619 25.80216167 20.46051619 25.80216167 22.6484375 27.82421875 C24.75664547 27.50570105 24.75664547 27.50570105 26.6484375 26.82421875 C26.6484375 25.50421875 26.6484375 24.18421875 26.6484375 22.82421875 C25.7821875 22.51484375 25.7821875 22.51484375 24.8984375 22.19921875 C21.69200583 20.23973273 20.39645169 18.1329599 18.6484375 14.82421875 C18.17477016 10.8995465 18.06275693 8.77594968 20.1484375 5.38671875 C20.6434375 4.87109375 21.1384375 4.35546875 21.6484375 3.82421875 C24.40234375 3.85546875 24.40234375 3.85546875 27.6484375 4.82421875 C29.27347706 7.37568273 30.42384906 9.57511287 31.5859375 12.32421875 C34.6010197 18.89097787 37.91387964 24.32637936 42.6484375 29.82421875 C49.62450584 38.01010074 49.62450584 38.01010074 49.94921875 43.67578125 C49.16288796 49.29242972 46.18944167 54.15479756 42.3984375 58.26171875 C29.22255508 65.74801558 15.01554101 63.06361898 0.98779297 59.48339844 C-7.27107339 57.15622883 -15.48703973 54.05384778 -22.3515625 48.82421875 C-23.2890625 45.63671875 -23.2890625 45.63671875 -23.3515625 42.82421875 C-22.3515625 41.82421875 -22.3515625 41.82421875 -19.66796875 41.578125 C-15.84788321 41.86159425 -13.6327061 42.92810774 -10.2890625 44.76171875 C-6.60357894 46.76810169 -3.5202297 48.21995323 0.6484375 48.82421875 C-2.94008003 44.45132581 -7.38997861 42.81260195 -12.4765625 40.69921875 C-14.10593544 40.01330119 -15.73362802 39.32337427 -17.359375 38.62890625 C-18.07754395 38.32968262 -18.79571289 38.03045898 -19.53564453 37.72216797 C-21.3515625 36.82421875 -21.3515625 36.82421875 -23.3515625 34.82421875 C-23.4765625 31.69921875 -23.4765625 31.69921875 -23.3515625 28.82421875 C-18.09249368 27.39138265 -15.01457048 28.46622171 -10.4140625 31.01171875 C-9.49318848 31.49511719 -9.49318848 31.49511719 -8.55371094 31.98828125 C-5.35191969 33.68184688 -2.21272466 35.47062108 0.8984375 37.32421875 C1.8059375 37.81921875 2.7134375 38.31421875 3.6484375 38.82421875 C4.6384375 38.32921875 4.6384375 38.32921875 5.6484375 37.82421875 C5.3184375 36.83421875 4.9884375 35.84421875 4.6484375 34.82421875 C2.99345174 34.12906096 1.32287821 33.47111174 -0.3515625 32.82421875 C-3.27260346 31.13591742 -6.08883451 29.29228594 -8.9140625 27.44921875 C-9.66880859 26.96710938 -10.42355469 26.485 -11.20117188 25.98828125 C-18.69217037 21.13068222 -18.69217037 21.13068222 -21.3515625 17.82421875 C-21.0515625 13.52421875 -21.0515625 13.52421875 -19.3515625 11.82421875 C-8.9336096 12.04587732 -1.14935374 19.5566043 6.27001953 26.12841797 C8.73228298 28.29638698 10.49900984 29.77440953 13.6484375 30.82421875 C11.60790277 27.12534468 9.40087293 24.40726224 6.3359375 21.51171875 C-3.325251 12.02389579 -3.325251 12.02389579 -5.4140625 5.51171875 C-5.3515625 2.82421875 -5.3515625 2.82421875 -4.2265625 0.88671875 C-2.3515625 -0.17578125 -2.3515625 -0.17578125 0 0 Z " fill="#FED022" transform="translate(50.3515625,268.17578125)"/>
<path d="M0 0 C11.1065625 -0.0309375 11.1065625 -0.0309375 22.4375 -0.0625 C24.7777124 -0.071604 27.1179248 -0.08070801 29.52905273 -0.09008789 C31.37223249 -0.09300694 33.21541288 -0.09555552 35.05859375 -0.09765625 C36.50836609 -0.1053302 36.50836609 -0.1053302 37.98742676 -0.11315918 C38.90092896 -0.11328003 39.81443115 -0.11340088 40.75561523 -0.11352539 C41.95141457 -0.11685631 41.95141457 -0.11685631 43.17137146 -0.12025452 C45 0 45 0 46 1 C46.07320163 3.5327765 46.09227569 6.03103918 46.0625 8.5625 C46.041875 11.016875 46.02125 13.47125 46 16 C37.09 16 28.18 16 19 16 C19 20.29 19 24.58 19 29 C26.59 29 34.18 29 42 29 C42 33.95 42 38.9 42 44 C34.41 44 26.82 44 19 44 C19 52.58 19 61.16 19 70 C12.73 70 6.46 70 0 70 C0 46.9 0 23.8 0 0 Z " fill="#0A1524" transform="translate(679,216)"/>
<path d="M0 0 C4.76354555 4.51926116 7.1044048 10.79652773 7.34057617 17.3046875 C7.34010976 18.82820758 7.32367703 20.35178936 7.29296875 21.875 C7.28872391 22.68493408 7.28447906 23.49486816 7.28010559 24.3293457 C7.26346944 26.88658561 7.22584772 29.44300304 7.1875 32 C7.1724336 33.74608227 7.15874864 35.49217705 7.14648438 37.23828125 C7.11361566 41.49249875 7.0619406 45.7461105 7 50 C2.05 50 -2.9 50 -8 50 C-8.495 47.525 -8.495 47.525 -9 45 C-9.68964844 45.433125 -10.37929688 45.86625 -11.08984375 46.3125 C-18.44596445 50.67168263 -23.40831973 52.27083643 -31.75 50.375 C-35.79984751 47.90009319 -38.48794728 44.53615817 -40 40 C-40.49416324 34.83963961 -40.62545242 30.40726795 -38.5 25.625 C-32.46726498 19.29062822 -25.5896699 16.35128755 -16.875 15.88671875 C-15.24959107 15.87688765 -13.62396901 15.93089494 -12 16 C-12.495 13.525 -12.495 13.525 -13 11 C-20.41143629 10.6259649 -26.07919052 11.27705856 -33 14 C-34.98 10.04 -36.96 6.08 -39 2 C-25.91419655 -4.90639627 -13.30160661 -8.98354775 0 0 Z " fill="#050F1F" transform="translate(769,236)"/>
<path d="M0 0 C4.95736094 3.27372892 6.90985943 8.90144577 8.125 14.5 C8.20731525 15.84273815 8.24289309 17.18892787 8.23852539 18.53417969 C8.23844986 19.31468689 8.23837433 20.09519409 8.23829651 20.89935303 C8.23313522 21.73178528 8.22797394 22.56421753 8.22265625 23.421875 C8.2212413 24.28186096 8.21982635 25.14184692 8.21836853 26.02789307 C8.21278097 28.76863109 8.20023075 31.50928676 8.1875 34.25 C8.18248339 36.1106759 8.17792077 37.97135309 8.17382812 39.83203125 C8.16366745 44.38807792 8.14408961 48.94394701 8.125 53.5 C1.855 53.5 -4.415 53.5 -10.875 53.5 C-10.93558594 50.84066406 -10.99617187 48.18132812 -11.05859375 45.44140625 C-11.1203353 42.87651588 -11.18374277 40.31167176 -11.24731445 37.74682617 C-11.290727 35.9591073 -11.33239729 34.17134526 -11.37231445 32.38354492 C-11.4298646 29.81936609 -11.49360203 27.25540588 -11.55859375 24.69140625 C-11.57530624 23.8872377 -11.59201874 23.08306915 -11.60923767 22.25453186 C-11.36720696 18.57330002 -11.36720696 18.57330002 -12.875 15.5 C-18.20173036 15.16143172 -18.20173036 15.16143172 -22.875 17.5 C-23.21284096 20.18784817 -23.36392244 22.6571425 -23.38671875 25.3515625 C-23.40466995 26.12559418 -23.42262115 26.89962585 -23.44111633 27.69711304 C-23.49536392 30.17301967 -23.52916009 32.64873203 -23.5625 35.125 C-23.59566046 36.80211046 -23.63014893 38.47919523 -23.66601562 40.15625 C-23.75360393 44.27086348 -23.8135442 48.38458045 -23.875 52.5 C-29.815 52.5 -35.755 52.5 -41.875 52.5 C-41.875 35.34 -41.875 18.18 -41.875 0.5 C-36.925 0.5 -31.975 0.5 -26.875 0.5 C-26.545 2.15 -26.215 3.8 -25.875 5.5 C-25.26011719 5.07847656 -24.64523437 4.65695313 -24.01171875 4.22265625 C-23.20347656 3.67480469 -22.39523437 3.12695312 -21.5625 2.5625 C-20.76199219 2.01722656 -19.96148438 1.47195312 -19.13671875 0.91015625 C-13.55064147 -2.57270022 -5.94300352 -2.92004719 0 0 Z " fill="#061120" transform="translate(578.875,232.5)"/>
<path d="M0 0 C5.94 0 11.88 0 18 0 C18.06058594 2.41957031 18.12117188 4.83914062 18.18359375 7.33203125 C18.24540118 9.67524282 18.30878139 12.01840693 18.37231445 14.36157227 C18.41562749 15.99011004 18.45730518 17.61869216 18.49731445 19.24731445 C18.55510503 21.58818935 18.61877398 23.92884176 18.68359375 26.26953125 C18.70030624 26.99775589 18.71701874 27.72598053 18.73423767 28.47627258 C18.82467238 31.56166939 19.01723993 34.05171978 20 37 C24.0100934 37.17864631 24.0100934 37.17864631 28 37 C30.90497155 34.09502845 30.3544517 31.04600694 30.4140625 27.1484375 C30.43342865 26.37440582 30.4527948 25.60037415 30.4727478 24.80288696 C30.5325983 22.32703725 30.57895011 19.85114117 30.625 17.375 C30.66317482 15.69789623 30.70222625 14.02081216 30.7421875 12.34375 C30.83995736 8.22926837 30.91947991 4.1150004 31 0 C36.94 0 42.88 0 49 0 C49 17.49 49 34.98 49 53 C44.05 53 39.1 53 34 53 C33.505 50.03 33.505 50.03 33 47 C31.948125 47.78375 30.89625 48.5675 29.8125 49.375 C24.0056264 53.46646982 19.11780853 54.96450579 12 54 C7.69268612 52.59232599 4.9778723 50.4249212 2.625 46.5625 C-0.04690767 40.70485626 -0.13818528 35.52360616 -0.09765625 29.19921875 C-0.0962413 28.36284378 -0.09482635 27.52646881 -0.09336853 26.66474915 C-0.08779184 24.005629 -0.07524365 21.3465945 -0.0625 18.6875 C-0.05748199 16.87955851 -0.05291961 15.0716157 -0.04882812 13.26367188 C-0.03868291 8.84238875 -0.01910303 4.42128972 0 0 Z " fill="#020D1C" transform="translate(328,233)"/>
<path d="M0 0 C0.495 1.485 0.495 1.485 1 3 C1.66 3 2.32 3 3 3 C8.65130227 12.47960382 8 16.21509027 8 29 C-1.9 29 -11.8 29 -22 29 C-20.515 31.475 -20.515 31.475 -19 34 C-19 34.66 -19 35.32 -19 36 C-12.10146045 37.94654051 -5.70893951 37.2838943 1 35 C1.86646667 36.43011973 2.71781829 37.86940619 3.5625 39.3125 C4.03816406 40.11300781 4.51382813 40.91351563 5.00390625 41.73828125 C6 44 6 44 5 47 C3.29296875 48.1328125 3.29296875 48.1328125 1.1875 49.125 C0.50042969 49.45757812 -0.18664062 49.79015625 -0.89453125 50.1328125 C-8.42727206 53.23535139 -17.4161233 52.83723047 -25 50 C-31.64762741 46.0986442 -36.91760535 41.00002431 -39.453125 33.5625 C-41.32575179 24.78790591 -41.16030003 15.91808085 -36.5546875 8.0859375 C-27.58271123 -3.9518397 -13.1365538 -7.65658789 0 0 Z " fill="#030E1D" transform="translate(872,235)"/>
<path d="M0 0 C1.49609375 1.16796875 1.49609375 1.16796875 2.49609375 4.16796875 C1.0625 6.6484375 1.0625 6.6484375 -0.94140625 9.35546875 C-1.60011719 10.25652344 -2.25882813 11.15757812 -2.9375 12.0859375 C-3.45441406 12.77300781 -3.97132813 13.46007812 -4.50390625 14.16796875 C-5.49390625 13.83796875 -6.48390625 13.50796875 -7.50390625 13.16796875 C-13.14249316 12.55428273 -13.14249316 12.55428273 -17.94140625 14.98046875 C-21.25527959 19.61989143 -20.98572182 24.68403152 -20.50390625 30.16796875 C-19.17253913 33.53142253 -18.27717407 34.70818788 -15.19140625 36.54296875 C-10.73352454 37.57968543 -6.84115003 36.25927525 -2.50390625 35.16796875 C-1.47070144 36.76419531 -0.45268196 38.37025981 0.55859375 39.98046875 C1.12707031 40.87378906 1.69554687 41.76710938 2.28125 42.6875 C3.49609375 45.16796875 3.49609375 45.16796875 2.49609375 48.16796875 C-4.78226368 52.8371037 -10.83643185 53.99232093 -19.50390625 53.16796875 C-26.18479262 51.39068167 -32.11604844 47.49678929 -36.50390625 42.16796875 C-41.27846244 33.64101488 -41.28612215 24.93681098 -40.00390625 15.48046875 C-36.32153628 7.34856839 -29.74824122 1.48346432 -21.50390625 -1.83203125 C-13.82723762 -3.71475852 -7.06074771 -3.70795806 0 0 Z " fill="#050F1F" transform="translate(825.50390625,233.83203125)"/>
<path d="M0 0 C5.94 0 11.88 0 18 0 C18 17.49 18 34.98 18 53 C12.06 53 6.12 53 0 53 C0 35.51 0 18.02 0 0 Z " fill="#010C1C" transform="translate(506,233)"/>
<path d="M0 0 C4.18978121 0.25651722 7.2266369 0.97206263 10.9375 2.9375 C19.22973018 7.30601207 28.37322024 8.71222144 37.453125 5.94921875 C41.46693833 4.42378969 45.40116797 2.8376182 49.20703125 0.84375 C51.54067155 -0.25443367 53.45498937 -0.14138948 56 0 C56.6422564 10.27610242 53.93390373 16.27554622 47.62109375 24.3125 C47.08613281 24.869375 46.55117187 25.42625 46 26 C45.34 26 44.68 26 44 26 C42.66796875 24.50390625 42.66796875 24.50390625 41.1875 22.5625 C39.0898156 20.0061082 38.34415253 19.11222365 35.125 18.0625 C34.42375 18.041875 33.7225 18.02125 33 18 C32.566875 18.66 32.13375 19.32 31.6875 20 C31.130625 20.66 30.57375 21.32 30 22 C29.01 22 28.02 22 27 22 C27 21.34 27 20.68 27 20 C26.34 20 25.68 20 25 20 C25 19.01 25 18.02 25 17 C22.99538701 17.65266469 20.99620166 18.32204472 19 19 C18.0925 19.268125 17.185 19.53625 16.25 19.8125 C13.75704127 20.84905202 13.75704127 20.84905202 12.6875 23.625 C12.460625 24.40875 12.23375 25.1925 12 26 C6.68456476 23.61207229 3.234505 19.90498761 0.94921875 14.52734375 C-0.49343551 9.99426424 -1.49155752 5.79268585 -1 1 C-0.67 0.67 -0.34 0.34 0 0 Z " fill="#32353D" transform="translate(86,246)"/>
<path d="M0 0 C0 0.99 0 1.98 0 3 C0.66 3 1.32 3 2 3 C2 3.66 2 4.32 2 5 C2.99 5 3.98 5 5 5 C5.2475 4.360625 5.495 3.72125 5.75 3.0625 C7 1 7 1 8.81640625 0.16796875 C11 0 11 0 13.10546875 1.328125 C13.79253906 1.96234375 14.47960937 2.5965625 15.1875 3.25 C16.22970703 4.18585938 16.22970703 4.18585938 17.29296875 5.140625 C19 7 19 7 20 10 C11.98859722 14.27407344 4.63531807 16.5175412 -4.4765625 14.43359375 C-8.47033928 13.19122996 -11.17258916 12.17416877 -14 9 C-11.07463636 3.14927272 -6.83948312 -0.80464507 0 0 Z " fill="#FC373C" transform="translate(111,263)"/>
<path d="M0 0 C2.75329021 1.79562405 4.52627461 3.05254922 6 6 C6.06996014 7.70702735 6.08440154 9.41668003 6.0625 11.125 C6.05347656 12.03507813 6.04445313 12.94515625 6.03515625 13.8828125 C6.02355469 14.58148438 6.01195313 15.28015625 6 16 C3.3542214 16.78310572 2.26944743 17.0829069 -0.4375 16.25 C-1.283125 16.1675 -2.12875 16.085 -3 16 C-5.83411155 18.333492 -5.83411155 18.333492 -8 21 C-11.38231081 19.60042311 -13.27928642 18.26935579 -15 15 C-15.83931263 8.4953271 -15.83931263 8.4953271 -13.98046875 5.18359375 C-9.92559779 0.09969209 -6.3008642 -0.54317795 0 0 Z " fill="#34363D" transform="translate(90,210)"/>
<path d="M0 0 C2.97672584 1.77280561 5.42804007 3.85608015 7 7 C7.68585132 13.85851319 7.68585132 13.85851319 5.8828125 16.859375 C4.66339507 18.30614145 3.33792975 19.66207025 2 21 C0.0625 20.1875 0.0625 20.1875 -2 19 C-2.33 18.01 -2.66 17.02 -3 16 C-6.5219721 15.91995518 -9.61981469 15.95994298 -13 17 C-14.73631636 13.52736727 -14.60190402 9.78806987 -14 6 C-9.78502349 0.67581915 -6.7408423 -0.67408423 0 0 Z " fill="#32353D" transform="translate(144,210)"/>
<path d="M0 0 C3.47424741 2.41070228 4.76513615 3.77348878 5.5625 7.9375 C4.82653066 11.94444417 3.78496381 14.0061639 1 17 C-3.10735186 18.57302837 -6.24734687 18.25088438 -10.375 16.875 C-14.14000072 14.18571377 -14.62374301 11.88128497 -15.5 7.5 C-14.8714526 4.35726301 -13.46027521 2.85764026 -10.9140625 0.95703125 C-7.31637513 -0.84181244 -3.88106606 -0.88465476 0 0 Z " fill="#081221" transform="translate(520,208)"/>
<path d="M0 0 C2.875 1.0625 2.875 1.0625 4.8125 3.25 C6.1163601 6.70139439 5.96482144 8.5595025 4.875 12.0625 C1.18013897 14.52574069 -0.75793092 14.45241688 -5.125 14.0625 C-7.0625 13 -7.0625 13 -8.125 11.0625 C-8.625 7.625 -8.625 7.625 -8.125 4.0625 C-5.46834042 0.93701814 -4.11787106 0.08235742 0 0 Z " fill="#FFAE05" transform="translate(65.125,220.9375)"/>
<path d="M0 0 C3.4375 1.0625 3.4375 1.0625 5.5 3.25 C6.72425703 6.92277109 6.05102077 8.60495549 4.4375 12.0625 C2.4375 14.0625 2.4375 14.0625 -1 14.4375 C-4.5625 14.0625 -4.5625 14.0625 -6.5 12.4375 C-7.87815201 9.35692492 -8.04996608 7.40512452 -7.5625 4.0625 C-5.28407032 0.5081497 -4.25424245 0.07463583 0 0 Z " fill="#FFAE04" transform="translate(166.5625,220.9375)"/>
<path d="M0 0 C0.74886475 0.00523682 1.49772949 0.01047363 2.26928711 0.01586914 C3.07817383 0.0190918 3.88706055 0.02231445 4.72045898 0.02563477 C5.5705957 0.03401367 6.42073242 0.04239258 7.29663086 0.05102539 C8.15063477 0.05553711 9.00463867 0.06004883 9.88452148 0.06469727 C12.00108749 0.07652166 14.11761771 0.0944577 16.23413086 0.11352539 C16.56413086 1.76352539 16.89413086 3.41352539 17.23413086 5.11352539 C13.79783307 8.3134194 11.28982822 8.49432638 6.67163086 8.42602539 C4.96813477 8.42022461 4.96813477 8.42022461 3.23022461 8.41430664 C0.23413086 8.11352539 0.23413086 8.11352539 -2.76586914 6.11352539 C-3.01586914 3.55102539 -3.01586914 3.55102539 -2.76586914 1.11352539 C-1.76586914 0.11352539 -1.76586914 0.11352539 0 0 Z " fill="#F4F5F5" transform="translate(613.765869140625,287.886474609375)"/>
<path d="M0 0 C2.77109307 -0.05392397 5.54113818 -0.09363455 8.3125 -0.125 C9.09818359 -0.14175781 9.88386719 -0.15851563 10.69335938 -0.17578125 C11.45068359 -0.18222656 12.20800781 -0.18867188 12.98828125 -0.1953125 C13.68477783 -0.20578613 14.38127441 -0.21625977 15.09887695 -0.22705078 C17 0 17 0 20 2 C19.8125 3.875 19.8125 3.875 19 6 C15.25930663 7.92089659 12.04737501 8.29681438 7.875 8.3125 C6.84117187 8.32925781 5.80734375 8.34601563 4.7421875 8.36328125 C2 8 2 8 0.0703125 6.79296875 C-1 5 -1 5 -0.6875 2.3125 C-0.460625 1.549375 -0.23375 0.78625 0 0 Z " fill="#F4F5F5" transform="translate(403,288)"/>
<path d="M0 0 C2.77109307 -0.05392397 5.54113818 -0.09363455 8.3125 -0.125 C9.09818359 -0.14175781 9.88386719 -0.15851563 10.69335938 -0.17578125 C11.45068359 -0.18222656 12.20800781 -0.18867188 12.98828125 -0.1953125 C13.68477783 -0.20578613 14.38127441 -0.21625977 15.09887695 -0.22705078 C17 0 17 0 20 2 C19.8125 3.875 19.8125 3.875 19 6 C15.43140019 7.80328182 12.41071331 8.29592192 8.4375 8.3125 C7.04337891 8.33763672 7.04337891 8.33763672 5.62109375 8.36328125 C2.60616644 7.94541502 1.24485514 7.00188259 -1 5 C-0.67 3.35 -0.34 1.7 0 0 Z " fill="#F5F6F6" transform="translate(461,288)"/>
<path d="M0 0 C2.3431213 0.25561323 4.67843403 0.59270772 7 1 C8.16983345 3.3396669 8.1661241 4.83391527 8.1875 7.4375 C8.20167969 8.21996094 8.21585937 9.00242188 8.23046875 9.80859375 C8 12 8 12 6 15 C3.0625 15.4375 3.0625 15.4375 0 15 C-2.80872754 12.65939372 -2.98435997 11.14597363 -3.375 7.5 C-2.99007552 3.90737156 -2.45622327 2.55856591 0 0 Z " fill="#EDEEEF" transform="translate(408,243)"/>
<path d="M0 0 C2.12507645 1.61668496 2.90844456 2.50452352 3.3984375 5.15625 C3.39070312 5.9296875 3.38296875 6.703125 3.375 7.5 C3.38273438 8.2734375 3.39046875 9.046875 3.3984375 9.84375 C2.90836323 12.49591661 2.12263747 13.38009245 0 15 C-2.5 15.4375 -2.5 15.4375 -5 15 C-7.15926208 13.21302449 -7.87841815 11.82775588 -8.28515625 9.05859375 C-8.41347709 6.02910599 -8.38184375 3.64310527 -6.8125 1 C-4.33474158 -0.36703913 -2.78844081 -0.41826612 0 0 Z " fill="#F3F3F4" transform="translate(622,243)"/>
<path d="M0 0 C2.3431213 0.25561323 4.67843403 0.59270772 7 1 C8.16983345 3.3396669 8.1661241 4.83391527 8.1875 7.4375 C8.20167969 8.21996094 8.21585937 9.00242188 8.23046875 9.80859375 C8 12 8 12 6 15 C3.0625 15.4375 3.0625 15.4375 0 15 C-2.80872754 12.65939372 -2.98435997 11.14597363 -3.375 7.5 C-2.99007552 3.90737156 -2.45622327 2.55856591 0 0 Z " fill="#EEEEEF" transform="translate(466,243)"/>
<path d="M0 0 C1.9375 1.75 1.9375 1.75 3 4 C3 5.32 3 6.64 3 8 C-2.28 8 -7.56 8 -13 8 C-10.16012247 0.90030618 -7.78060092 -0.9902583 0 0 Z " fill="#E2E3E5" transform="translate(862,245)"/>
<path d="M0 0 C0.48275862 6.27586207 0.48275862 6.27586207 -1.625 9.4375 C-4.65009912 11.42769679 -6.44399109 11.46382725 -10 11 C-10.66 10.34 -11.32 9.68 -12 9 C-11.7857508 6.21476041 -11.37175447 4.49567262 -9.6875 2.25 C-6.5173441 -0.09826363 -3.91925781 0 0 0 Z " fill="#E8E9EA" transform="translate(758,262)"/>
<path d="M0 0 C6.63650843 9.95476264 4.30657001 24.66665816 3.4140625 35.98828125 C3.27742187 36.65214844 3.14078125 37.31601562 3 38 C2.01 38.495 2.01 38.495 1 39 C0.97315321 36.35409986 0.95323643 33.70846904 0.9375 31.0625 C0.92912109 30.30775391 0.92074219 29.55300781 0.91210938 28.77539062 C0.90347559 26.85005687 0.94775667 24.92464419 1 23 C1.33 22.67 1.66 22.34 2 22 C2.30040966 16.49248952 1.66844867 11.66517892 0.4375 6.296875 C0 4 0 4 0 0 Z " fill="#FFE8B0" transform="translate(187,224)"/>
</svg>
