<?xml version="1.0" encoding="UTF-8"?>
<svg version="1.1" xmlns="http://www.w3.org/2000/svg" width="1000" height="500">
<path d="M0 0 C330 0 660 0 1000 0 C1000 165 1000 330 1000 500 C670 500 340 500 0 500 C0 335 0 170 0 0 Z " fill="#FEFEFE" transform="translate(0,0)"/>
<path d="M0 0 C0 165 0 330 0 500 C-92.6578125 500.0928125 -92.6578125 500.0928125 -187.1875 500.1875 C-216.42380005 500.22846802 -216.42380005 500.22846802 -246.25073242 500.27026367 C-270.08654785 500.28381348 -270.08654785 500.28381348 -281.25190735 500.28633118 C-289.035179 500.28912144 -296.81838557 500.30009476 -304.60163879 500.31672668 C-313.59154044 500.33590846 -322.58137996 500.34448789 -331.57130219 500.34033485 C-336.16379048 500.33853818 -340.75614019 500.34125955 -345.34860265 500.35764539 C-390.34317312 500.51041074 -390.34317312 500.51041074 -408.625 493.9375 C-409.47562012 493.64222412 -410.32624023 493.34694824 -411.20263672 493.04272461 C-429.43260106 486.43861754 -444.93680421 476.26304844 -459 463 C-459.90492188 462.17435547 -459.90492188 462.17435547 -460.828125 461.33203125 C-481.50060644 441.77045419 -493.30851034 414.61005062 -498 387 C-498.185625 385.98035156 -498.37125 384.96070313 -498.5625 383.91015625 C-500.28018124 368.55838014 -500.37580487 351.89010631 -496 337 C-495.76361816 336.16807129 -495.52723633 335.33614258 -495.28369141 334.47900391 C-490.51552412 317.86213116 -484.39473792 302.99029481 -474 289 C-473.48099121 288.30076416 -472.96198242 287.60152832 -472.42724609 286.88110352 C-464.3472649 276.50967914 -454.71139547 267.53184878 -445.375 258.3125 C-442.72360723 255.68889708 -440.07377491 253.06376414 -437.4269104 250.43559265 C-435.79023729 248.81099907 -434.15090056 247.18908268 -432.50839233 245.57038879 C-428.42597468 241.5234621 -424.54703693 237.38900703 -420.79803467 233.03303528 C-417.37224656 229.15950147 -413.70428915 225.52065553 -410.05859375 221.85546875 C-409.21386002 221.00503494 -408.36912628 220.15460114 -407.49879456 219.27839661 C-405.71763312 217.4878378 -403.93505153 215.69869069 -402.15112305 213.91088867 C-399.46260325 211.21269359 -396.78497113 208.50399779 -394.10742188 205.79492188 C-376.75328425 188.33354817 -359.18678906 173.9502684 -336 165 C-335.34 165 -334.68 165 -334 165 C-333.9071875 164.32839844 -333.814375 163.65679687 -333.71875 162.96484375 C-332.81302455 159.22872627 -331.23040082 155.97019155 -329.5 152.5625 C-328.96596558 151.50905396 -328.96596558 151.50905396 -328.42114258 150.43432617 C-317.74580643 129.76990887 -302.32440791 114.00911524 -286.0078125 97.70703125 C-284.17116039 95.86648256 -282.33472852 94.02571407 -280.49850464 92.18473816 C-276.66795876 88.34603695 -272.83294744 84.51183813 -268.99560547 80.67993164 C-264.59194693 76.28231585 -260.19756076 71.87558743 -255.80757248 67.46432859 C-251.5412299 63.17809528 -247.26642401 58.9004076 -242.98836899 54.62586021 C-241.18810687 52.8250888 -239.39017026 51.0219891 -237.59473038 49.21640968 C-226.06262214 37.62715428 -214.63096005 26.42604295 -200.375 18.1875 C-199.74948242 17.81987549 -199.12396484 17.45225098 -198.47949219 17.07348633 C-193.1506528 13.98998272 -187.71156303 11.3069226 -182 9 C-180.68128906 8.46439453 -180.68128906 8.46439453 -179.3359375 7.91796875 C-126.20618771 -12.52243931 -41.29714958 0 0 0 Z " fill="#84B0C1" transform="translate(1000,0)"/>
<path d="M0 0 C1.71509766 0.75796875 1.71509766 0.75796875 3.46484375 1.53125 C10.92263737 4.98659839 16.92127493 9.49507789 23 15 C23.83273438 15.75023438 24.66546875 16.50046875 25.5234375 17.2734375 C37.50644552 28.65162492 45.77227975 41.78757754 52 57 C52.39703125 57.96808594 52.7940625 58.93617187 53.203125 59.93359375 C54.29897139 62.92977693 55.17470748 65.91728969 56 69 C56.1969043 69.73234863 56.39380859 70.46469727 56.59667969 71.21923828 C59.82533413 83.58434982 61.62528671 95.97923041 62.75 108.6875 C62.81297272 109.39691742 62.87594543 110.10633484 62.94082642 110.83724976 C63.61001563 118.54774147 64.07599784 126.22633189 64.19995117 133.9675293 C64.37576352 142.86363414 65.64460314 147.60961931 72 154 C73.54441094 156.02197743 75.0367858 158.04638742 76.5 160.125 C76.91266113 160.70491699 77.32532227 161.28483398 77.75048828 161.88232422 C92.61006997 182.93568212 105.80546492 205.00543921 118 227.6875 C118.62326172 228.84531982 119.24652344 230.00313965 119.88867188 231.19604492 C131.09201234 252.23576018 140.41482733 274.75641423 147.77734375 297.43359375 C148.23814331 298.84765503 148.23814331 298.84765503 148.70825195 300.2902832 C149.30348765 302.13083758 149.88979917 303.97431083 150.46557617 305.82104492 C159.34128068 333.43230119 192.26212921 349.9938579 215 365 C215.82032715 365.54398437 216.6406543 366.08796875 217.48583984 366.6484375 C222.28552267 369.82831747 227.11539651 372.95206675 232 376 C232.61617188 376.38704102 233.23234375 376.77408203 233.8671875 377.17285156 C243.54929817 383.17310474 253.67347827 387.49326811 264.30859375 391.55102539 C269.84407446 393.66996767 274.9580824 395.87472626 280 399 C280.38103984 403.47340768 280.38103984 403.47340768 278.7421875 405.73828125 C256.84271332 424.20164546 230.15077981 431.11342191 202 429 C191.20569849 427.69118852 180.92103554 424.39931485 171 420 C170.01902344 419.57074219 169.03804688 419.14148438 168.02734375 418.69921875 C162.80319654 416.25577704 158.20822522 413.49275699 153.63452148 410.00952148 C146.78429724 404.52042871 146.78429724 404.52042871 138.3828125 403.51953125 C137.20332031 403.75736328 137.20332031 403.75736328 136 404 C133.79224688 404.31657308 131.5838477 404.62865664 129.375 404.9375 C128.15554688 405.11925781 126.93609375 405.30101562 125.6796875 405.48828125 C109.58397211 407.72664507 93.21216462 407.10226014 77 407 C77.01947139 411.87548433 77.07134044 416.74917645 77.15258789 421.62402344 C77.17571129 423.28049949 77.19015032 424.93712138 77.19555664 426.59375 C77.20488843 428.98268921 77.24596464 431.36935279 77.29296875 433.7578125 C77.28706978 434.85973434 77.28706978 434.85973434 77.28105164 435.98391724 C77.44296139 441.75597313 78.96984948 444.14607279 83 448 C84.89081101 449.12863153 84.89081101 449.12863153 86.85546875 449.50390625 C87.55567139 449.68429443 88.25587402 449.86468262 88.97729492 450.05053711 C90.07134644 450.30395874 90.07134644 450.30395874 91.1875 450.5625 C99.85276561 452.8507223 108.74654072 455.41418516 115 462.25390625 C116.96217068 465.68004022 116.87490865 469.22602963 116 473 C113.65883925 475.67561229 111.40318275 476.31555996 108 477 C106.10768291 477.08938615 104.21254208 477.1251031 102.31811523 477.12597656 C101.16893112 477.12998474 100.01974701 477.13399292 98.83573914 477.13812256 C97.58928116 477.13894836 96.34282318 477.13977417 95.05859375 477.140625 C92.37855715 477.15529004 89.69856633 477.17131109 87.01855469 477.18945312 C86.32172168 477.19388805 85.62488867 477.19832298 84.90693951 477.2028923 C60.66003071 477.36320402 37.05539887 478.05791784 13.140625 482.46582031 C5.65409597 483.73918206 -1.91293023 484.19049357 -9.5 484.25 C-10.53253906 484.2809375 -10.53253906 484.2809375 -11.5859375 484.3125 C-14.49485017 484.33513745 -16.5092877 484.32552202 -18.97265625 482.69140625 C-20 481 -20 481 -19.9375 477.6875 C-18.00085261 470.07002028 -13.45275449 465.99809699 -7 462 C2.64740383 457.1975354 12.86302787 454.89374971 23.30834961 452.59594727 C36.2054354 450.40436235 36.2054354 450.40436235 46 443 C47.23472762 436.85671449 47.1698362 430.86728944 47.0625 424.625 C47.06557663 422.9179565 47.07269593 421.2109152 47.08398438 419.50390625 C47.10277383 415.33450858 47.06627837 411.16887803 47 407 C46.22180908 407.01740234 45.44361816 407.03480469 44.6418457 407.05273438 C36.37437674 407.15616239 28.38384335 406.53680241 20.1875 405.5 C19.00607422 405.35691406 17.82464844 405.21382813 16.60742188 405.06640625 C13.73736254 404.71781605 10.86835788 404.36227832 8 404 C8 403.34 8 402.68 8 402 C6.741875 401.896875 5.48375 401.79375 4.1875 401.6875 C-1.3851218 401.08409509 -6.63960058 399.59309067 -12 398 C-12.14836256 403.32827459 -12.12328149 408.62994363 -11.75390625 413.94921875 C-11.69533447 414.82151123 -11.6367627 415.69380371 -11.57641602 416.5925293 C-10.86630588 419.55838954 -9.7175397 420.88016945 -7.5 422.9375 C-4.99773277 424.11123278 -4.99773277 424.11123278 -2 425 C-0.64449261 425.47667316 0.70957221 425.95745999 2.0625 426.44140625 C4.28378176 427.22720443 6.50613602 428.00203844 8.7421875 428.74487305 C22.1267678 433.25353561 22.1267678 433.25353561 25 439 C25.13415472 441.6723621 25.04318541 444.32250488 25 447 C19.95421697 450.01477288 16.12806612 450.44122161 10.4296875 450.44140625 C9.60347397 450.45379837 8.77726044 450.46619049 7.92601013 450.47895813 C6.15823839 450.50476238 4.39036981 450.52452381 2.62246704 450.53875732 C-2.01140546 450.57880167 -6.64422031 450.6714478 -11.27734375 450.76171875 C-12.65842064 450.7874295 -12.65842064 450.7874295 -14.06739807 450.81365967 C-30.84455375 451.15029563 -47.7006405 451.74392621 -64 456 C-65.56046669 456.30235644 -67.12297622 456.59439167 -68.6875 456.875 C-72.0034545 457.51289506 -75.23783875 458.32727477 -78.48828125 459.234375 C-97.4628827 464.52578343 -97.4628827 464.52578343 -103 463 C-105.5508824 460.4491176 -105.86534032 458.67329839 -106.5625 455.1875 C-105.20592205 447.50022497 -98.70329745 442.41987511 -92.76953125 437.8828125 C-82.839505 431.13207533 -71.60870045 427.25100532 -60.125 424.0625 C-48.17796837 421.20832467 -48.17796837 421.20832467 -38 415 C-36.8264265 407.7604232 -38.76905655 400.45305754 -40.34375 393.41796875 C-40.9060425 390.48936199 -41.13552991 387.96471673 -41 385 C-42.98 384.34 -44.96 383.68 -47 383 C-47 382.34 -47 381.68 -47 381 C-47.87785156 380.74734375 -48.75570312 380.4946875 -49.66015625 380.234375 C-57.77472551 377.23530613 -64.58834899 370.70591893 -71 365 C-71.62261719 364.46890625 -72.24523437 363.9378125 -72.88671875 363.390625 C-84.36386379 353.55951452 -94.14066417 342.60406979 -102.4921875 329.99609375 C-104.01529815 327.75177219 -104.01529815 327.75177219 -107 326 C-107.75631677 324.3261842 -108.50455892 322.64744796 -109.18261719 320.94042969 C-109.98881436 319.02655421 -110.91284719 317.2771421 -111.9453125 315.4765625 C-118.54047334 303.87441374 -122.95026319 291.76653408 -127.203125 279.13867188 C-127.8133237 277.04810402 -127.8133237 277.04810402 -129 276 C-134.97134269 254.40359332 -140.20566404 222.61699211 -133 201 C-132.80849994 199.10165162 -132.62029157 197.20286083 -132.45556641 195.30200195 C-131.56090961 185.28333342 -129.41013727 175.93750298 -126.64794922 166.28515625 C-125.61437913 162.64001079 -124.65420407 158.97582288 -123.6875 155.3125 C-123.12532853 153.20824554 -122.56296498 151.10404231 -122 149 C-122.88945313 148.42765625 -123.77890625 147.8553125 -124.6953125 147.265625 C-127.63626132 145.30499245 -130.2566932 143.13027891 -132.875 140.75 C-133.65617187 140.04359375 -134.43734375 139.3371875 -135.2421875 138.609375 C-135.82226562 138.07828125 -136.40234375 137.5471875 -137 137 C-141.06652629 138.7568107 -143.33202078 141.36290539 -146.21875 144.63671875 C-148 146 -148 146 -150.09375 145.83203125 C-154.90074322 143.73389691 -157.0813855 138.41113034 -158.984375 133.8046875 C-166.18271448 113.92619617 -167.19107563 90.36620724 -158.42578125 70.79296875 C-155.74954811 65.55048465 -152.52238343 60.87035679 -148.8125 56.3125 C-146.86897495 54.02505144 -146.86897495 54.02505144 -145.6875 51.0625 C-143.49010124 47.07462817 -140.81963114 44.46830969 -137 42 C-135.1128125 41.505 -135.1128125 41.505 -133.1875 41 C-131.6096875 40.505 -131.6096875 40.505 -130 40 C-128.64626192 37.45560098 -128.64626192 37.45560098 -128 34 C-123.41273109 17.04100586 -111.04291496 5.53075838 -96.3125 -3.25 C-65.88281719 -20.60804607 -30.17455036 -13.99649867 0 0 Z " fill="#39C164" transform="translate(164,14)"/>
<path d="M0 0 C3.84494808 0.01267812 7.68990081 0.01369109 11.53486657 0.01605082 C18.78391191 0.02221622 26.03289544 0.03855861 33.28191382 0.05874979 C41.54821016 0.08126455 49.81450979 0.092141 58.08082926 0.10214067 C75.05571211 0.12293047 92.03053514 0.15800808 109.00537133 0.20278788 C109.0993693 18.45040367 109.16961933 36.69795549 109.21262002 54.94576216 C109.23312854 63.42108745 109.26102099 71.89626115 109.30712914 80.37148905 C109.34735998 87.77000718 109.37288887 95.1684154 109.38172531 102.56703991 C109.38687969 106.47415851 109.39873996 110.38096305 109.42829156 114.2879796 C109.80053138 165.56623422 95.51544002 201.26088698 59.64325166 237.71533346 C55.56709084 241.83848398 51.47976919 245.95041701 47.38818383 250.05825663 C46.51199269 250.93852329 45.63580155 251.81878996 44.73305917 252.72573137 C40.57606977 256.9013089 36.41709494 261.07489004 32.25501192 265.24539059 C27.50213858 270.00804618 22.75768907 274.77889367 18.02012575 279.55677766 C13.87060175 283.7403663 9.70988346 287.91268421 5.54531503 292.08129168 C3.7950692 293.83636823 2.04816478 295.59478431 0.30487466 297.35677004 C-11.74373122 309.52663215 -23.60983257 320.45688148 -39.05712867 328.20278788 C-40.11577125 328.75386209 -40.11577125 328.75386209 -41.19580054 329.31606913 C-50.67603492 334.20278788 -50.67603492 334.20278788 -54.99462867 334.20278788 C-54.23417452 328.18252587 -52.90857845 322.40494679 -51.45556617 316.51919413 C-49.34630041 307.81453768 -48.80266351 299.52086906 -48.80712867 290.57778788 C-48.80575904 289.41730936 -48.80438941 288.25683084 -48.80297828 287.06118631 C-48.84260384 280.09687142 -49.16481918 273.5352496 -50.65478492 266.71841288 C-51.18738122 262.77597585 -51.13909886 259.72554273 -48.65894675 256.4256196 C-46.74540933 254.35826125 -44.76365938 252.38839685 -42.74023414 250.42837381 C-41.98080009 249.67302851 -41.22136603 248.9176832 -40.43891883 248.13944864 C-37.92442865 245.64373998 -35.39303893 243.16588909 -32.86181617 240.68716288 C-31.10751065 238.94981144 -29.35452806 237.21112322 -27.60281348 235.47115946 C-22.98313477 230.88759366 -18.34999494 226.31790596 -13.71258521 221.75228739 C-6.30899684 214.46186922 1.08073405 207.15756756 8.45779061 199.84030771 C11.02944498 197.29542045 13.6108095 194.76069357 16.19314599 192.22665262 C17.78735402 190.64975274 19.38119422 189.07248087 20.97460961 187.49478006 C21.68657998 186.80145075 22.39855035 186.10812143 23.13209558 185.39378214 C30.13312623 178.42502371 35.65993638 170.66133626 39.81787133 161.70278788 C40.38119164 160.51685038 40.94451196 159.33091288 41.52490258 158.10903788 C48.0097616 142.37501302 46.91841495 121.06010762 40.49365258 105.55435038 C31.54590736 86.09229479 16.54235511 73.59763136 -3.16650367 65.97622538 C-21.29531743 60.84452413 -40.63762051 63.36139346 -57.19775367 71.84341288 C-70.44162776 79.76014208 -81.08881426 92.14822688 -91.90478492 102.98013163 C-93.5246291 104.59930119 -95.14462162 106.21832237 -96.76475501 107.83720255 C-100.1391478 111.21012918 -103.51174533 114.58483773 -106.8830564 117.96084452 C-111.21076903 122.29429057 -115.54300532 126.62318222 -119.87656474 130.95078039 C-123.21281755 134.2834295 -126.54669725 137.61844435 -129.87985015 140.95419359 C-131.47756919 142.55258054 -133.07603368 144.15022271 -134.67524886 145.74711275 C-136.89879642 147.96813302 -139.11913444 150.19231186 -141.33862281 152.41738749 C-142.33357009 153.40929842 -142.33357009 153.40929842 -143.34861732 154.42124796 C-144.25035178 155.32721216 -144.25035178 155.32721216 -145.17030311 156.25147867 C-145.69472023 156.77627282 -146.21913735 157.30106697 -146.75944591 157.84176397 C-148.10809174 159.20477478 -148.10809174 159.20477478 -148.99462867 161.20278788 C-147.89900611 161.41222025 -147.89900611 161.41222025 -146.78124976 161.62588358 C-138.10759009 163.42156063 -130.32067567 166.67088322 -122.36962867 170.51528788 C-121.38478492 170.97612772 -120.39994117 171.43696756 -119.38525367 171.91177225 C-113.3954327 174.7828931 -108.12382241 177.97607253 -102.99462867 182.20278788 C-106.57523369 183.39632288 -109.28699458 183.15719526 -113.05712867 183.01528788 C-123.33898991 182.877177 -130.47380415 185.70250125 -137.95165992 192.79653788 C-145.89574263 202.15323951 -148.07070306 213.3376379 -148.99462867 225.20278788 C-153.85812631 224.68539451 -158.09431233 223.60657369 -162.68603492 221.92153788 C-165.42825294 221.06778472 -168.15720748 220.62616206 -170.99462867 220.20278788 C-166.34523693 239.77917415 -157.3083769 257.8760367 -139.99462867 269.20278788 C-131.80329811 274.03057127 -123.61178759 277.8047075 -114.25244117 279.73013163 C-111.99462867 280.20278788 -111.99462867 280.20278788 -109.99462867 281.20278788 C-109.37870986 302.80556978 -113.12504355 320.70608599 -127.73681617 337.32388163 C-130.12080376 339.30778826 -131.00391279 339.9104027 -134.05712867 339.76528788 C-136.31103492 339.17544413 -136.31103492 339.17544413 -138.99462867 338.20278788 C-140.15865211 337.83024881 -141.32267554 337.45770975 -142.52197242 337.07388163 C-176.91508689 325.51603495 -204.01128112 300.82454934 -220.10107398 268.61294413 C-224.38851049 259.63139196 -228.36966147 249.74948642 -230.46948218 239.99746561 C-230.64278052 239.40522196 -230.81607886 238.81297831 -230.99462867 238.20278788 C-232.3147444 237.51031645 -233.65119095 236.84885081 -234.99462867 236.20278788 C-242.69990151 228.73213071 -246.66665348 221.74456231 -248.99462867 211.20278788 C-249.17896461 210.5350535 -249.36330054 209.86731913 -249.55322242 209.17935038 C-252.45379129 196.19096233 -247.33272564 184.06444463 -241.14306617 172.84731913 C-238.60921724 169.72838145 -236.60670861 168.73263611 -232.86962867 167.32778788 C-231.81517554 166.917866 -230.76072242 166.50794413 -229.67431617 166.08560038 C-226.99462867 165.20278788 -226.99462867 165.20278788 -224.99462867 165.20278788 C-224.85540992 164.19538553 -224.85540992 164.19538553 -224.71337867 163.16763163 C-223.80765322 159.43151414 -222.22502949 156.17297943 -220.49462867 152.76528788 C-220.13860572 152.06299051 -219.78258277 151.36069315 -219.41577125 150.63711405 C-208.7404351 129.97269674 -193.31903658 114.21190312 -177.00244117 97.90981913 C-175.16578906 96.06927044 -173.32935719 94.22850195 -171.49313331 92.38752604 C-167.66258743 88.54882483 -163.82757611 84.714626 -159.99023414 80.88271952 C-155.58657559 76.48510373 -151.19218943 72.07837531 -146.80220115 67.66711646 C-142.53585857 63.38088315 -138.26105268 59.10319547 -133.98299766 54.82864809 C-132.18273554 53.02787668 -130.38479892 51.22477698 -128.58935905 49.41919756 C-117.05725081 37.82994215 -105.62558872 26.62883083 -91.36962867 18.39028788 C-90.74411109 18.02266336 -90.11859351 17.65503885 -89.47412086 17.2762742 C-84.14528147 14.19277059 -78.70619169 11.50971048 -72.99462867 9.20278788 C-72.11548804 8.84571756 -71.23634742 8.48864725 -70.33056617 8.12075663 C-47.70814351 -0.58268264 -23.8462334 -0.09217649 0 0 Z " fill="#84B0C1" transform="translate(890.9946286678314,-0.2027878761291504)"/>
<path d="M0 0 C0.33 0 0.66 0 1 0 C1 117.81 1 235.62 1 357 C-115.82 357 -232.64 357 -353 357 C-353 356.67 -353 356.34 -353 356 C-352.30551758 355.86948242 -351.61103516 355.73896484 -350.89550781 355.60449219 C-347.67865593 354.99485979 -344.46438723 354.37249175 -341.25 353.75 C-339.61224609 353.44255859 -339.61224609 353.44255859 -337.94140625 353.12890625 C-326.75488359 350.94455567 -316.52417571 347.70157666 -306.5 342.25 C-305.68176758 341.80954346 -304.86353516 341.36908691 -304.02050781 340.9152832 C-283.92294987 329.95604439 -268.27388205 314.58632221 -252.2265625 298.4921875 C-250.56591335 296.83289007 -248.9049678 295.17388924 -247.2437439 293.51516724 C-243.78994056 290.06428802 -240.33971763 286.60988066 -236.89208984 283.15283203 C-232.49811361 278.74742697 -228.09516731 274.35111359 -223.68950844 269.95739555 C-220.26787757 266.54302636 -216.85106678 263.12386546 -213.43564987 259.7032814 C-211.81458163 258.08089043 -210.19205818 256.45995198 -208.56798172 254.84057236 C-200.25899173 246.55036505 -192.14117612 238.33817673 -185 229 C-184.29396637 228.09216766 -183.58793274 227.18433533 -182.86050415 226.24899292 C-179.0104211 221.24571185 -175.78593989 216.05270017 -172.8125 210.5 C-172.46525879 209.8594165 -172.11801758 209.21883301 -171.76025391 208.55883789 C-170.24420543 205.68611288 -169.02455022 203.08559696 -168.125 199.94921875 C-166.91694412 195.84299034 -165.70834628 193.07808661 -161.97900391 190.72460938 C-157.56667452 188.41419198 -153.01447193 186.44641047 -148.44921875 184.4609375 C-143.65725968 182.36169818 -139.27956915 179.97412386 -134.9375 177.0625 C-133.87402344 176.35222656 -132.81054688 175.64195312 -131.71484375 174.91015625 C-119.22413479 165.54234336 -108.43434148 153.5975812 -97.42578125 142.59375 C-95.64852325 140.81971291 -93.87119343 139.04574776 -92.09379578 137.27185059 C-88.38815292 133.57216093 -84.68454724 129.8704457 -80.98217773 126.16748047 C-77.20069627 122.38546403 -73.4154345 118.60727885 -69.62670898 114.83251953 C-65.01770286 110.24025387 -60.41368717 105.6430434 -55.81337547 101.04206848 C-54.07243739 99.30230248 -52.32989614 97.56413906 -50.58565712 95.8276825 C-33.46751833 78.77883985 -19.62800976 62.13379223 -9.84228516 39.90112305 C-9.06991967 38.15781579 -8.2556845 36.43321586 -7.4375 34.7109375 C-5.51932864 29.75913644 -4.45630537 24.75209832 -3.375 19.5625 C-3.05015625 18.06493164 -3.05015625 18.06493164 -2.71875 16.53710938 C-1.5467568 11.03525241 -0.6000005 5.59333801 0 0 Z " fill="#FEFEFE" transform="translate(999,143)"/>
<path d="M0 0 C1.5703125 1.57421875 1.5703125 1.57421875 3.125 3.6875 C3.73601562 4.51378906 4.34703125 5.34007812 4.9765625 6.19140625 C5.64429688 7.11824219 6.31203125 8.04507813 7 9 C7.70898438 9.95777344 8.41796875 10.91554687 9.1484375 11.90234375 C25.5411201 34.36739881 39.84197748 58.21333474 53 82.6875 C53.62326172 83.84531982 54.24652344 85.00313965 54.88867188 86.19604492 C66.09201234 107.23576018 75.41482733 129.75641423 82.77734375 152.43359375 C83.08454346 153.37630127 83.39174316 154.31900879 83.70825195 155.2902832 C84.30348765 157.13083758 84.88979917 158.97431083 85.46557617 160.82104492 C94.34128068 188.43230119 127.26212921 204.9938579 150 220 C151.23049072 220.81597656 151.23049072 220.81597656 152.48583984 221.6484375 C157.28552267 224.82831747 162.11539651 227.95206675 167 231 C167.61617187 231.38704102 168.23234375 231.77408203 168.8671875 232.17285156 C178.54929817 238.17310474 188.67347827 242.49326811 199.30859375 246.55102539 C204.84407446 248.66996767 209.9580824 250.87472626 215 254 C215.38103984 258.47340768 215.38103984 258.47340768 213.7421875 260.73828125 C191.84271332 279.20164546 165.15077981 286.11342191 137 284 C126.20569849 282.69118852 115.92103554 279.39931485 106 275 C105.01902344 274.57074219 104.03804687 274.14148438 103.02734375 273.69921875 C98.71502493 271.68225804 94.8696604 269.73982378 91.2265625 266.640625 C80.02605157 257.13890621 66.68580196 255.45333088 52.6484375 252.73413086 C43.72917702 250.93941617 35.34678835 248.63787014 27 245 C27 244.34 27 243.68 27 243 C25.9171875 242.814375 25.9171875 242.814375 24.8125 242.625 C22.04278106 242.0095069 19.6029646 241.11555626 17 240 C17 239.34 17 238.68 17 238 C16.19691406 237.7834375 15.39382812 237.566875 14.56640625 237.34375 C9.95817266 235.60746046 6.07066952 233.15180315 1.9375 230.5 C1.10420166 229.97043701 0.27090332 229.44087402 -0.58764648 228.89526367 C-6.86204134 224.85581635 -12.80075941 220.51837433 -18.62890625 215.86328125 C-20.84348622 213.99450047 -20.84348622 213.99450047 -23 213 C-23 212.34 -23 211.68 -23 211 C-23.61875 210.690625 -24.2375 210.38125 -24.875 210.0625 C-26.25 209.375 -27.625 208.6875 -29 208 C-29 207.34 -29 206.68 -29 206 C-29.5775 205.938125 -30.155 205.87625 -30.75 205.8125 C-33.87580285 204.68373786 -34.98152818 202.58616702 -37 200 C-39.11660427 198.68834743 -39.11660427 198.68834743 -41 198 C-41 197.01 -41 196.02 -41 195 C-41.66 195 -42.32 195 -43 195 C-43 194.34 -43 193.68 -43 193 C-43.66 193 -44.32 193 -45 193 C-46.7265625 191.3203125 -46.7265625 191.3203125 -48.625 189.125 C-49.25664062 188.40570313 -49.88828125 187.68640625 -50.5390625 186.9453125 C-52 185 -52 185 -52 183 C-52.99 182.67 -53.98 182.34 -55 182 C-56.72600338 180.0341114 -58.31047908 178.08758376 -59.875 176 C-60.32190186 175.41057617 -60.76880371 174.82115234 -61.22924805 174.21386719 C-64.61120397 169.68153991 -67.41941083 165.03075145 -70 160 C-70.87369461 158.49923928 -71.74871456 156.99924942 -72.625 155.5 C-75.04471008 151.14452186 -76.55094919 146.74920121 -78 142 C-78.23332031 141.36191406 -78.46664062 140.72382813 -78.70703125 140.06640625 C-81.66143172 131.96155362 -83.24266343 123.42808316 -85 115 C-85.17869629 114.21052979 -85.35739258 113.42105957 -85.54150391 112.60766602 C-89.69611197 88.97860916 -84.89130495 63.97017283 -71.984375 43.859375 C-70.10299182 41.42734308 -68.13271647 39.21334847 -66 37 C-65.28714844 36.19949219 -64.57429688 35.39898437 -63.83984375 34.57421875 C-56.82149405 27.04033084 -48.63391127 21.49702309 -40 16 C-38.88882813 15.2884375 -37.77765625 14.576875 -36.6328125 13.84375 C-29.48568696 9.52462377 -22.06986433 6.1573546 -14.375 2.9375 C-13.41384277 2.53063965 -12.45268555 2.1237793 -11.46240234 1.70458984 C-10.55441895 1.33672363 -9.64643555 0.96885742 -8.7109375 0.58984375 C-7.89931152 0.25847412 -7.08768555 -0.07289551 -6.25146484 -0.41430664 C-3.71197063 -1.07492761 -2.42824944 -0.93935259 0 0 Z " fill="#B6D019" transform="translate(229,159)"/>
<path d="M0 0 C14.00896084 10.44986901 24.44736321 24.85181378 28.375 42.0625 C30.78689569 58.84631018 29.68084975 75.26670231 22.0625 90.5 C21.74611572 91.15194336 21.42973145 91.80388672 21.10375977 92.47558594 C18.62454015 97.09983747 15.42816097 100.90040676 11.86352539 104.71948242 C11.34268435 105.28012485 10.8218433 105.84076727 10.28521919 106.41839886 C3.07853131 114.11997058 -4.39597724 121.56036908 -11.8515625 129.01953125 C-13.44394898 130.61513828 -15.03626335 132.21081729 -16.62850952 133.80656433 C-19.93629054 137.12028237 -23.24607963 140.43197939 -26.55712891 143.74243164 C-30.80814297 147.99334302 -35.05217257 152.25115733 -39.29458046 156.5106554 C-42.56642339 159.793571 -45.84275453 163.07197813 -49.12040329 166.3490963 C-50.68897349 167.91884867 -52.25591755 169.49022768 -53.82121658 171.06324196 C-55.99412815 173.24588082 -58.17319793 175.42217681 -60.35400391 177.59692383 C-61.00121399 178.24975342 -61.64842407 178.90258301 -62.31524658 179.57519531 C-66.77166759 184 -66.77166759 184 -69 184 C-69.27972656 182.94683594 -69.55945313 181.89367187 -69.84765625 180.80859375 C-78.93699859 147.67060832 -99.865848 118.23027987 -130 101 C-141.49919393 94.86047714 -153.26987282 89.05425316 -166 86 C-164.65424572 83.00789339 -163.16044946 80.90535739 -160.85455322 78.58039856 C-160.20731796 77.92318817 -159.5600827 77.26597778 -158.89323425 76.58885193 C-158.18371109 75.87866409 -157.47418793 75.16847626 -156.74316406 74.43676758 C-155.99482803 73.68010803 -155.246492 72.92344849 -154.47547913 72.14385986 C-151.99433489 69.63858359 -149.5055642 67.14106482 -147.015625 64.64453125 C-145.28074779 62.90068391 -143.54594667 61.15676087 -141.81121826 59.4127655 C-138.16645372 55.75149534 -134.51730245 52.09465778 -130.86572266 48.44018555 C-126.21400231 43.78310712 -121.57860655 39.11014336 -116.94717789 34.43289661 C-113.36434177 30.82012663 -109.77011491 27.21885054 -106.1727829 23.62051964 C-104.46086998 21.90442996 -102.75303334 20.18426296 -101.04956818 18.45978737 C-89.75428632 7.03644938 -78.26018285 -4.50455176 -62.5625 -9.5625 C-61.8300708 -9.80154053 -61.0976416 -10.04058105 -60.34301758 -10.28686523 C-39.63659973 -16.29299516 -17.6621684 -11.73390407 0 0 Z " fill="#FEFEFE" transform="translate(908,75)"/>
<path d="M0 0 C2 1 2 1 2.74267578 2.69555664 C3.09048096 3.79178345 3.09048096 3.79178345 3.4453125 4.91015625 C3.8475 6.13617554 3.8475 6.13617554 4.2578125 7.38696289 C4.54398438 8.26989014 4.83015625 9.15281738 5.125 10.0625 C11.83891676 29.96065743 21.92592955 46.45874846 36 62 C37.05380859 63.16402344 37.05380859 63.16402344 38.12890625 64.3515625 C54.31028355 81.30991617 76.76513556 91.72105157 99 98 C97.67130534 100.9437945 96.22362468 103.02849031 93.94825745 105.31243896 C93.32192917 105.94585205 92.69560089 106.57926514 92.05029297 107.23187256 C91.36410889 107.91557922 90.6779248 108.59928589 89.97094727 109.30371094 C89.24705307 110.03271606 88.52315887 110.76172119 87.77732849 111.51281738 C85.37885195 113.92520925 82.97299991 116.33008249 80.56640625 118.734375 C78.89145749 120.41321198 77.21673234 122.09227207 75.54222107 123.77154541 C72.02577746 127.29545715 68.50547494 130.81545986 64.98266602 134.33300781 C60.48890439 138.82099951 56.00655351 143.3201941 51.52732944 147.82268906 C48.06740417 151.2974221 44.60049519 154.76512234 41.13160515 158.23090363 C39.47761804 159.88540125 37.82596749 161.54223839 36.17679024 163.20153046 C19.54939829 179.91828657 19.54939829 179.91828657 10 186 C9.1036232 186.57119568 8.2072464 187.14239136 7.28370667 187.730896 C-7.76753915 196.98322123 -26.13377786 197.96839532 -43.1875 195 C-55.93210206 191.81012299 -66.94825032 185.50759318 -76 176 C-76.71671875 175.2678125 -77.4334375 174.535625 -78.171875 173.78125 C-91.11560189 159.96163182 -96.17609717 143.83112009 -96.1875 125.1875 C-96.19974609 124.14529297 -96.21199219 123.10308594 -96.22460938 122.02929688 C-96.2429404 112.29552213 -94.72676375 104.57492013 -90.25 95.9375 C-89.92773438 95.28201172 -89.60546875 94.62652344 -89.2734375 93.95117188 C-84.89764208 85.32678439 -78.8067905 78.5121217 -71.97509766 71.74804688 C-71.19393585 70.96659302 -70.41277405 70.18513916 -69.60794067 69.38000488 C-67.04803106 66.82147853 -64.48113065 64.2700921 -61.9140625 61.71875 C-60.12858095 59.93700214 -58.34354308 58.15480956 -56.55892944 56.37219238 C-52.35540073 52.17549614 -48.14744605 47.98327299 -43.93727815 43.79324007 C-39.14001696 39.01841936 -34.3485085 34.23784324 -29.55744863 29.45680141 C-19.71130425 19.63150003 -9.85804223 9.81336281 0 0 Z " fill="#FEFEFE" transform="translate(660,241)"/>
<path d="M0 0 C0.68420594 7.61749277 -0.32339384 14.41515046 -2.25 21.75 C-2.45455811 22.54124268 -2.65911621 23.33248535 -2.86987305 24.14770508 C-5.08690633 32.1700966 -8.45966529 38.6534421 -13.5625 45.25 C-14.32691406 46.24515625 -15.09132812 47.2403125 -15.87890625 48.265625 C-16.57886719 49.16796875 -17.27882812 50.0703125 -18 51 C-19.00281888 52.33121451 -20.00407745 53.6636183 -21 55 C-20.36384766 55.65742188 -20.36384766 55.65742188 -19.71484375 56.328125 C-6.92605919 70.15687666 -6.92605919 70.15687666 -7.0390625 77.55859375 C-10.52830895 86.42354916 -20.99132827 92.61138156 -29 97 C-30.28197266 97.76183594 -30.28197266 97.76183594 -31.58984375 98.5390625 C-42.42802377 104.10587519 -57.87578833 104.07099959 -69.4375 100.5 C-74.45223252 98.25145864 -78.06951737 94.62076101 -81 90 C-81 89.34 -81 88.68 -81 88 C-84.78371407 90.08544241 -88.24307651 92.12074168 -89.90625 96.25 C-90.44038244 99.16992398 -90.75544056 102.04083083 -91 105 C-92.29866365 120.32725117 -95.2192303 133.59316063 -105 146 C-105.78375 147.010625 -106.5675 148.02125 -107.375 149.0625 C-110.27032461 151.19952531 -112.2335272 151.73575363 -115.8359375 151.47265625 C-124.47927768 149.5848509 -130.82623297 142.9159897 -137 137 C-141.06652629 138.7568107 -143.33202078 141.36290539 -146.21875 144.63671875 C-148 146 -148 146 -150.09375 145.83203125 C-154.90074322 143.73389691 -157.0813855 138.41113034 -158.984375 133.8046875 C-166.18271448 113.92619617 -167.19107563 90.36620724 -158.42578125 70.79296875 C-155.74954811 65.55048465 -152.52238343 60.87035679 -148.8125 56.3125 C-146.86897495 54.02505144 -146.86897495 54.02505144 -145.6875 51.0625 C-143.49010124 47.07462817 -140.81963114 44.46830969 -137 42 C-135.1128125 41.505 -135.1128125 41.505 -133.1875 41 C-131.6096875 40.505 -131.6096875 40.505 -130 40 C-128.64626192 37.45560098 -128.64626192 37.45560098 -128 34 C-123.41273109 17.04100586 -111.04291496 5.53075838 -96.3125 -3.25 C-65.83274593 -20.63660828 -30.23460036 -13.92519308 0 0 Z " fill="#FE2C24" transform="translate(164,14)"/>
<path d="M0 0 C3.19420247 2.32305634 5.81133583 4.83216807 8.375 7.8125 C19.34488096 20.5403747 32.80813265 29.75856825 46.75 38.9375 C48.08171187 39.81851103 49.41325313 40.69977999 50.74462891 41.58129883 C53.9366395 43.69272129 57.13278822 45.79777527 60.33044434 47.90063477 C62.6116178 49.40273671 64.88747561 50.91283375 67.1640625 52.421875 C71.07596254 55.00267885 75.0200565 57.52552261 79 60 C79.6074707 60.38124023 80.21494141 60.76248047 80.84082031 61.15527344 C90.53264234 67.16226371 100.66218392 71.48895883 111.30859375 75.55102539 C116.84407446 77.66996767 121.9580824 79.87472626 127 83 C127.38103984 87.47340768 127.38103984 87.47340768 125.7421875 89.73828125 C103.84271332 108.20164546 77.15077981 115.11342191 49 113 C38.20569849 111.69118852 27.92103554 108.39931485 18 104 C17.01902344 103.57074219 16.03804688 103.14148438 15.02734375 102.69921875 C6.68558711 98.79760662 -0.77391207 93.67611344 -8 88 C-8 87.67 -8 87.34 -8 87 C-0.74 87 6.52 87 14 87 C21.64662499 64.06012502 9.30812894 30.80269452 2.64916992 9.11791992 C1.72136748 6.09096008 0.86098211 3.04655206 0 0 Z " fill="#03AB47" transform="translate(317,330)"/>
<path d="M0 0 C9.9 0 19.8 0 30 0 C30.01417969 2.38476562 30.02835937 4.76953125 30.04296875 7.2265625 C30.0736307 9.55010889 30.11270821 11.87337302 30.15258789 14.19677734 C30.17570671 15.80474786 30.19014924 17.41286848 30.19555664 19.02099609 C30.20489196 21.34046299 30.24597459 23.65758914 30.29296875 25.9765625 C30.2890361 26.68930328 30.28510345 27.40204407 30.28105164 28.13638306 C30.44545825 33.82988411 32.03614317 36.18937211 36 40 C37.89081101 41.12863153 37.89081101 41.12863153 39.85546875 41.50390625 C40.55567139 41.68429443 41.25587402 41.86468262 41.97729492 42.05053711 C42.7066626 42.21948486 43.43603027 42.38843262 44.1875 42.5625 C52.85276561 44.8507223 61.74654072 47.41418516 68 54.25390625 C69.96217068 57.68004022 69.87490865 61.22602963 69 65 C66.65883925 67.67561229 64.40318275 68.31555996 61 69 C59.10768291 69.08938615 57.21254208 69.1251031 55.31811523 69.12597656 C54.16893112 69.12998474 53.01974701 69.13399292 51.83573914 69.13812256 C49.96605217 69.13936127 49.96605217 69.13936127 48.05859375 69.140625 C45.37855715 69.15529004 42.69856633 69.17131109 40.01855469 69.18945312 C39.32172168 69.19388805 38.62488867 69.19832298 37.90693951 69.2028923 C13.66003071 69.36320402 -9.94460113 70.05791784 -33.859375 74.46582031 C-41.34590403 75.73918206 -48.91293023 76.19049357 -56.5 76.25 C-57.18835938 76.270625 -57.87671875 76.29125 -58.5859375 76.3125 C-61.49485017 76.33513745 -63.5092877 76.32552202 -65.97265625 74.69140625 C-67 73 -67 73 -66.9375 69.6875 C-65.00085261 62.07002028 -60.45275449 57.99809699 -54 54 C-44.35259617 49.1975354 -34.13697213 46.89374971 -23.69165039 44.59594727 C-10.8126244 42.39396844 -10.8126244 42.39396844 -1 35 C0.23145673 29.0220208 0.17011136 23.20414033 0.0625 17.125 C0.06557677 15.46613323 0.07269647 13.80726872 0.08398438 12.1484375 C0.11032884 8.09544212 0.05319817 4.05582814 0 0 Z " fill="#FEBA05" transform="translate(211,422)"/>
<path d="M0 0 C2.68776484 1.10352549 5.37521702 2.2078022 8.0625 3.3125 C8.81466797 3.62123047 9.56683594 3.92996094 10.34179688 4.24804688 C13.81975529 5.67837609 17.2922426 7.11775677 20.74609375 8.60546875 C23.48316347 9.77849863 26.22960659 10.9086329 29 12 C28.98316162 12.60473145 28.96632324 13.20946289 28.94897461 13.83251953 C28.86269951 18.55099947 28.91909272 23.24016348 29.24609375 27.94921875 C29.30466553 28.82151123 29.3632373 29.69380371 29.42358398 30.5925293 C30.13369412 33.55838954 31.2824603 34.88016945 33.5 36.9375 C36.00226723 38.11123278 36.00226723 38.11123278 39 39 C40.35550739 39.47667316 41.70957221 39.95745999 43.0625 40.44140625 C45.28378176 41.22720443 47.50613602 42.00203844 49.7421875 42.74487305 C63.1267678 47.25353561 63.1267678 47.25353561 66 53 C66.13415472 55.6723621 66.04318541 58.32250488 66 61 C60.95421697 64.01477288 57.12806612 64.44122161 51.4296875 64.44140625 C50.1903672 64.45999443 50.1903672 64.45999443 48.92601013 64.47895813 C47.15823839 64.50476238 45.39036981 64.52452381 43.62246704 64.53875732 C38.98859454 64.57880167 34.35577969 64.6714478 29.72265625 64.76171875 C28.34157936 64.7874295 28.34157936 64.7874295 26.93260193 64.81365967 C10.15544625 65.15029563 -6.7006405 65.74392621 -23 70 C-24.56046669 70.30235644 -26.12297622 70.59439167 -27.6875 70.875 C-31.0034545 71.51289506 -34.23783875 72.32727477 -37.48828125 73.234375 C-56.4628827 78.52578343 -56.4628827 78.52578343 -62 77 C-64.5508824 74.4491176 -64.86534032 72.67329839 -65.5625 69.1875 C-64.20592205 61.50022497 -57.70329745 56.41987511 -51.76953125 51.8828125 C-41.839505 45.13207533 -30.60870045 41.25100532 -19.125 38.0625 C-7.17796837 35.20832467 -7.17796837 35.20832467 3 29 C4.17800527 21.73308439 2.22309618 14.38562817 0.65625 7.3203125 C0 4 0 4 0 0 Z " fill="#FDBA05" transform="translate(123,400)"/>
<path d="M0 0 C39.93 0 79.86 0 121 0 C121 39.93 121 79.86 121 121 C120.67 121 120.34 121 120 121 C119.82984375 119.87464844 119.6596875 118.74929687 119.484375 117.58984375 C115.08872263 89.33871649 105.33285116 64.47351288 86 43 C85.25492188 42.17242187 84.50984375 41.34484375 83.7421875 40.4921875 C61.90413265 17.50096804 31.16420116 4.35954509 0 1 C0 0.67 0 0.34 0 0 Z " fill="#FDFEFE" transform="translate(879,0)"/>
<path d="M0 0 C6.77832165 4.86741183 11.55321762 10.31625081 16.125 17.25 C16.51880859 17.83974609 16.91261719 18.42949219 17.31835938 19.03710938 C19.65676698 22.71527248 21.33289968 25.78197422 21.25 30.1875 C15.83119305 37.93022619 7.45363833 43.73904823 -0.75 48.1875 C-1.60335937 48.69410156 -2.45671875 49.20070312 -3.3359375 49.72265625 C-14.17168989 55.29577245 -29.62593745 55.25845353 -41.1875 51.6875 C-47.71185609 48.70284272 -52.0179232 43.66877992 -54.6875 37.0625 C-57.10584991 28.31109627 -56.93937545 18.70383899 -53.078125 10.4375 C-47.65894842 1.25677733 -40.62149641 -3.4895025 -30.484375 -6.26953125 C-19.21750412 -8.5068099 -9.61088529 -6.06575332 0 0 Z " fill="#F8CFB0" transform="translate(135.75,62.8125)"/>
<path d="M0 0 C19.00745772 3.66491101 34.00172336 10.92732887 45.234375 27.24609375 C45.81703125 28.15488281 46.3996875 29.06367187 47 30 C48.0828125 31.2375 48.0828125 31.2375 49.1875 32.5 C51.28790155 35.39710559 51.52419749 37.50116946 52 41 C51.27111572 41.42708252 50.54223145 41.85416504 49.79125977 42.29418945 C32.35725261 52.49205452 32.35725261 52.49205452 15.1875 63.125 C14.53273682 63.53661377 13.87797363 63.94822754 13.20336914 64.37231445 C4.96516096 69.71316365 -1.16469373 76.40237185 -3.53125 86.19921875 C-3.86078263 88.27646338 -3.86078263 88.27646338 -4 91 C-13.0675111 83.19186544 -16.31638792 69.93602009 -17.20410156 58.33203125 C-18.145724 35.6381393 -14.47229255 17.89584563 0 0 Z " fill="#FED41E" transform="translate(17,68)"/>
<path d="M0 0 C2 1.0625 2 1.0625 3 3 C2.50138477 9.39602988 0.49621243 15.32961647 -1.375 21.4375 C-3.81484629 29.59828013 -5.96025565 37.62940554 -7.32348633 46.03686523 C-7.74317447 48.57961584 -8.22789578 51.07523051 -8.76293945 53.59960938 C-10.74905169 63.03841239 -11.50057546 72.07045542 -11.44604492 81.70898438 C-11.43750147 83.99960529 -11.4665077 86.28774545 -11.49804688 88.578125 C-11.53913978 97.71848394 -10.43859643 105.77229271 -7.89624023 114.55908203 C-6.74400919 118.98282062 -6.16315887 123.46548879 -7 128 C-9 130 -9 130 -11.625 130.0625 C-20.1304692 127.38485229 -25.64166404 119.41468801 -30 112 C-40.07161683 91.52275865 -41.32109716 62.92646925 -36 41 C-34.625 37.4375 -34.625 37.4375 -33 34 C-32.41502018 32.41727424 -31.83183512 30.8338845 -31.25 29.25 C-26.83797233 18.32733973 -19.1527363 6.98222774 -8.890625 0.7109375 C-5.84360317 -0.43484344 -3.20877981 -0.29170726 0 0 Z " fill="#A7E1EF" transform="translate(707,143)"/>
<path d="M0 0 C3.19109521 1.61159175 4.36869124 4.85531419 5.90771484 7.93188477 C6.25842041 8.61234863 6.60912598 9.2928125 6.97045898 9.99389648 C15.00672093 25.89266335 17.18560011 45.52549417 11.94116211 62.72607422 C6.90423306 77.30946711 0.01704712 83.88410452 -13.78759766 90.76782227 C-22.52626403 94.93188477 -22.52626403 94.93188477 -26.15478516 94.93188477 C-25.39433101 88.91162276 -24.06873494 83.13404368 -22.61572266 77.24829102 C-20.5064569 68.54363457 -19.96281999 60.24996595 -19.96728516 51.30688477 C-19.96591553 50.14640625 -19.9645459 48.98592773 -19.96313477 47.7902832 C-20.00276033 40.82596831 -20.32497566 34.26434649 -21.81494141 27.44750977 C-22.39295388 23.16888872 -21.94395747 20.00562731 -19.3605957 16.49072266 C-18.21264526 15.33431274 -18.21264526 15.33431274 -17.04150391 14.15454102 C-16.20554687 13.31213867 -15.36958984 12.46973633 -14.50830078 11.60180664 C-13.62851562 10.74135742 -12.74873047 9.8809082 -11.84228516 8.99438477 C-10.97410156 8.10686523 -10.10591797 7.2193457 -9.21142578 6.30493164 C-8.37160156 5.47155273 -7.53177734 4.63817383 -6.66650391 3.77954102 C-5.89781982 3.01649658 -5.12913574 2.25345215 -4.3371582 1.46728516 C-2.15478516 -0.06811523 -2.15478516 -0.06811523 0 0 Z " fill="#30798A" transform="translate(862.15478515625,239.068115234375)"/>
<path d="M0 0 C-0.17528243 9.11468636 -4.93220388 16.92251911 -10.9375 23.625 C-29.23462712 40.29209352 -51.01827449 44.85777333 -75 44 C-87.60052428 42.97588331 -99.98051771 37.92740302 -108.87890625 28.69140625 C-110.91458299 25.62015877 -110.87503883 22.62387387 -111 19 C-106.10934231 15.73956154 -100.72242083 16.55878531 -95 17 C-91.87633545 17.72160605 -88.97740777 18.82177447 -86 20 C-69.55554206 26.41593965 -49.85586421 23.97503844 -33.8125 17.6875 C-24.52491052 13.58537987 -16.685243 8.16656386 -8.859375 1.7578125 C-5.59529667 -0.24879303 -3.76144673 -0.36724184 0 0 Z " fill="#A7E1EE" transform="translate(702,428)"/>
<path d="M0 0 C1.794375 0.61875 1.794375 0.61875 3.625 1.25 C5.12482693 1.66598909 6.62484425 2.08129202 8.125 2.49609375 C14.11469673 4.28698572 19.63129329 6.84580342 25.25 9.5625 C26.23484375 10.02333984 27.2196875 10.48417969 28.234375 10.95898438 C34.22419597 13.83010523 39.49580626 17.02328465 44.625 21.25 C41.04439498 22.44353501 38.33263409 22.20440739 34.5625 22.0625 C24.28063875 21.92438913 17.14582452 24.74971337 9.66796875 31.84375 C1.72388604 41.20045163 -0.45107439 52.38485003 -1.375 64.25 C-6.64121606 63.65421223 -11.31908019 62.43691204 -16.3125 60.6875 C-17.33827148 60.33655273 -17.33827148 60.33655273 -18.38476562 59.97851562 C-20.05008501 59.40788171 -21.71282493 58.82972902 -23.375 58.25 C-24.16796703 36.94358585 -20.83963791 20.78052153 -7.3125 3.8125 C-3.94927161 0.29253864 -3.94927161 0.29253864 0 0 Z " fill="#30798A" transform="translate(743.375,160.75)"/>
<path d="M0 0 C2.625 2.0625 2.625 2.0625 5 5 C5.86625 5.99 6.7325 6.98 7.625 8 C12.95208353 15.86459019 13.25757667 25.54809155 13.3125 34.75 C13.31805908 35.52956055 13.32361816 36.30912109 13.3293457 37.11230469 C13.18320687 48.92831664 9.69147346 59.82184242 1.51953125 68.59375 C-3.00901306 72.78469075 -7.65143034 73.68083273 -13.65234375 73.47265625 C-16.2463942 72.95039318 -17.31042747 72.39728809 -19.125 70.5 C-21.28847583 66.46151179 -21.57113343 63.44955066 -21 59 C-20.29082857 56.7216759 -19.41875642 54.55817622 -18.51098633 52.35180664 C-13.82282548 40.86632203 -13.42724863 30.3136417 -13.99609375 18.13037109 C-14.41137671 7.72234197 -14.41137671 7.72234197 -12.19921875 4.24609375 C-8.19530078 0.15683473 -5.66832605 -0.68410832 0 0 Z " fill="#A7E1EF" transform="translate(807,262)"/>
<path d="M0 0 C17.28895568 0.89425633 32.20370997 9.71383081 44 22 C53.28922017 33.13076733 59.42608818 45.52001129 61 60 C43.6747683 59.62484735 28.80156445 50.23428848 17 38 C7.61143771 27.14872691 1.30885524 14.34398499 0 0 Z " fill="#FCFDFD" transform="translate(720,220)"/>
<path d="M0 0 C0.33 0.66 0.66 1.32 1 2 C2.03125 2.144375 3.0625 2.28875 4.125 2.4375 C14.19139987 3.89875159 24.07601059 10.66293167 31 18 C32.4375 20.875 32.4375 20.875 33 23 C33.66 23 34.32 23 35 23 C36.69140625 25.30078125 36.69140625 25.30078125 38.5625 28.3125 C39.49255859 29.79169922 39.49255859 29.79169922 40.44140625 31.30078125 C43.55852878 36.69910624 43.63807754 41.90097312 43 48 C41.93947219 50.9639205 40.63867529 53.28594404 39 56 C37.68 56 36.36 56 35 56 C34.443125 54.80375 33.88625 53.6075 33.3125 52.375 C31.34474999 48.45326046 28.93566417 45.24468145 26 42 C25.46246094 41.37222656 24.92492188 40.74445313 24.37109375 40.09765625 C23.1910546 38.72226386 21.99655022 37.3591711 20.7890625 36.0078125 C19.67323941 34.75555689 18.58005339 33.48228804 17.5234375 32.1796875 C9.59997187 23.11849347 -3.55975077 19.23692024 -15 17 C-15.65234375 15.21875 -15.65234375 15.21875 -16 13 C-13.07637355 7.42186753 -7.77719685 4.09488444 -2 2 C-1.34 2 -0.68 2 0 2 C0 1.34 0 0.68 0 0 Z " fill="#EB80AB" transform="translate(34,52)"/>
<path d="M0 0 C4.49818542 4.27327615 7.12002985 8.35608495 7.703125 14.5234375 C7.81009161 19.60435162 7.49023433 23.07653814 4.5 27.375 C-0.64251629 32.65108814 -4.8553161 36.0165065 -12.3125 36.75 C-16.98307322 36.59990596 -20.78379969 35.21776964 -24.5 32.375 C-26.25449489 30.10477462 -27.27929435 28.01172419 -28.5 25.375 C-28.83 24.715 -29.16 24.055 -29.5 23.375 C-30.27246787 16.56208665 -29.6201717 10.96837262 -25.5 5.375 C-18.55131729 -1.87373946 -9.49040662 -4.40626022 0 0 Z " fill="#35322C" transform="translate(128.5,68.625)"/>
<path d="M0 0 C0.91962432 13.56445879 -4.95209634 27.46178307 -12.7265625 38.4375 C-15.70123573 41.80607973 -17.38112466 42.88021768 -21.875 43.75 C-32.2300145 42.69458506 -40.04619583 33.95380417 -47 27 C-35.31273544 19.09698389 -23.03442829 12.31346349 -10.69189453 5.49755859 C-8.38414641 4.21370888 -6.09306721 2.90664191 -3.80859375 1.58203125 C-1 0 -1 0 0 0 Z " fill="#FCD21E" transform="translate(72,122)"/>
<path d="M0 0 C1.98 0.33 3.96 0.66 6 1 C6.61591881 22.60278191 2.86958512 40.50329811 -11.7421875 57.12109375 C-14.12617509 59.10500038 -15.00928412 59.70761482 -18.0625 59.5625 C-20.26953125 58.99609375 -20.26953125 58.99609375 -23 58 C-23.6192334 57.79004395 -24.2384668 57.58008789 -24.87646484 57.36376953 C-31.52401147 55.10720541 -38.07218713 52.83699515 -44 49 C-40.96435153 46.97623435 -38.30239189 45.9653872 -34.875 44.75 C-21.08424155 39.50951179 -10.71015377 30.24563976 -4 17 C-2.13979913 11.4598632 -1.03415306 5.74227096 0 0 Z " fill="#327A8B" transform="translate(775,280)"/>
<path d="M0 0 C-0.46999973 3.75010307 -1.05295461 7.37246051 -1.97265625 11.0390625 C-6.7864621 30.82672862 -6.53149297 51.9776961 -3 72 C-11.6675146 67.37939293 -17.71678903 59.269485 -20.5625 50 C-21.07277988 48.00771108 -21.55651929 46.00821452 -22 44 C-22.18433594 43.33226562 -22.36867188 42.66453125 -22.55859375 41.9765625 C-25.43586319 29.09250644 -20.47863563 16.5798959 -13.98046875 5.58203125 C-10.46203111 0.99487686 -5.67182118 -0.51562011 0 0 Z " fill="#31798A" transform="translate(664,167)"/>
<path d="M0 0 C0.05429959 1.74965358 0.09292823 3.49979787 0.125 5.25 C0.14820313 6.22453125 0.17140625 7.1990625 0.1953125 8.203125 C-0.01460448 11.20913613 -0.36010683 12.50114375 -2 15 C-4.45166016 16.67236328 -4.45166016 16.67236328 -7.5390625 18.3203125 C-8.67021484 18.93374512 -9.80136719 19.54717773 -10.96679688 20.17919922 C-11.56484131 20.49725525 -12.16288574 20.81531128 -12.77905273 21.14300537 C-15.86770404 22.78608535 -18.93750249 24.46358932 -22.0078125 26.140625 C-22.61341003 26.47049408 -23.21900757 26.80036316 -23.84295654 27.14022827 C-29.51311235 30.24526768 -34.99415677 33.60178445 -40.41650391 37.11767578 C-42.94643625 38.75293657 -45.12431025 40.04143675 -48 41 C-48.70019759 42.31603403 -49.36257594 43.65244192 -50 45 C-51.62109375 46.921875 -51.62109375 46.921875 -53.4375 48.75 C-54.03433594 49.36359375 -54.63117187 49.9771875 -55.24609375 50.609375 C-57 52 -57 52 -60 52 C-60.85950851 44.40767482 -58.38286653 39.16689048 -54 33 C-49.61199476 27.96207862 -44.87828727 24.33616715 -39.125 21 C-37.55197207 20.06659373 -35.97906266 19.13298771 -34.40625 18.19921875 C-33.55289063 17.69696777 -32.69953125 17.1947168 -31.8203125 16.67724609 C-28.66367843 14.79998882 -25.53457434 12.88107715 -22.40625 10.95703125 C-20.14593734 9.57535067 -17.88552142 8.193839 -15.625 6.8125 C-14.53719238 6.14025391 -13.44938477 5.46800781 -12.32861328 4.77539062 C-11.30493652 4.15470703 -10.28125977 3.53402344 -9.2265625 2.89453125 C-7.85878662 2.05692261 -7.85878662 2.05692261 -6.46337891 1.20239258 C-4 0 -4 0 0 0 Z " fill="#FE630E" transform="translate(73,108)"/>
<path d="M0 0 C8.87366013 1.28811195 17.05995167 4.92624599 25 9 C25 9.66 25 10.32 25 11 C26.0209375 11.2784375 26.0209375 11.2784375 27.0625 11.5625 C31.139717 13.55773385 34.20011875 16.43240937 37 20 C37.703125 22.2265625 37.703125 22.2265625 38 24 C38.66 24 39.32 24 40 24 C44.24527277 28.90442787 44.49703362 32.61566938 44.1875 38.9375 C44.13447619 40.4881231 44.08623212 42.03891764 44.04296875 43.58984375 C44.00623047 44.70552734 44.00623047 44.70552734 43.96875 45.84375 C43.94561541 48.30186433 43.94561541 48.30186433 44.69921875 51.87109375 C45 55 45 55 43.6015625 56.8203125 C42.94929688 57.25085938 42.29703125 57.68140625 41.625 58.125 C38.53396312 60.35334009 38.53396312 60.35334009 37.0625 63.875 C37.041875 64.57625 37.02125 65.2775 37 66 C36.67 66 36.34 66 36 66 C35.73060549 62.31827508 35.90943361 60.19245358 37.5 56.8125 C39.72570899 52.04312359 39.57789456 47.1541947 39 42 C37.66532315 38.46310635 35.92268324 35.88512939 33.8125 32.75 C32 30 32 30 32 28 C31.34 28 30.68 28 30 28 C29.7525 27.21625 29.505 26.4325 29.25 25.625 C27.76365716 22.50368004 26.99536651 22.45164236 24 21 C22.69856254 19.91054926 21.42861646 18.7827013 20.1875 17.625 C13.3054464 11.5272981 6.93929914 9.13379292 -2 7 C-2.125 4.625 -2.125 4.625 -2 2 C-1.34 1.34 -0.68 0.68 0 0 Z " fill="#A22B1D" transform="translate(37,47)"/>
<path d="M0 0 C0.33 0 0.66 0 1 0 C3.99491394 14.40981451 3.99491394 14.40981451 1.609375 18.22265625 C-0.3125 19.6875 -0.3125 19.6875 -2.3046875 20.89453125 C-4.31759927 21.9545926 -4.31759927 21.9545926 -4.9375 24.875 C-4.958125 25.57625 -4.97875 26.2775 -5 27 C-5.33 27 -5.66 27 -6 27 C-6.31991162 22.62787454 -5.60537613 19.88147526 -3.734375 15.9453125 C-2.40684152 12.42876105 -2.24502443 8.72606111 -2 5 C-1.67 5 -1.34 5 -1 5 C-0.67 3.35 -0.34 1.7 0 0 Z " fill="#A63A2A" transform="translate(79,86)"/>
<path d="M0 0 C3.63 0.33 7.26 0.66 11 1 C11 1.33 11 1.66 11 2 C7.7 2.33 4.4 2.66 1 3 C0.67 2.01 0.34 1.02 0 0 Z " fill="#84D87D" transform="translate(295,415)"/>
<path d="M0 0 C-4.95 -0.33 -9.9 -0.66 -15 -1 C-15 -1.33 -15 -1.66 -15 -2 C-13.06494977 -2.24900646 -11.12674066 -2.47356242 -9.1875 -2.6875 C-7.56908203 -2.87892578 -7.56908203 -2.87892578 -5.91796875 -3.07421875 C-3 -3 -3 -3 0 0 Z " fill="#498999" transform="translate(788,183)"/>
</svg>
