<?xml version="1.0" encoding="UTF-8"?>
<svg version="1.1" xmlns="http://www.w3.org/2000/svg" width="960" height="504">
<path d="M0 0 C316.8 0 633.6 0 960 0 C960 166.32 960 332.64 960 504 C643.2 504 326.4 504 0 504 C0 337.68 0 171.36 0 0 Z " fill="#000000" transform="translate(0,0)"/>
<path d="M0 0 C5.58137584 1.08146926 10.03010692 4.5048021 13.5234375 8.9296875 C14.8033845 10.92330192 15.94458744 12.87798677 17 15 C17.495 15.96164063 17.99 16.92328125 18.5 17.9140625 C20.83737105 23.4779977 21.37147251 29.50304329 22.1875 35.4375 C22.45336914 37.19223633 22.45336914 37.19223633 22.72460938 38.98242188 C24.00643893 48.04431346 24.19459161 56.87506984 24 66 C25.21993652 65.98952637 26.43987305 65.97905273 27.69677734 65.96826172 C32.26282772 65.93180884 36.82886546 65.90900824 41.39501953 65.89013672 C43.3637916 65.8801364 45.33254905 65.86653177 47.30126953 65.84912109 C50.14619581 65.8246083 52.99092415 65.81345694 55.8359375 65.8046875 C56.70302338 65.79436493 57.57010925 65.78404236 58.46347046 65.77340698 C66.87448895 65.77189459 74.67356156 67.43377268 82.6875 69.9375 C83.72261719 70.25589844 84.75773437 70.57429688 85.82421875 70.90234375 C89 72 89 72 92.23828125 73.63671875 C97.63030982 76.00415048 103.52156754 75.05614936 109.26171875 74.70703125 C114.84706634 74.52165896 118.33117189 74.97948489 122.68603516 78.63623047 C126.83221889 82.93957167 127.19061524 89.02535961 127.4375 94.75 C127.3304206 98.39069949 127.07077465 99.87361669 125.25 103.125 C122.98596416 105.01169653 121.8001391 105.42350077 119 106 C119.14046255 108.95867918 119.28712224 111.91682264 119.4375 114.875 C119.47681641 115.71675781 119.51613281 116.55851562 119.55664062 117.42578125 C119.61948242 118.63427734 119.61948242 118.63427734 119.68359375 119.8671875 C119.72025146 120.61081543 119.75690918 121.35444336 119.79467773 122.12060547 C119.89955865 124.08864312 119.89955865 124.08864312 121 126 C121.20794697 128.81594854 121.37426834 131.61785111 121.5 134.4375 C121.70132605 140.30264963 121.70132605 140.30264963 123 146 C123.09467365 148.18584749 123.12988914 150.37460867 123.125 152.5625 C123.12757813 153.71878906 123.13015625 154.87507812 123.1328125 156.06640625 C123 159 123 159 122 161 C121.86155725 162.33857726 121.77496573 163.68280098 121.71875 165.02734375 C121.68136719 165.81947266 121.64398438 166.61160156 121.60546875 167.42773438 C121.57066406 168.25595703 121.53585937 169.08417969 121.5 169.9375 C121.43099971 171.57178464 121.35823442 173.20591575 121.28125 174.83984375 C121.25095703 175.56550537 121.22066406 176.29116699 121.18945312 177.03881836 C121 179 121 179 120 182 C117.36 182 114.72 182 112 182 C112.33 181.01 112.66 180.02 113 179 C113.14715199 177.37432921 113.24721867 175.74413143 113.31640625 174.11328125 C113.37924805 172.7065918 113.37924805 172.7065918 113.44335938 171.27148438 C113.48267578 170.29501953 113.52199219 169.31855469 113.5625 168.3125 C113.62727539 166.83040039 113.62727539 166.83040039 113.69335938 165.31835938 C113.79941654 162.87904454 113.90147714 160.43962887 114 158 C113.37512695 157.70109863 112.75025391 157.40219727 112.10644531 157.09423828 C108.75504012 155.35327884 106.59952443 152.71768463 104 150 C103.78085937 150.83402344 103.56171875 151.66804687 103.3359375 152.52734375 C101.75489722 158.13810866 100.29655487 163.02343881 96.8125 167.75 C93.56659197 172.15691291 93.17220578 175.57551798 93 181 C89.7 181 86.4 181 83 181 C83.33 179.35 83.66 177.7 84 176 C84.99 175.67 85.98 175.34 87 175 C87.73519522 173.02416285 88.39072482 171.01822402 89 169 C89.53625 168.113125 90.0725 167.22625 90.625 166.3125 C92.64333052 161.4501583 93.00910961 157.17869445 92 152 C90.46571294 149.14318946 88.75133988 146.72029487 86.7265625 144.19140625 C83.18864165 139.70096825 82.77930369 136.73810396 83 131 C82.20335937 131.20496094 81.40671875 131.40992188 80.5859375 131.62109375 C79.52632813 131.89050781 78.46671875 132.15992188 77.375 132.4375 C76.33085937 132.70433594 75.28671875 132.97117187 74.2109375 133.24609375 C68.20583888 134.65605 62.58026174 135.18213514 56.4375 135.1875 C55.69564453 135.19974609 54.95378906 135.21199219 54.18945312 135.22460938 C49.99778665 135.23580706 46.83021523 134.91889991 43 133 C43.04125 134.216875 43.0825 135.43375 43.125 136.6875 C43.135276 143.14082602 42.91929127 151.16141745 40 157 C39.84777027 158.66565749 39.75082785 160.33656496 39.68359375 162.0078125 C39.64169922 162.99394531 39.59980469 163.98007812 39.55664062 164.99609375 C39.51732422 166.02863281 39.47800781 167.06117188 39.4375 168.125 C39.39431641 169.16527344 39.35113281 170.20554687 39.30664062 171.27734375 C39.2003712 173.85142528 39.09833417 176.42560508 39 179 C38.34 179 37.68 179 37 179 C36.67 180.32 36.34 181.64 36 183 C32.37 183 28.74 183 25 183 C25.75 180.125 25.75 180.125 27 177 C28.98 176.01 28.98 176.01 31 175 C30.67 168.73 30.34 162.46 30 156 C29.34 156 28.68 156 28 156 C27.89042969 156.556875 27.78085938 157.11375 27.66796875 157.6875 C26.01860144 165.62591829 23.86715099 175.02390987 18 181 C14.1875 181.5 14.1875 181.5 11 181 C11.44795992 176.07244093 12.52097896 174.37359616 16 171 C18.13648257 166.05471516 18.27457498 161.65449337 18.1875 156.375 C18.18685547 155.62476563 18.18621094 154.87453125 18.18554688 154.1015625 C18.17336721 150.02405975 18.17336721 150.02405975 17.48510742 146.02294922 C16.95583046 143.81580836 16.96606948 141.99750598 17.0703125 139.734375 C17.54468627 130.35830823 17.54468627 130.35830823 13.69921875 122.25390625 C10.84032451 120.27513778 10.84032451 120.27513778 7.80078125 118.62109375 C1.94740336 115.23315536 -1.39531117 109.08994008 -4 103 C-4.40625 99.44921875 -4.40625 99.44921875 -4.5 95.6875 C-4.66707811 91.46826835 -4.87185387 87.63262332 -6.5 83.6875 C-9.22605073 76.57317249 -8.80859078 68.52876265 -9 61 C-9.02723145 60.16952148 -9.05446289 59.33904297 -9.08251953 58.48339844 C-9.63833963 40.42448879 -9.63833963 40.42448879 -6 32 C-7.794375 31.6596875 -7.794375 31.6596875 -9.625 31.3125 C-14.26828728 30.12276091 -16.79620712 28.60426699 -20 25 C-20.5 21.3125 -20.5 21.3125 -20 18 C-17.69989124 15.69989124 -16.62478923 15.54115246 -13.5 14.9375 C-10.14540186 14.28047869 -10.14540186 14.28047869 -7 13 C-6.53101037 10.1840151 -6.53101037 10.1840151 -6.375 6.9375 C-6.30023438 5.83277344 -6.22546875 4.72804687 -6.1484375 3.58984375 C-6.09945312 2.73519531 -6.05046875 1.88054687 -6 1 C-3.525 1.99 -3.525 1.99 -1 3 C-0.67 2.01 -0.34 1.02 0 0 Z " fill="#00DCF7" transform="translate(172,150)"/>
<path d="M0 0 C5.58137584 1.08146926 10.03010692 4.5048021 13.5234375 8.9296875 C14.8033845 10.92330192 15.94458744 12.87798677 17 15 C17.495 15.96164063 17.99 16.92328125 18.5 17.9140625 C20.83737105 23.4779977 21.37147251 29.50304329 22.1875 35.4375 C22.45336914 37.19223633 22.45336914 37.19223633 22.72460938 38.98242188 C24.03290059 48.2313841 24 56.45520122 24 66 C37.86 66 51.72 66 66 66 C66 66.33 66 66.66 66 67 C64.02 67 62.04 67 60 67 C59.979375 68.2375 59.95875 69.475 59.9375 70.75 C59.33503071 76.37600002 56.73231817 80.3929232 53.7734375 85.12109375 C52.25629323 87.5839469 51.00496842 89.9967996 49.8125 92.625 C47.89191145 96.20126833 47.41685783 96.4282454 44 98 C42.85790183 99.78228936 42.85790183 99.78228936 42 102 C39.23076923 107.88461538 39.23076923 107.88461538 37 109 C36.30959426 110.65697379 35.6469365 112.3255761 35 114 C34.04060332 115.69036558 33.03357147 117.35394174 32 119 C31.62746094 119.63292969 31.25492188 120.26585937 30.87109375 120.91796875 C27.14738927 127.13970696 22.7508922 131.56359745 17 136 C17.05542969 135.29875 17.11085937 134.5975 17.16796875 133.875 C17.19001673 130.6295378 16.9790949 128.10595232 16 125 C13.45487172 122.53683348 10.78845783 120.79725147 7.80078125 118.90234375 C2.10420108 115.03311845 -1.32444297 109.25563476 -4 103 C-4.40625 99.44921875 -4.40625 99.44921875 -4.5 95.6875 C-4.66707811 91.46826835 -4.87185387 87.63262332 -6.5 83.6875 C-9.22605073 76.57317249 -8.80859078 68.52876265 -9 61 C-9.02723145 60.16952148 -9.05446289 59.33904297 -9.08251953 58.48339844 C-9.63833963 40.42448879 -9.63833963 40.42448879 -6 32 C-7.794375 31.6596875 -7.794375 31.6596875 -9.625 31.3125 C-14.26828728 30.12276091 -16.79620712 28.60426699 -20 25 C-20.5 21.3125 -20.5 21.3125 -20 18 C-17.69989124 15.69989124 -16.62478923 15.54115246 -13.5 14.9375 C-10.14540186 14.28047869 -10.14540186 14.28047869 -7 13 C-6.53101037 10.1840151 -6.53101037 10.1840151 -6.375 6.9375 C-6.30023438 5.83277344 -6.22546875 4.72804687 -6.1484375 3.58984375 C-6.09945312 2.73519531 -6.05046875 1.88054687 -6 1 C-3.525 1.99 -3.525 1.99 -1 3 C-0.67 2.01 -0.34 1.02 0 0 Z " fill="#F9B0E1" transform="translate(172,150)"/>
<path d="M0 0 C11.99577283 -0.83175621 21.51969529 1.18424409 32.28515625 6.67578125 C37.94609844 8.69371963 43.33156791 8.0677052 49.26171875 7.70703125 C54.84706634 7.52165896 58.33117189 7.97948489 62.68603516 11.63623047 C66.83221889 15.93957167 67.19061524 22.02535961 67.4375 27.75 C67.3304206 31.39069949 67.07077465 32.87361669 65.25 36.125 C62.98596416 38.01169653 61.8001391 38.42350077 59 39 C59.14046255 41.95867918 59.28712224 44.91682264 59.4375 47.875 C59.47681641 48.71675781 59.51613281 49.55851562 59.55664062 50.42578125 C59.59853516 51.23144531 59.64042969 52.03710938 59.68359375 52.8671875 C59.72025146 53.61081543 59.75690918 54.35444336 59.79467773 55.12060547 C59.89955865 57.08864312 59.89955865 57.08864312 61 59 C61.20794697 61.81594854 61.37426834 64.61785111 61.5 67.4375 C61.70132605 73.30264963 61.70132605 73.30264963 63 79 C63.09467365 81.18584749 63.12988914 83.37460867 63.125 85.5625 C63.12886719 87.29693359 63.12886719 87.29693359 63.1328125 89.06640625 C63 92 63 92 62 94 C61.86155725 95.33857726 61.77496573 96.68280098 61.71875 98.02734375 C61.68136719 98.81947266 61.64398438 99.61160156 61.60546875 100.42773438 C61.57066406 101.25595703 61.53585937 102.08417969 61.5 102.9375 C61.43099971 104.57178464 61.35823442 106.20591575 61.28125 107.83984375 C61.25095703 108.56550537 61.22066406 109.29116699 61.18945312 110.03881836 C61 112 61 112 60 115 C57.36 115 54.72 115 52 115 C52.495 113.515 52.495 113.515 53 112 C53.14715199 110.37432921 53.24721867 108.74413143 53.31640625 107.11328125 C53.35830078 106.17548828 53.40019531 105.23769531 53.44335938 104.27148438 C53.48267578 103.29501953 53.52199219 102.31855469 53.5625 101.3125 C53.62727539 99.83040039 53.62727539 99.83040039 53.69335938 98.31835938 C53.79941654 95.87904454 53.90147714 93.43962887 54 91 C53.06269043 90.55164795 53.06269043 90.55164795 52.10644531 90.09423828 C48.75504012 88.35327884 46.59952443 85.71768463 44 83 C43.78085937 83.83402344 43.56171875 84.66804688 43.3359375 85.52734375 C41.75489722 91.13810866 40.29655487 96.02343881 36.8125 100.75 C33.56659197 105.15691291 33.17220578 108.57551798 33 114 C29.7 114 26.4 114 23 114 C23.33 112.35 23.66 110.7 24 109 C24.99 108.67 25.98 108.34 27 108 C27.73519522 106.02416285 28.39072482 104.01822402 29 102 C29.53625 101.113125 30.0725 100.22625 30.625 99.3125 C32.90101299 93.82937781 32.9926087 87.76485259 30.98046875 82.16015625 C30.65691406 81.44730469 30.33335937 80.73445313 30 80 C30.76054687 79.60425781 31.52109375 79.20851563 32.3046875 78.80078125 C35.25995536 76.82631968 36.39869404 75.2580606 38.125 72.1875 C38.62644531 71.300625 39.12789063 70.41375 39.64453125 69.5 C40.09183594 68.675 40.53914063 67.85 41 67 C41.598125 65.906875 42.19625 64.81375 42.8125 63.6875 C45.119791 58.46573617 45.18253936 53.32774892 45.1875 47.6875 C45.19974609 46.96626953 45.21199219 46.24503906 45.22460938 45.50195312 C45.24256625 38.82798029 44.09978774 32.97816207 41 27 C41 26.01 41 25.02 41 24 C40.34 24 39.68 24 39 24 C37 18.25 37 18.25 37 16 C35.35 15.67 33.7 15.34 32 15 C32.33 14.34 32.66 13.68 33 13 C34.32 13 35.64 13 37 13 C35.694761 10.38952199 34.64173426 10.31933577 31.9375 9.375 C31.20402344 9.11460937 30.47054687 8.85421875 29.71484375 8.5859375 C29.14894531 8.39257812 28.58304687 8.19921875 28 8 C28 7.34 28 6.68 28 6 C24.37114676 5.84850702 24.37114676 5.84850702 21 7 C19.32345271 6.72057545 17.65391846 6.39171753 16 6 C15.6596875 7.36125 15.6596875 7.36125 15.3125 8.75 C13.80442186 12.48428873 12.17422166 13.63968133 9 16 C8.505 17.485 8.505 17.485 8 19 C7.34 19 6.68 19 6 19 C6 19.99 6 20.98 6 22 C5.34 22 4.68 22 4 22 C3.9071875 22.8353125 3.9071875 22.8353125 3.8125 23.6875 C2.66851791 26.94344904 0.45123064 28.607132 -2 31 C-3.01656081 32.65661761 -4.02065076 34.32111559 -5 36 C-5.99 36.495 -5.99 36.495 -7 37 C-7.144375 37.61875 -7.28875 38.2375 -7.4375 38.875 C-8.11800697 41.44580412 -9.11232702 42.16141545 -11 44 C-14.33377868 48.14985992 -17.28047076 52.42624628 -20 57 C-23.6 61.8 -23.6 61.8 -26 63 C-26.4125 63.78375 -26.825 64.5675 -27.25 65.375 C-29.93457349 69.40186023 -33.53075788 70.51025263 -38 72 C-38 73.98 -38 75.96 -38 78 C-38.99 77.67 -39.98 77.34 -41 77 C-41.33 78.32 -41.66 79.64 -42 81 C-43.30860086 77.07419742 -44.00594947 73.03796617 -43 69 C-40.25928068 65.0610127 -36.91774343 61.76806589 -33.3984375 58.5234375 C-31.6787007 56.64998121 -30.61923842 54.68613705 -29.4375 52.4375 C-28.08322518 49.86817488 -27.0643321 48.0643321 -25 46 C-24.67 45.154375 -24.34 44.30875 -24 43.4375 C-23 41 -23 41 -21 40 C-20.608125 39.154375 -20.21625 38.30875 -19.8125 37.4375 C-18.23972182 34.45464482 -17.02213761 32.86363309 -14.75 30.5 C-10.52335598 25.87851026 -8.13236887 20.68750847 -5.48046875 15.07421875 C-4 12 -4 12 -2 9 C-1.33386665 6.72461677 -1.33386665 6.72461677 -0.875 4.3125 C-0.70742187 3.50425781 -0.53984375 2.69601563 -0.3671875 1.86328125 C-0.18542969 0.94095703 -0.18542969 0.94095703 0 0 Z " fill="#55D1F6" transform="translate(232,217)"/>
<path d="M0 0 C2.58603823 1.40342872 3.97272955 2.80835627 6 5 C6.7425 4.175 7.485 3.35 8.25 2.5 C12.21133199 -0.81054173 16.16066358 -0.64465398 21.1484375 -0.421875 C25.00695755 0.14897454 27.20888879 1.28233908 30 4 C32.14297234 8.13077028 32.23325844 11.65909905 32.1953125 16.26953125 C32.1924826 16.95053391 32.18965271 17.63153656 32.18673706 18.33317566 C32.17560525 20.49313455 32.15051457 22.65266794 32.125 24.8125 C32.11496111 26.28319711 32.10583685 27.75390076 32.09765625 29.22460938 C32.0773963 32.81669925 32.03823667 36.40787732 32 40 C26.39 40 20.78 40 15 40 C14.67 31.09 14.34 22.18 14 13 C12.35 13 10.7 13 9 13 C7.22509454 14.77490546 7.76500027 17.37784902 7.68359375 19.78515625 C7.62075195 21.53989258 7.62075195 21.53989258 7.55664062 23.33007812 C7.51732422 24.56177734 7.47800781 25.79347656 7.4375 27.0625 C7.37272461 28.91584961 7.37272461 28.91584961 7.30664062 30.80664062 C7.20015889 33.87094841 7.09953935 36.93545885 7 40 C1.39 40 -4.22 40 -10 40 C-10.33 31.09 -10.66 22.18 -11 13 C-12.65 13 -14.3 13 -16 13 C-17.77490546 14.77490546 -17.23499973 17.37784902 -17.31640625 19.78515625 C-17.35830078 20.95498047 -17.40019531 22.12480469 -17.44335938 23.33007812 C-17.48267578 24.56177734 -17.52199219 25.79347656 -17.5625 27.0625 C-17.60568359 28.29806641 -17.64886719 29.53363281 -17.69335938 30.80664062 C-17.79984111 33.87094841 -17.90046065 36.93545885 -18 40 C-23.61 40 -29.22 40 -35 40 C-35 27.13 -35 14.26 -35 1 C-29.39 1 -23.78 1 -18 1 C-17.67 2.32 -17.34 3.64 -17 5 C-16.38125 4.360625 -15.7625 3.72125 -15.125 3.0625 C-10.82287497 -1.11309194 -5.72681517 -0.75713168 0 0 Z " fill="#DDDFE0" transform="translate(520,241)"/>
<path d="M0 0 C5.28 0 10.56 0 16 0 C16 19.14 16 38.28 16 58 C10.72 58 5.44 58 0 58 C0 56.68 0 55.36 0 54 C-0.66 54 -1.32 54 -2 54 C-2 54.66 -2 55.32 -2 56 C-6.79139275 58.87483565 -10.53680462 59.79762653 -16 59 C-20.68788787 57.28711789 -23.25914806 55.16203443 -26 51 C-28.24124572 43.7077836 -28.7638253 33.19985764 -25.80078125 26.14453125 C-24.31387431 24.14825568 -22.91423173 22.58494875 -21 21 C-20.09314453 20.17435547 -20.09314453 20.17435547 -19.16796875 19.33203125 C-16.33746522 17.59292908 -14.36592536 17.60000561 -11.0625 17.625 C-10.04285156 17.61726563 -9.02320313 17.60953125 -7.97265625 17.6015625 C-5 18 -5 18 0 21 C0 14.07 0 7.14 0 0 Z " fill="#E2E4E5" transform="translate(703,223)"/>
<path d="M0 0 C4.76631672 3.94797 5.78686374 8.97700665 6.4375 14.9140625 C6.63053494 19.39006006 6.59160567 22.2292756 4.375 26.1875 C2.11096416 28.07419653 0.9251391 28.48600077 -1.875 29.0625 C-1.73453745 32.02117918 -1.58787776 34.97932264 -1.4375 37.9375 C-1.39818359 38.77925781 -1.35886719 39.62101562 -1.31835938 40.48828125 C-1.27646484 41.29394531 -1.23457031 42.09960938 -1.19140625 42.9296875 C-1.13641968 44.04512939 -1.13641968 44.04512939 -1.08032227 45.18310547 C-0.97544135 47.15114312 -0.97544135 47.15114312 0.125 49.0625 C0.33294697 51.87844854 0.49926834 54.68035111 0.625 57.5 C0.82632605 63.36514963 0.82632605 63.36514963 2.125 69.0625 C2.21967365 71.24834749 2.25488914 73.43710867 2.25 75.625 C2.25386719 77.35943359 2.25386719 77.35943359 2.2578125 79.12890625 C2.125 82.0625 2.125 82.0625 1.125 84.0625 C0.98655725 85.40107726 0.89996573 86.74530098 0.84375 88.08984375 C0.80636719 88.88197266 0.76898438 89.67410156 0.73046875 90.49023438 C0.69566406 91.31845703 0.66085937 92.14667969 0.625 93 C0.55599971 94.63428464 0.48323442 96.26841575 0.40625 97.90234375 C0.37595703 98.62800537 0.34566406 99.35366699 0.31445312 100.10131836 C0.125 102.0625 0.125 102.0625 -0.875 105.0625 C-3.515 105.0625 -6.155 105.0625 -8.875 105.0625 C-8.38 103.5775 -8.38 103.5775 -7.875 102.0625 C-7.72784801 100.43682921 -7.62778133 98.80663143 -7.55859375 97.17578125 C-7.51669922 96.23798828 -7.47480469 95.30019531 -7.43164062 94.33398438 C-7.39232422 93.35751953 -7.35300781 92.38105469 -7.3125 91.375 C-7.26931641 90.38693359 -7.22613281 89.39886719 -7.18164062 88.38085938 C-7.07558346 85.94154454 -6.97352286 83.50212887 -6.875 81.0625 C-7.81230957 80.61414795 -7.81230957 80.61414795 -8.76855469 80.15673828 C-12.11995988 78.41577884 -14.27547557 75.78018463 -16.875 73.0625 C-17.09414063 73.89652344 -17.31328125 74.73054688 -17.5390625 75.58984375 C-19.12010278 81.20060866 -20.57844513 86.08593881 -24.0625 90.8125 C-27.30840803 95.21941291 -27.70279422 98.63801798 -27.875 104.0625 C-31.175 104.0625 -34.475 104.0625 -37.875 104.0625 C-37.545 102.4125 -37.215 100.7625 -36.875 99.0625 C-35.39 98.5675 -35.39 98.5675 -33.875 98.0625 C-33.13980478 96.08666285 -32.48427518 94.08072402 -31.875 92.0625 C-31.359375 91.134375 -30.84375 90.20625 -30.3125 89.25 C-28.48807161 85.20452835 -28.15797254 81.45345325 -27.875 77.0625 C-26.555 77.0625 -25.235 77.0625 -23.875 77.0625 C-23.771875 76.485 -23.66875 75.9075 -23.5625 75.3125 C-22.76603535 72.70588842 -21.68434723 71.0889689 -19.875 69.0625 C-19.215 69.0625 -18.555 69.0625 -17.875 69.0625 C-17.648125 68.340625 -17.42125 67.61875 -17.1875 66.875 C-15.62290257 63.52229122 -13.50963827 61.63127231 -10.875 59.0625 C-9.81138779 57.17513989 -9.81138779 57.17513989 -8.875 55.0625 C-8.34519531 53.94681641 -8.34519531 53.94681641 -7.8046875 52.80859375 C-7.45664062 52.04675781 -7.10859375 51.28492188 -6.75 50.5 C-6.39679688 49.73558594 -6.04359375 48.97117187 -5.6796875 48.18359375 C-4.69764693 45.97311162 -4.69764693 45.97311162 -4.875 43.0625 C-5.535 43.0625 -6.195 43.0625 -6.875 43.0625 C-6.875 40.7525 -6.875 38.4425 -6.875 36.0625 C-7.143125 37.031875 -7.41125 38.00125 -7.6875 39 C-8.079375 40.010625 -8.47125 41.02125 -8.875 42.0625 C-10.36 42.5575 -10.36 42.5575 -11.875 43.0625 C-11.79121094 42.23105469 -11.70742188 41.39960938 -11.62109375 40.54296875 C-11.51925781 39.45628906 -11.41742188 38.36960937 -11.3125 37.25 C-11.20808594 36.17105469 -11.10367187 35.09210938 -10.99609375 33.98046875 C-10.69922391 30.99767546 -10.69922391 30.99767546 -11.875 28.0625 C-11.94132067 25.77443673 -11.87351034 23.50663763 -11.8125 21.21875 C-11.77657821 18.87675123 -11.77657821 18.87675123 -12.875 16.0625 C-12.59730092 13.7218935 -12.26960023 11.38625692 -11.875 9.0625 C-12.844375 8.794375 -13.81375 8.52625 -14.8125 8.25 C-16.3284375 7.6621875 -16.3284375 7.6621875 -17.875 7.0625 C-18.205 6.0725 -18.535 5.0825 -18.875 4.0625 C-17.885 4.0625 -16.895 4.0625 -15.875 4.0625 C-15.545 3.4025 -15.215 2.7425 -14.875 2.0625 C-17.515 1.7325 -20.155 1.4025 -22.875 1.0625 C-22.875 0.7325 -22.875 0.4025 -22.875 0.0625 C-6.27966877 -3.81782797 -6.27966877 -3.81782797 0 0 Z " fill="#6CB6F4" transform="translate(292.875,226.9375)"/>
<path d="M0 0 C3.88374008 1.94187004 4.70102206 3.13061231 6.10498047 7.21313477 C6.99509394 10.97924224 7.22962411 14.16728787 7.1953125 18.02734375 C7.18886719 19.31318359 7.18242188 20.59902344 7.17578125 21.92382812 C7.15907601 23.26172154 7.14214619 24.59961217 7.125 25.9375 C7.11495322 27.30272783 7.10583036 28.6679628 7.09765625 30.03320312 C7.0741768 33.35554526 7.03830857 36.67779577 7 40 C1.72 40 -3.56 40 -9 40 C-9.06058594 38.13472656 -9.12117187 36.26945312 -9.18359375 34.34765625 C-9.2679781 31.9192621 -9.35262714 29.49087713 -9.4375 27.0625 C-9.47681641 25.83080078 -9.51613281 24.59910156 -9.55664062 23.33007812 C-9.59853516 22.16025391 -9.64042969 20.99042969 -9.68359375 19.78515625 C-9.72025146 18.70113525 -9.75690918 17.61711426 -9.79467773 16.50024414 C-9.72364265 14.060737 -9.72364265 14.060737 -11 13 C-12.66617115 12.95936168 -14.33388095 12.957279 -16 13 C-17.31361698 15.62723396 -17.21253909 17.72610561 -17.31640625 20.6640625 C-17.35830078 21.78554688 -17.40019531 22.90703125 -17.44335938 24.0625 C-17.48267578 25.238125 -17.52199219 26.41375 -17.5625 27.625 C-17.60568359 28.80835938 -17.64886719 29.99171875 -17.69335938 31.2109375 C-17.79967338 34.14047907 -17.90036217 37.07022377 -18 40 C-23.28 40 -28.56 40 -34 40 C-34 27.13 -34 14.26 -34 1 C-28.72 1 -23.44 1 -18 1 C-18 2.32 -18 3.64 -18 5 C-17.34 5 -16.68 5 -16 5 C-16 4.34 -16 3.68 -16 3 C-11.48774646 -1.42568752 -5.91262973 -0.71178032 0 0 Z " fill="#E3E4E5" transform="translate(663,241)"/>
<path d="M0 0 C1.10601562 -0.01160156 1.10601562 -0.01160156 2.234375 -0.0234375 C7.15457886 -0.00580236 11.21221288 0.24013722 14.921875 3.6875 C18.74810601 8.65663118 19.49897725 10.74341418 19.47265625 17.0078125 C19.4712413 17.67086395 19.46982635 18.33391541 19.46836853 19.01705933 C19.46276754 21.13641863 19.450215 23.25567259 19.4375 25.375 C19.43248512 26.81119639 19.42792219 28.24739444 19.42382812 29.68359375 C19.41364833 33.20580248 19.39407338 36.72778321 19.375 40.25 C14.425 40.25 9.475 40.25 4.375 40.25 C4.045 38.93 3.715 37.61 3.375 36.25 C2.776875 36.889375 2.17875 37.52875 1.5625 38.1875 C-2.10398033 41.64446717 -5.67349388 41.52334534 -10.4609375 41.4765625 C-13.2744888 41.18200298 -14.75406651 40.3649683 -16.625 38.25 C-16.625 37.59 -16.625 36.93 -16.625 36.25 C-17.285 36.25 -17.945 36.25 -18.625 36.25 C-19.9892294 32.1573118 -20.23889549 28.52534357 -19.625 24.25 C-17.06049486 19.63389075 -14.84495211 18.04713342 -9.875 16.375 C-5.02381715 15.12942602 -0.61263635 15.00866276 4.375 15.25 C4.045 14.26 3.715 13.27 3.375 12.25 C-1.45795499 9.83352251 -8.27967221 10.88516535 -13.3125 12.25 C-14.4571875 12.745 -14.4571875 12.745 -15.625 13.25 C-15.625 9.62 -15.625 5.99 -15.625 2.25 C-10.27731365 0.47214121 -5.61807159 -0.05955553 0 0 Z " fill="#DEE0E1" transform="translate(459.625,240.75)"/>
<path d="M0 0 C0.69931641 -0.02449219 1.39863281 -0.04898438 2.11914062 -0.07421875 C8.04211797 -0.10746278 11.53477959 1.79789157 15.83203125 5.97265625 C21.39703866 12.95218059 20.1875 15.01914536 20.1875 25.375 C12.2675 25.375 4.3475 25.375 -3.8125 25.375 C-1.35846136 29.61714607 -1.35846136 29.61714607 1.9296875 29.80078125 C3.48042969 29.74470703 3.48042969 29.74470703 5.0625 29.6875 C6.09117187 29.66300781 7.11984375 29.63851563 8.1796875 29.61328125 C11.54157507 29.40650701 11.54157507 29.40650701 16.1875 28.375 C16.1875 32.005 16.1875 35.635 16.1875 39.375 C8.21729346 41.95573007 -1.40532543 43.28527189 -9.48828125 40.4296875 C-13.71956469 37.89569855 -17.81139339 34.42566948 -19.390625 29.61328125 C-20.77421019 22.27259314 -20.90834675 14.50076136 -17.0234375 7.95703125 C-12.42752902 1.9526992 -7.27941177 0.0131993 0 0 Z " fill="#DDDFE0" transform="translate(744.8125,240.625)"/>
<path d="M0 0 C1.16499023 -0.03673828 1.16499023 -0.03673828 2.35351562 -0.07421875 C8.63240694 -0.10611828 11.91093304 1.87025493 16.75 5.875 C19.54524722 9.40583859 19.05404571 13.80257876 19.03515625 18.109375 C19.03193359 19.40488281 19.02871094 20.70039063 19.02539062 22.03515625 C19.01703598 23.39843817 19.00857104 24.76171942 19 26.125 C18.99498168 27.50390465 18.99041935 28.88281104 18.98632812 30.26171875 C18.97454102 33.63283118 18.95660561 37.0039211 18.9375 40.375 C13.9875 40.375 9.0375 40.375 3.9375 40.375 C3.6075 39.055 3.2775 37.735 2.9375 36.375 C2.339375 37.2 1.74125 38.025 1.125 38.875 C-1.55998753 41.56768091 -3.81651918 41.84834086 -7.5625 42 C-11.66770386 41.82295617 -12.80720773 41.56902212 -16.1875 39 C-19.75354098 34.00754262 -19.85604089 29.40939886 -19.0625 23.375 C-16.2440907 19.642512 -13.07139108 16.8533074 -8.4375 15.75 C-4.29429086 15.28964343 -0.22580983 15.2917338 3.9375 15.375 C3.6075 14.385 3.2775 13.395 2.9375 12.375 C-1.89545499 9.95852251 -8.71717221 11.01016535 -13.75 12.375 C-14.8946875 12.87 -14.8946875 12.87 -16.0625 13.375 C-16.0625 9.745 -16.0625 6.115 -16.0625 2.375 C-10.60294413 0.55757128 -5.73936048 0.00957358 0 0 Z " fill="#E0E2E3" transform="translate(576.0625,240.625)"/>
<path d="M0 0 C6.27 0 12.54 0 19 0 C23 8 23 8 23 10 C23.66 10 24.32 10 25 10 C25.20496094 9.36191406 25.40992188 8.72382813 25.62109375 8.06640625 C25.89050781 7.24011719 26.15992188 6.41382813 26.4375 5.5625 C26.70433594 4.73878906 26.97117187 3.91507813 27.24609375 3.06640625 C28 1 28 1 29 0 C31.86267567 -0.07325168 34.700719 -0.09238205 37.5625 -0.0625 C38.36880859 -0.05798828 39.17511719 -0.05347656 40.00585938 -0.04882812 C42.00393756 -0.03700518 44.00197783 -0.01906914 46 0 C44.12659577 5.3823201 40.88761847 9.5693845 37.58203125 14.16015625 C35.76980732 16.74771859 35.76980732 16.74771859 36.25830078 18.9387207 C37.0466155 21.12955057 38.0171711 22.86907225 39.28515625 24.8203125 C39.73310547 25.52027344 40.18105469 26.22023438 40.64257812 26.94140625 C41.11115234 27.66199219 41.57972656 28.38257813 42.0625 29.125 C42.99495076 30.56247524 43.92354035 32.00246487 44.84765625 33.4453125 C45.26023682 34.07969238 45.67281738 34.71407227 46.09790039 35.36767578 C47 37 47 37 47 39 C40.73 39 34.46 39 28 39 C24 30.375 24 30.375 24 27 C23.34 27 22.68 27 22 27 C21.71125 28.051875 21.4225 29.10375 21.125 30.1875 C20 34 20 34 18 39 C11.73 39 5.46 39 -1 39 C1.24019459 33.39951353 1.24019459 33.39951353 3.19921875 30.58984375 C3.60333984 29.99236328 4.00746094 29.39488281 4.42382812 28.77929688 C5.27185965 27.5432942 6.12612743 26.31154897 6.98632812 25.08398438 C9.35699004 21.84260751 9.35699004 21.84260751 9.74169922 18.02246094 C8.98391248 15.95613265 8.09061538 14.23382045 6.93359375 12.36328125 C6.53076172 11.70392578 6.12792969 11.04457031 5.71289062 10.36523438 C5.08157227 9.34913086 5.08157227 9.34913086 4.4375 8.3125 C0 1.11418816 0 1.11418816 0 0 Z " fill="#DEE0E1" transform="translate(767,242)"/>
<path d="M0 0 C5.61 0 11.22 0 17 0 C17 13.86 17 27.72 17 42 C23.27 42 29.54 42 36 42 C36 46.29 36 50.58 36 55 C24.12 55 12.24 55 0 55 C0 36.85 0 18.7 0 0 Z " fill="#DDDFE0" transform="translate(378,226)"/>
<path d="M0 0 C5.61 0 11.22 0 17 0 C17 18.15 17 36.3 17 55 C11.39 55 5.78 55 0 55 C0 36.85 0 18.7 0 0 Z " fill="#DCDEDF" transform="translate(603,226)"/>
<path d="M0 0 C5.28 0 10.56 0 16 0 C16 19.14 16 38.28 16 58 C10.72 58 5.44 58 0 58 C0 38.86 0 19.72 0 0 Z " fill="#E3E5E6" transform="translate(419,223)"/>
<path d="M0 0 C7.7582457 1.14332042 15.60722517 3.26536716 22.6875 6.6875 C27.07905581 8.42755042 31.31404772 8.72657421 36 9 C35.01 9.66 34.02 10.32 33 11 C33.99 11.33 34.98 11.66 36 12 C35.67 12.99 35.34 13.98 35 15 C34.01 14.67 33.02 14.34 32 14 C34.21934164 17.32901247 35.34683329 17.75023244 39 19 C38.98839844 19.59167969 38.97679687 20.18335938 38.96484375 20.79296875 C38.91634488 25.04008423 39.10003136 28.83764503 40 33 C40 35 40 37 40 39 C40.33 39.99 40.66 40.98 41 42 C40.9140625 44.19140625 40.9140625 44.19140625 40.625 46.5625 C40.53476562 47.34753906 40.44453125 48.13257813 40.3515625 48.94140625 C40 51 40 51 39 53 C42.12455058 51.35820641 42.12455058 51.35820641 42.73046875 48.8359375 C42.88128906 48.02382813 43.03210938 47.21171875 43.1875 46.375 C43.34605469 45.55773437 43.50460937 44.74046875 43.66796875 43.8984375 C43.77753906 43.27195312 43.88710938 42.64546875 44 42 C44.33 42 44.66 42 45 42 C45.0270043 43.45823212 45.04639787 44.91660675 45.0625 46.375 C45.07410156 47.18710937 45.08570313 47.99921875 45.09765625 48.8359375 C45 51 45 51 44 53 C44.66 53 45.32 53 46 53 C46.93576707 55.52200638 47.15731302 56.62051684 46.109375 59.1484375 C45.66078125 59.88320313 45.2121875 60.61796875 44.75 61.375 C43.1481023 64.05365538 41.7336798 66.58590444 40.4375 69.4375 C38.8145971 72.33050082 37.86907218 72.61173927 35 74 C34.32558869 75.6635479 33.6599679 77.33066942 33 79 C31.35353315 80.68662458 29.68816933 82.35511706 28 84 C27.505 85.485 27.505 85.485 27 87 C26.01 87.33 25.02 87.66 24 88 C20 82.25 20 82.25 20 80 C20.76054687 79.56300781 21.52109375 79.12601562 22.3046875 78.67578125 C25.33452018 76.79201572 26.39310477 75.26800218 28.125 72.1875 C28.62644531 71.300625 29.12789063 70.41375 29.64453125 69.5 C30.09183594 68.675 30.53914063 67.85 31 67 C31.598125 65.906875 32.19625 64.81375 32.8125 63.6875 C35.119791 58.46573617 35.18253936 53.32774892 35.1875 47.6875 C35.20586914 46.6056543 35.20586914 46.6056543 35.22460938 45.50195312 C35.24256625 38.82798029 34.09978774 32.97816207 31 27 C31 26.01 31 25.02 31 24 C30.34 24 29.68 24 29 24 C27 18.25 27 18.25 27 16 C24.525 15.505 24.525 15.505 22 15 C22.33 14.34 22.66 13.68 23 13 C24.32 13 25.64 13 27 13 C25.694761 10.38952199 24.64173426 10.31933577 21.9375 9.375 C21.20402344 9.11460937 20.47054687 8.85421875 19.71484375 8.5859375 C19.14894531 8.39257812 18.58304687 8.19921875 18 8 C18 7.34 18 6.68 18 6 C14.37114676 5.84850702 14.37114676 5.84850702 11 7 C9.32345271 6.72057545 7.65391846 6.39171753 6 6 C5.6596875 7.36125 5.6596875 7.36125 5.3125 8.75 C3.80442186 12.48428873 2.17422166 13.63968133 -1 16 C-1.33 16.99 -1.66 17.98 -2 19 C-2.66 19 -3.32 19 -4 19 C-4 19.99 -4 20.98 -4 22 C-4.66 22 -5.32 22 -6 22 C-6.061875 22.5775 -6.12375 23.155 -6.1875 23.75 C-7.32027301 26.88690987 -9.34197595 28.09167504 -12 30 C-11.8125 26.75 -11.8125 26.75 -11 23 C-9.37373596 21.61767557 -7.7074998 20.28062485 -6 19 C-5.27802838 16.39388923 -5.27802838 16.39388923 -5 14 C-4.34 13.67 -3.68 13.34 -3 13 C-2.34786708 10.97536745 -2.34786708 10.97536745 -2 9 C-1.34 9 -0.68 9 0 9 C1.15184579 4.39770812 1.15184579 4.39770812 0 0 Z " fill="#38CDF8" transform="translate(242,217)"/>
<path d="M0 0 C13.86 0 27.72 0 42 0 C42 0.33 42 0.66 42 1 C40.02 1 38.04 1 36 1 C35.979375 2.2375 35.95875 3.475 35.9375 4.75 C35.33503071 10.37600002 32.73231817 14.3929232 29.7734375 19.12109375 C28.25629323 21.5839469 27.00496842 23.9967996 25.8125 26.625 C23.89191145 30.20126833 23.41685783 30.4282454 20 32 C18.85790183 33.78228936 18.85790183 33.78228936 18 36 C15.23076923 41.88461538 15.23076923 41.88461538 13 43 C12.30959426 44.65697379 11.6469365 46.3255761 11 48 C10.04060332 49.69036558 9.03357147 51.35394174 8 53 C7.62746094 53.63292969 7.25492188 54.26585937 6.87109375 54.91796875 C3.14738927 61.13970696 -1.2491078 65.56359745 -7 70 C-7.03738281 69.24074219 -7.07476562 68.48148437 -7.11328125 67.69921875 C-7.17902344 66.70535156 -7.24476563 65.71148437 -7.3125 64.6875 C-7.37050781 63.70136719 -7.42851562 62.71523438 -7.48828125 61.69921875 C-8.04622813 58.75615543 -8.68540132 57.81817001 -11 56 C-9.906875 55.46375 -8.81375 54.9275 -7.6875 54.375 C-3.88760115 52.21994714 -2.79381257 49.99530981 -1 46 C0.66666667 44.33333333 2.33333333 42.66666667 4 41 C4.165 40.319375 4.33 39.63875 4.5 38.9375 C5 37 5 37 7.3125 35.1875 C10.53397752 32.56536714 12.12169932 29.61269929 14 26 C14.68194135 24.78852087 15.36936498 23.58010976 16.0625 22.375 C17.21908615 20.36030154 18.36780935 18.34100825 19.5 16.3125 C21.08983757 13.86150041 22.86674259 11.98613621 25 10 C24.01 9.67 23.02 9.34 22 9 C21.34 8.34 20.68 7.68 20 7 C20.33 5.35 20.66 3.7 21 2 C14.07 1.67 7.14 1.34 0 1 C0 0.67 0 0.34 0 0 Z " fill="#CFB1EF" transform="translate(196,216)"/>
<path d="M0 0 C0 2.64 0 5.28 0 8 C0.66 8 1.32 8 2 8 C3.12589491 11.37768474 3.13294275 14.00812072 3.125 17.5625 C3.12886719 19.29693359 3.12886719 19.29693359 3.1328125 21.06640625 C3 24 3 24 2 26 C1.86155725 27.33857726 1.77496573 28.68280098 1.71875 30.02734375 C1.68136719 30.81947266 1.64398438 31.61160156 1.60546875 32.42773438 C1.57066406 33.25595703 1.53585937 34.08417969 1.5 34.9375 C1.43099971 36.57178464 1.35823442 38.20591575 1.28125 39.83984375 C1.23581055 40.92833618 1.23581055 40.92833618 1.18945312 42.03881836 C1 44 1 44 0 47 C-2.64 47 -5.28 47 -8 47 C-7.67 46.01 -7.34 45.02 -7 44 C-6.85284801 42.37432921 -6.75278133 40.74413143 -6.68359375 39.11328125 C-6.64169922 38.17548828 -6.59980469 37.23769531 -6.55664062 36.27148438 C-6.51732422 35.29501953 -6.47800781 34.31855469 -6.4375 33.3125 C-6.39431641 32.32443359 -6.35113281 31.33636719 -6.30664062 30.31835938 C-6.20058346 27.87904454 -6.09852286 25.43962887 -6 23 C-6.62487305 22.69892334 -7.24974609 22.39784668 -7.89355469 22.08764648 C-10.06859827 20.96457982 -11.51860806 19.78077534 -13.25 18.0625 C-13.77078125 17.55847656 -14.2915625 17.05445313 -14.828125 16.53515625 C-16 15 -16 15 -16 12 C-14.35 12 -12.7 12 -11 12 C-10.89171875 11.14148438 -10.89171875 11.14148438 -10.78125 10.265625 C-9.71622061 7.17703977 -7.96750165 5.85830837 -5.5 3.75 C-4.6853125 3.04359375 -3.870625 2.3371875 -3.03125 1.609375 C-1 0 -1 0 0 0 Z " fill="#989FEF" transform="translate(292,285)"/>
<path d="M0 0 C1.32 0.33 2.64 0.66 4 1 C4.30747168 6.22701855 3.70657608 8.62783864 1 13 C0.17066097 15.9705416 -0.43859627 18.96841984 -1 22 C-1.66 22 -2.32 22 -3 22 C-3.24878906 22.54914063 -3.49757812 23.09828125 -3.75390625 23.6640625 C-5.77075977 27.44487255 -8.45335356 30.7324879 -11.02734375 34.1484375 C-13.08146317 36.97348152 -13.08146317 36.97348152 -14.59765625 40.203125 C-16 43 -16 43 -18.5 45.375 C-20.88764337 47.88202554 -21.47975303 48.92639994 -22.5 52.0625 C-23.8046159 56.02082324 -25.60284871 57.53706532 -29 60 C-30.02304948 61.65261839 -31.02616054 63.31791365 -32 65 C-33.485 65.99 -33.485 65.99 -35 67 C-35.433125 67.99 -35.433125 67.99 -35.875 69 C-37.40228376 71.71517114 -39.14013334 71.9733812 -42 73 C-42.495 73.99 -42.495 73.99 -43 75 C-43.31373562 71.43575768 -43.38248212 69.56963489 -41.35546875 66.55078125 C-40.64003906 65.81214844 -39.92460937 65.07351563 -39.1875 64.3125 C-38.12595703 63.19294922 -38.12595703 63.19294922 -37.04296875 62.05078125 C-35.84850138 60.85174613 -34.63974255 59.66610285 -33.3984375 58.515625 C-31.67432103 56.6470295 -30.61889666 54.68548676 -29.4375 52.4375 C-28.08322518 49.86817488 -27.0643321 48.0643321 -25 46 C-24.67 45.154375 -24.34 44.30875 -24 43.4375 C-23 41 -23 41 -21 40 C-20.608125 39.154375 -20.21625 38.30875 -19.8125 37.4375 C-18.23972182 34.45464482 -17.02213761 32.86363309 -14.75 30.5 C-10.52335598 25.87851026 -8.13236887 20.68750847 -5.48046875 15.07421875 C-4 12 -4 12 -2 9 C-1.33386665 6.72461677 -1.33386665 6.72461677 -0.875 4.3125 C-0.70742187 3.50425781 -0.53984375 2.69601563 -0.3671875 1.86328125 C-0.18542969 0.94095703 -0.18542969 0.94095703 0 0 Z " fill="#7EC8F4" transform="translate(232,217)"/>
<path d="M0 0 C13.86 0 27.72 0 42 0 C42 0.33 42 0.66 42 1 C40.02 1 38.04 1 36 1 C35.979375 2.2375 35.95875 3.475 35.9375 4.75 C35.33503071 10.37600002 32.73231817 14.3929232 29.7734375 19.12109375 C28.25629323 21.5839469 27.00496842 23.9967996 25.8125 26.625 C23.89191145 30.20126833 23.41685783 30.4282454 20 32 C18.85790183 33.78228936 18.85790183 33.78228936 18 36 C15.23076923 41.88461538 15.23076923 41.88461538 13 43 C12.30959426 44.65697379 11.6469365 46.3255761 11 48 C10.04060332 49.69036558 9.03357147 51.35394174 8 53 C7.62746094 53.63292969 7.25492188 54.26585937 6.87109375 54.91796875 C3.14738927 61.13970696 -1.2491078 65.56359745 -7 70 C-7 66.7 -7 63.4 -7 60 C-5.515 59.505 -5.515 59.505 -4 59 C-3.34 58.01 -2.68 57.02 -2 56 C0 53 0 53 3 52 C3.28875 51.401875 3.5775 50.80375 3.875 50.1875 C5 48 5 48 7.3125 46.3125 C11.00804969 43.1326084 12.83403939 39.31348752 15 35 C15.66 35 16.32 35 17 35 C17.33 33.68 17.66 32.36 18 31 C18.66 31 19.32 31 20 31 C22.30790086 26.67130556 23.96330086 22.06630464 25.70117188 17.48828125 C26.78037363 14.72265426 27.76206307 12.29670792 29.62890625 9.96875 C31.61696357 7.42874403 31.61696357 7.42874403 32 1 C21.44 1 10.88 1 0 1 C0 0.67 0 0.34 0 0 Z " fill="#B2BBF3" transform="translate(196,216)"/>
<path d="M0 0 C0.66 0.33 1.32 0.66 2 1 C2.02696365 2.79158489 2.04637917 4.58328473 2.0625 6.375 C2.07410156 7.37273437 2.08570313 8.37046875 2.09765625 9.3984375 C2 12 2 12 1 14 C0.86155725 15.33857726 0.77496573 16.68280098 0.71875 18.02734375 C0.68136719 18.81947266 0.64398438 19.61160156 0.60546875 20.42773438 C0.57066406 21.25595703 0.53585937 22.08417969 0.5 22.9375 C0.43099971 24.57178464 0.35823442 26.20591575 0.28125 27.83984375 C0.23581055 28.92833618 0.23581055 28.92833618 0.18945312 30.03881836 C0 32 0 32 -1 35 C-3.64 35 -6.28 35 -9 35 C-8.67 34.01 -8.34 33.02 -8 32 C-7.90973644 30.43158325 -7.86849979 28.86004797 -7.859375 27.2890625 C-7.84003906 26.37382812 -7.82070313 25.45859375 -7.80078125 24.515625 C-7.76706801 22.59656371 -7.74870868 20.67716812 -7.74609375 18.7578125 C-7.61926928 14.00523237 -7.54224182 11.7084127 -4.578125 7.8359375 C-2 6 -2 6 0 6 C0 4.02 0 2.04 0 0 Z " fill="#AE89E0" transform="translate(293,297)"/>
<path d="M0 0 C6.4 -0.36923077 6.4 -0.36923077 9.4375 1.5 C9.953125 1.995 10.46875 2.49 11 3 C10.01 3.66 9.02 4.32 8 5 C7.27617533 7.05925139 7.27617533 7.05925139 7 9 C6.34 9 5.68 9 5 9 C4.67 10.65 4.34 12.3 4 14 C3.34 14 2.68 14 2 14 C2.103125 14.7425 2.20625 15.485 2.3125 16.25 C2.209375 17.1575 2.10625 18.065 2 19 C1.21625 19.61875 0.4325 20.2375 -0.375 20.875 C-3.73456276 23.59464604 -3.86751547 25.92305571 -5 30 C-6.875 31.125 -6.875 31.125 -9 32 C-10.36244796 33.64295195 -11.69864875 35.30824337 -13 37 C-13.99 37.495 -13.99 37.495 -15 38 C-15.4125 38.86625 -15.825 39.7325 -16.25 40.625 C-18.32912383 44.63473881 -20.96922016 47.68477804 -24 51 C-24.495 49.515 -24.495 49.515 -25 48 C-23.70703125 46.203125 -23.70703125 46.203125 -21.8125 44.25 C-19.02627177 41.23250382 -16.94851824 38.40824222 -15.03515625 34.796875 C-13.39310738 31.94652601 -11.37458967 29.39713687 -9.3671875 26.796875 C-8.18425753 25.24216704 -7.08364629 23.62546943 -6 22 C-5.34 22 -4.68 22 -4 22 C-3.96261719 21.40832031 -3.92523438 20.81664062 -3.88671875 20.20703125 C-3.33247695 13.5452622 -3.33247695 13.5452622 -1.4375 10.4375 C0.66296649 6.87583943 0.20804212 4.09149502 0 0 Z " fill="#62CEF6" transform="translate(235,217)"/>
<path d="M0 0 C0.33 0 0.66 0 1 0 C1.0270043 1.45823212 1.04639787 2.91660675 1.0625 4.375 C1.07410156 5.18710937 1.08570313 5.99921875 1.09765625 6.8359375 C1 9 1 9 0 11 C0.66 11 1.32 11 2 11 C2.93576707 13.52200638 3.15731302 14.62051684 2.109375 17.1484375 C1.66078125 17.88320313 1.2121875 18.61796875 0.75 19.375 C-0.8518977 22.05365538 -2.2663202 24.58590444 -3.5625 27.4375 C-5.1854029 30.33050082 -6.13092782 30.61173927 -9 32 C-9.67441131 33.6635479 -10.3400321 35.33066942 -11 37 C-12.64646685 38.68662458 -14.31183067 40.35511706 -16 42 C-16.33 42.99 -16.66 43.98 -17 45 C-18.485 45.495 -18.485 45.495 -20 46 C-20.66 44.35 -21.32 42.7 -22 41 C-21.34 41 -20.68 41 -20 41 C-16.25591071 37.05352751 -13.67188814 32.87727081 -11.125 28.0859375 C-10 26 -10 26 -8.375 23.5625 C-6.59450654 20.24430764 -5.70940503 16.83713646 -4.74609375 13.20703125 C-4 11 -4 11 -2 9 C-1.32348793 6.80295489 -1.32348793 6.80295489 -0.875 4.375 C-0.70742188 3.55773437 -0.53984375 2.74046875 -0.3671875 1.8984375 C-0.24601562 1.27195312 -0.12484375 0.64546875 0 0 Z " fill="#59BFF7" transform="translate(286,259)"/>
<path d="M0 0 C0.66 0.33 1.32 0.66 2 1 C0.09085439 8.89487861 -1.83226502 15.3163161 -6.73828125 21.890625 C-8.88562108 25.4806049 -8.86902885 28.87440891 -9 33 C-12.3 33 -15.6 33 -19 33 C-18.67 31.35 -18.34 29.7 -18 28 C-17.01 27.67 -16.02 27.34 -15 27 C-14.26480478 25.02416285 -13.60927518 23.01822402 -13 21 C-12.484375 20.071875 -11.96875 19.14375 -11.4375 18.1875 C-9.61307161 14.14202835 -9.28297254 10.39095325 -9 6 C-8.67 6 -8.34 6 -8 6 C-7.34 8.97 -6.68 11.94 -6 15 C-5.34 15 -4.68 15 -4 15 C-4 12.03 -4 9.06 -4 6 C-3.01 6 -2.02 6 -1 6 C-0.67 4.02 -0.34 2.04 0 0 Z " fill="#7791CB" transform="translate(274,298)"/>
<path d="M0 0 C1.32 0.33 2.64 0.66 4 1 C4.50610724 7.07328688 3.04157942 10.77228537 0 16 C-0.66 16 -1.32 16 -2 16 C-2 16.99 -2 17.98 -2 19 C-2.66 19 -3.32 19 -4 19 C-5.20628008 21.33214148 -6.1654738 23.49642139 -7 26 C-7.66 26.33 -8.32 26.66 -9 27 C-9.33 27.99 -9.66 28.98 -10 30 C-10.66 30.33 -11.32 30.66 -12 31 C-12.12375 31.61875 -12.2475 32.2375 -12.375 32.875 C-13.20769751 35.70617154 -14.5206715 36.49737667 -17 38 C-17.66 38 -18.32 38 -19 38 C-19 39.03125 -19 40.0625 -19 41.125 C-19.35317801 43.87754609 -19.8284982 44.83284919 -21.84765625 46.80078125 C-23.85581869 48.28476725 -25.87992354 49.68159254 -28 51 C-27.7009375 50.40574219 -27.401875 49.81148438 -27.09375 49.19921875 C-26.20631054 47.41483156 -25.34856408 45.61569867 -24.5 43.8125 C-23 41 -23 41 -21 40 C-20.4121875 38.7315625 -20.4121875 38.7315625 -19.8125 37.4375 C-18.23972182 34.45464482 -17.02213761 32.86363309 -14.75 30.5 C-10.52335598 25.87851026 -8.13236887 20.68750847 -5.48046875 15.07421875 C-4 12 -4 12 -2 9 C-1.33386665 6.72461677 -1.33386665 6.72461677 -0.875 4.3125 C-0.70742187 3.50425781 -0.53984375 2.69601563 -0.3671875 1.86328125 C-0.24601562 1.24839844 -0.12484375 0.63351563 0 0 Z " fill="#99C2F4" transform="translate(232,217)"/>
<path d="M0 0 C2.375 0.875 2.375 0.875 4.375 2.875 C4.67578125 5.37109375 4.67578125 5.37109375 4.6875 8.3125 C4.71263672 9.76462891 4.71263672 9.76462891 4.73828125 11.24609375 C4.375 13.875 4.375 13.875 3.046875 15.703125 C0.48548124 17.49849446 -1.59071126 17.19779667 -4.625 16.875 C-7.20899406 14.29100594 -6.9518593 13.09129635 -7 9.5 C-6.92852454 5.86904653 -6.86166738 4.26068018 -4.9375 1.125 C-2.625 -0.125 -2.625 -0.125 0 0 Z " fill="#111111" transform="translate(698.625,252.125)"/>
<path d="M0 0 C13.86 0 27.72 0 42 0 C42 0.33 42 0.66 42 1 C40.02 1 38.04 1 36 1 C35.979375 2.2375 35.95875 3.475 35.9375 4.75 C35.33511593 10.37520419 32.73133232 14.39108751 29.77734375 19.12109375 C28.25789126 21.58227283 26.97044172 24.00841095 25.75 26.625 C24 30 24 30 21 32 C26.42857143 14.85714286 26.42857143 14.85714286 31 8 C31.33 5.69 31.66 3.38 32 1 C21.44 1 10.88 1 0 1 C0 0.67 0 0.34 0 0 Z " fill="#AAA8D9" transform="translate(196,216)"/>
<path d="M0 0 C0.66 0 1.32 0 2 0 C2.96644969 4.09182328 3.1968898 7.9873683 3.25 12.1875 C3.28867188 14.03408203 3.28867188 14.03408203 3.328125 15.91796875 C3.21984375 16.93503906 3.1115625 17.95210938 3 19 C2.01 19.66 1.02 20.32 0 21 C-1.06246527 22.96752828 -2.07137808 24.96587579 -3 27 C0.3 27 3.6 27 7 27 C7 27.33 7 27.66 7 28 C3.37 28 -0.26 28 -4 28 C-5.47169811 16.96226415 -5.47169811 16.96226415 -3.90625 12.109375 C-3.68066406 11.40039062 -3.45507812 10.69140625 -3.22265625 9.9609375 C-2.98417969 9.23132813 -2.74570313 8.50171875 -2.5 7.75 C-2.26152344 7.00492187 -2.02304688 6.25984375 -1.77734375 5.4921875 C-1.19004052 3.65980142 -0.59570693 1.8296713 0 0 Z " fill="#01151A" transform="translate(200,306)"/>
<path d="M0 0 C0.75 1.5625 0.75 1.5625 1 4 C-0.80424782 7.54628021 -2.79621408 10.69432112 -5 14 C-5.66 14 -6.32 14 -7 14 C-6.896875 14.886875 -6.79375 15.77375 -6.6875 16.6875 C-7.10070387 21.06746098 -8.80356068 22.10090388 -12 25 C-12.495 25.9075 -12.99 26.815 -13.5 27.75 C-13.995 28.4925 -14.49 29.235 -15 30 C-16.2684375 30.2475 -16.2684375 30.2475 -17.5625 30.5 C-18.7690625 30.7475 -18.7690625 30.7475 -20 31 C-21.10636395 33.39068734 -21.10636395 33.39068734 -22 36 C-24.125 37.8125 -24.125 37.8125 -26 39 C-26.33 38.34 -26.66 37.68 -27 37 C-26.195625 36.236875 -25.39125 35.47375 -24.5625 34.6875 C-21.83200976 32.20569102 -21.83200976 32.20569102 -21 29 C-20.175 28.195625 -19.35 27.39125 -18.5 26.5625 C-15.89357281 24.32669376 -15.89357281 24.32669376 -15.5 21.9375 C-15 20 -15 20 -12.6875 18.1875 C-9.46709052 15.56623647 -7.87462945 12.61374352 -6 9 C-2.32735426 2.32735426 -2.32735426 2.32735426 0 0 Z " fill="#E5ACEF" transform="translate(216,233)"/>
<path d="M0 0 C2 3 2 3 1.4375 6.1875 C-0.01189614 10.48064805 -1.7922532 14.73408163 -5 18 C-8.8125 18.5 -8.8125 18.5 -12 18 C-11.55204008 13.07244093 -10.47902104 11.37359616 -7 8 C-5.73215876 4.86649283 -5.73215876 4.86649283 -5 2 C-4.34 2.33 -3.68 2.66 -3 3 C-2.01 2.01 -1.02 1.02 0 0 Z " fill="#00D1E3" transform="translate(195,313)"/>
<path d="M0 0 C2.31 0.33 4.62 0.66 7 1 C6.67 1.99 6.34 2.98 6 4 C5.01 3.67 4.02 3.34 3 3 C5.21934164 6.32901247 6.34683329 6.75023244 10 8 C9.98839844 8.59167969 9.97679687 9.18335938 9.96484375 9.79296875 C9.91640121 14.03515158 10.07652529 17.84436382 11 22 C11.0370279 23.6662553 11.04759962 25.33401319 11 27 C10.67 26.34 10.34 25.68 10 25 C9.01 24.67 8.02 24.34 7 24 C7.33 22.35 7.66 20.7 8 19 C7.34 19 6.68 19 6 19 C3.69 13.72 1.38 8.44 -1 3 C-0.34 2.67 0.32 2.34 1 2 C0.67 1.34 0.34 0.68 0 0 Z " fill="#40C6F9" transform="translate(271,228)"/>
<path d="M0 0 C0.66 0.33 1.32 0.66 2 1 C-0.75 5.875 -0.75 5.875 -3 7 C-3.144375 7.61875 -3.28875 8.2375 -3.4375 8.875 C-4.11800697 11.44580412 -5.11232702 12.16141545 -7 14 C-10.33377868 18.14985992 -13.28047076 22.42624628 -16 27 C-19.6 31.8 -19.6 31.8 -22 33 C-23.0409066 34.64142963 -24.04504326 36.30712215 -25 38 C-25 34.89448334 -24.4606285 33.64738916 -23 31 C-22.34 31 -21.68 31 -21 31 C-20.67 29.68 -20.34 28.36 -20 27 C-19.34 27 -18.68 27 -18 27 C-17.90589844 26.25492187 -17.81179687 25.50984375 -17.71484375 24.7421875 C-16.89424121 21.59430234 -15.83640215 20.4036296 -13.5625 18.125 C-10.24917762 14.55628969 -9.24838795 11.72604009 -8 7 C-5.49520864 4.10985613 -3.17908442 2.11938961 0 0 Z " fill="#32D4F7" transform="translate(228,247)"/>
<path d="M0 0 C0.66 0 1.32 0 2 0 C2.02719556 2.37507855 2.04693247 4.74983964 2.0625 7.125 C2.07087891 7.79015625 2.07925781 8.4553125 2.08789062 9.140625 C2.10782292 13.20681354 1.78890161 17.0120092 1 21 C-1.31 21 -3.62 21 -6 21 C-5.5749888 18.43486151 -5.13553075 15.87363098 -4.6875 13.3125 C-4.56955078 12.59126953 -4.45160156 11.87003906 -4.33007812 11.12695312 C-3.57288517 6.87502348 -2.69164906 3.50813901 0 0 Z " fill="#C089EA" transform="translate(290,311)"/>
<path d="M0 0 C4.79234482 0.32675078 8.41830621 1.53253517 12.8125 3.5 C18.25503953 5.88154 23.08273144 6.85599568 29 7 C29 7.33 29 7.66 29 8 C26.69 8.33 24.38 8.66 22 9 C22.66 9.66 23.32 10.32 24 11 C23.34 11.66 22.68 12.32 22 13 C22.474375 13.825 22.94875 14.65 23.4375 15.5 C25.23569599 19.52795901 25.6234255 22.63173579 26 27 C25.34 26.34 24.68 25.68 24 25 C24 24.01 24 23.02 24 22 C23.34 22 22.68 22 22 22 C20 16.25 20 16.25 20 14 C17.525 13.505 17.525 13.505 15 13 C15.33 12.34 15.66 11.68 16 11 C17.32 11 18.64 11 20 11 C18.694761 8.38952199 17.64173426 8.31933577 14.9375 7.375 C14.20402344 7.11460937 13.47054688 6.85421875 12.71484375 6.5859375 C12.14894531 6.39257812 11.58304687 6.19921875 11 6 C11 5.34 11 4.68 11 4 C7.37 3.34 3.74 2.68 0 2 C0 1.34 0 0.68 0 0 Z " fill="#1DCCF8" transform="translate(249,219)"/>
<path d="M0 0 C7.59 0 15.18 0 23 0 C18.57163244 4.42836756 15.05767302 5.28925687 8.875 5.3125 C7.84117187 5.32925781 6.80734375 5.34601563 5.7421875 5.36328125 C3 5 3 5 1.1328125 3.60546875 C0 2 0 2 0 0 Z " fill="#121213" transform="translate(741,266)"/>
<path d="M0 0 C2.35953094 2.35953094 2.49141413 3.77895617 3 7 C3.66 7 4.32 7 5 7 C4.979375 7.804375 4.95875 8.60875 4.9375 9.4375 C4.70366379 11.93354885 4.70366379 11.93354885 6 13 C6.30989769 16.32381299 6.27863878 19.66354153 6.3125 23 C6.34150391 23.92167969 6.37050781 24.84335937 6.40039062 25.79296875 C6.46099473 32.40347786 5.16700529 37.20113187 2 43 C1 40 1 40 1.91796875 36.8203125 C3.06854164 32.75800098 3.34328006 29.05820216 3.3125 24.875 C3.31121094 24.13942871 3.30992187 23.40385742 3.30859375 22.64599609 C3.20605001 16.72537702 2.22030078 11.25943341 0.65625 5.5390625 C0 3 0 3 0 0 Z " fill="#1ECCFA" transform="translate(274,240)"/>
<path d="M0 0 C0.33 0 0.66 0 1 0 C1.125 2.375 1.125 2.375 1 5 C0.34 5.66 -0.32 6.32 -1 7 C-1.78831287 8.99291139 -1.78831287 8.99291139 -2.4375 11.25 C-4.38136056 17.31484495 -6.84429317 22.127792 -11 27 C-11.66 26.67 -12.32 26.34 -13 26 C-12.2302804 24.6035522 -11.45916631 23.20787301 -10.6875 21.8125 C-10.22988281 20.98234375 -9.77226562 20.1521875 -9.30078125 19.296875 C-8 17 -8 17 -6.375 14.5625 C-4.59450654 11.24430764 -3.70940503 7.83713646 -2.74609375 4.20703125 C-2 2 -2 2 0 0 Z M-15 29 C-15 32.20395416 -15.74335022 34.09399739 -17 37 C-18.5 35.625 -18.5 35.625 -20 34 C-20 33.34 -20 32.68 -20 32 C-19.34 32 -18.68 32 -18 32 C-16.37485532 30.54166642 -16.37485532 30.54166642 -15 29 Z " fill="#47C3F6" transform="translate(284,268)"/>
<path d="M0 0 C0.66 0.33 1.32 0.66 2 1 C-2.13230523 18.08829752 -2.13230523 18.08829752 -8 24 C-10.1875 24.73046875 -10.1875 24.73046875 -12 25 C-11.71125 24.505 -11.4225 24.01 -11.125 23.5 C-9.58711584 20.08247965 -8.85152195 16.6493798 -8 13 C-6.68 13.66 -5.36 14.32 -4 15 C-4 12.03 -4 9.06 -4 6 C-3.01 6 -2.02 6 -1 6 C-0.67 4.02 -0.34 2.04 0 0 Z " fill="#6F9ED8" transform="translate(274,298)"/>
<path d="M0 0 C0.33 0.66 0.66 1.32 1 2 C-1.53506963 7.17004349 -4.65051261 11.12673501 -8.625 15.25 C-11.29952098 18.06528524 -13.83629984 20.75444976 -16 24 C-16.66 24 -17.32 24 -18 24 C-18.33 25.32 -18.66 26.64 -19 28 C-19.31373562 24.43575768 -19.38248212 22.56963489 -17.35546875 19.55078125 C-16.64003906 18.81214844 -15.92460937 18.07351563 -15.1875 17.3125 C-14.47980469 16.56613281 -13.77210938 15.81976563 -13.04296875 15.05078125 C-11.8486145 13.85185968 -10.64734268 12.65962428 -9.4296875 11.484375 C-7.75394892 9.74453713 -6.36245842 7.88725129 -4.9375 5.9375 C-3.36375534 3.78711607 -1.88786963 1.88786963 0 0 Z " fill="#84C6F2" transform="translate(208,264)"/>
<path d="M0 0 C0.66 0 1.32 0 2 0 C1.1875 2.9375 1.1875 2.9375 0 6 C-0.99 6.33 -1.98 6.66 -3 7 C-3.33 8.98 -3.66 10.96 -4 13 C-4.99 13 -5.98 13 -7 13 C-7 15.97 -7 18.94 -7 22 C-7.99 22.33 -8.98 22.66 -10 23 C-10.33 20.03 -10.66 17.06 -11 14 C-10.01 13.67 -9.02 13.34 -8 13 C-7.63451555 11.67511887 -7.3062434 10.33981486 -7 9 C-5.5625 6.75 -5.5625 6.75 -4 5 C-3.34 5 -2.68 5 -2 5 C-1.34 3.35 -0.68 1.7 0 0 Z " fill="#6BB7F5" transform="translate(277,291)"/>
<path d="M0 0 C1 2 1 2 0.546875 4.0234375 C-2.2361809 12.2361809 -2.2361809 12.2361809 -5 15 C-5.66 15 -6.32 15 -7 15 C-7.33 16.32 -7.66 17.64 -8 19 C-8 18.34 -8 17.68 -8 17 C-9.32 16.67 -10.64 16.34 -12 16 C-12 15.34 -12 14.68 -12 14 C-11.24203125 13.56945312 -10.4840625 13.13890625 -9.703125 12.6953125 C-6.59302306 10.74475724 -5.513548 9.05866824 -3.75 5.875 C-1.01986755 1.01986755 -1.01986755 1.01986755 0 0 Z " fill="#2DC6F2" transform="translate(274,283)"/>
<path d="M0 0 C1.32 0.33 2.64 0.66 4 1 C4.50610724 7.07328688 3.04157942 10.77228537 0 16 C-0.66 16 -1.32 16 -2 16 C-2.33 16.99 -2.66 17.98 -3 19 C-3 17.35 -3 15.7 -3 14 C-2.34 14 -1.68 14 -1 14 C-1.01160156 13.32453125 -1.02320313 12.6490625 -1.03515625 11.953125 C-1.04417969 11.06109375 -1.05320313 10.1690625 -1.0625 9.25 C-1.07410156 8.36828125 -1.08570313 7.4865625 -1.09765625 6.578125 C-1.00826198 4.2181162 -0.66912821 2.25501476 0 0 Z " fill="#85C7F5" transform="translate(232,217)"/>
<path d="M0 0 C3.54845044 0.98568068 4.91120428 1.88900535 7.25 4.8125 C9.753801 9.37299468 10.1647584 13.46788324 10.25 18.625 C10.28867187 20.03652344 10.28867187 20.03652344 10.328125 21.4765625 C9.94993857 24.38499623 9.26678633 25.2223623 7 27 C7.05220703 25.24623047 7.05220703 25.24623047 7.10546875 23.45703125 C7.13361716 21.90886859 7.16091619 20.36069032 7.1875 18.8125 C7.21263672 18.04357422 7.23777344 17.27464844 7.26367188 16.48242188 C7.32377188 11.81465489 7.04102023 8.79207123 4 5 C3.34 4.67 2.68 4.34 2 4 C2 3.34 2 2.68 2 2 C1.34 2 0.68 2 0 2 C0 1.34 0 0.68 0 0 Z " fill="#8598D5" transform="translate(289,226)"/>
<path d="M0 0 C0.33 0 0.66 0 1 0 C1.06058594 1.27617187 1.12117188 2.55234375 1.18359375 3.8671875 C1.26799568 5.53647016 1.35264386 7.20574037 1.4375 8.875 C1.47681641 9.71675781 1.51613281 10.55851562 1.55664062 11.42578125 C1.59853516 12.23144531 1.64042969 13.03710938 1.68359375 13.8671875 C1.72025146 14.61081543 1.75690918 15.35444336 1.79467773 16.12060547 C1.89955865 18.08864312 1.89955865 18.08864312 3 20 C3.07194869 22.88370333 3.09291708 25.74239664 3.0625 28.625 C3.05798828 29.42679687 3.05347656 30.22859375 3.04882812 31.0546875 C3.03703168 33.03649006 3.01909605 35.01825433 3 37 C2.67 37 2.34 37 2 37 C1.67 33.7 1.34 30.4 1 27 C0.34 27.33 -0.32 27.66 -1 28 C-0.67 18.76 -0.34 9.52 0 0 Z " fill="#6D93C9" transform="translate(290,256)"/>
<path d="M0 0 C1.670625 0.061875 1.670625 0.061875 3.375 0.125 C2.625 4.875 2.625 4.875 0.375 7.125 C-2.25 7.25 -2.25 7.25 -4.625 7.125 C-5.25 4.75 -5.25 4.75 -5.625 2.125 C-3.625 0.125 -3.625 0.125 0 0 Z " fill="#141515" transform="translate(576.625,263.875)"/>
<path d="M0 0 C1.670625 0.061875 1.670625 0.061875 3.375 0.125 C2.625 4.875 2.625 4.875 0.375 7.125 C-2.25 7.25 -2.25 7.25 -4.625 7.125 C-5.25 4.75 -5.25 4.75 -5.625 2.125 C-3.625 0.125 -3.625 0.125 0 0 Z " fill="#151515" transform="translate(460.625,263.875)"/>
<path d="M0 0 C0.7425 0.2475 1.485 0.495 2.25 0.75 C1.5384375 1.36875 1.5384375 1.36875 0.8125 2 C-0.91266518 3.932185 -1.31584875 5.23192275 -1.75 7.75 C-2.41 7.75 -3.07 7.75 -3.75 7.75 C-4.08 9.4 -4.41 11.05 -4.75 12.75 C-5.41 12.75 -6.07 12.75 -6.75 12.75 C-7.36832061 4.71183206 -7.36832061 4.71183206 -5.0625 1.125 C-2.75 -0.25 -2.75 -0.25 0 0 Z " fill="#5ECFF6" transform="translate(243.75,218.25)"/>
<path d="M0 0 C0.94875 0.04125 1.8975 0.0825 2.875 0.125 C3.0625 3 3.0625 3 2.875 6.125 C-0.125 8.125 -0.125 8.125 -2.8125 7.75 C-3.575625 7.54375 -4.33875 7.3375 -5.125 7.125 C-5.25 4.75 -5.25 4.75 -5.125 2.125 C-3.125 0.125 -3.125 0.125 0 0 Z " fill="#DEADF1" transform="translate(221.125,216.875)"/>
<path d="M0 0 C0.33 0.66 0.66 1.32 1 2 C2.2375 2.2475 2.2375 2.2475 3.5 2.5 C4.7375 2.7475 4.7375 2.7475 6 3 C6.33 3.66 6.66 4.32 7 5 C4.69 4.67 2.38 4.34 0 4 C-0.3403125 5.36125 -0.3403125 5.36125 -0.6875 6.75 C-2.20002433 10.49529834 -3.78228882 11.66715939 -7 14 C-7.66 14.99 -8.32 15.98 -9 17 C-8.43697042 13.05879291 -7.3208055 10.2491277 -5 7 C-4.34 7 -3.68 7 -3 7 C-3.33 6.01 -3.66 5.02 -4 4 C-2.68 2.68 -1.36 1.36 0 0 Z " fill="#27D4F7" transform="translate(248,219)"/>
<path d="M0 0 C0.33 0.99 0.66 1.98 1 3 C-1.51027705 5.5999298 -3.9863684 7.99091227 -7 10 C-7.66 10 -8.32 10 -9 10 C-9 11.98 -9 13.96 -9 16 C-9.99 15.67 -10.98 15.34 -12 15 C-12.33 16.32 -12.66 17.64 -13 19 C-13.75 16.25 -13.75 16.25 -14 13 C-12.4375 10.9375 -12.4375 10.9375 -10 9 C-9.49339844 8.55269531 -8.98679688 8.10539062 -8.46484375 7.64453125 C-4.30987395 4 -4.30987395 4 -2 4 C-1.34 2.68 -0.68 1.36 0 0 Z " fill="#48D2F6" transform="translate(203,279)"/>
<path d="M0 0 C0.66 0.33 1.32 0.66 2 1 C0.90078577 3.79799985 -0.04466152 5.03550018 -2.4375 6.9375 C-5.120455 9.09695158 -6.29448605 11.05411226 -8 14 C-8.99 14.66 -9.98 15.32 -11 16 C-11.28875 16.66 -11.5775 17.32 -11.875 18 C-13.40185248 20.71440441 -15.10513932 21.08583347 -18 22 C-18 20 -18 20 -15.8203125 17.72265625 C-14.88960937 16.82417969 -13.95890625 15.92570312 -13 15 C-11.27975447 13.15687979 -9.571444 11.30255082 -7.875 9.4375 C-7.02679688 8.50808594 -6.17859375 7.57867187 -5.3046875 6.62109375 C-3.41702146 4.47427356 -1.66879203 2.31776671 0 0 Z " fill="#6CCCF5" transform="translate(208,268)"/>
<path d="M0 0 C0.33 0.99 0.66 1.98 1 3 C-0.14453125 5.04296875 -0.14453125 5.04296875 -1.8125 7.1875 C-2.35519531 7.90292969 -2.89789063 8.61835938 -3.45703125 9.35546875 C-4.22080078 10.16951172 -4.22080078 10.16951172 -5 11 C-5.66 11 -6.32 11 -7 11 C-7.33 12.65 -7.66 14.3 -8 16 C-8.99 16 -9.98 16 -11 16 C-11 14.35 -11 12.7 -11 11 C-10.01 10.67 -9.02 10.34 -8 10 C-7.34 9.01 -6.68 8.02 -6 7 C-4 4 -4 4 -1 3 C-0.67 2.01 -0.34 1.02 0 0 Z " fill="#BDB7EF" transform="translate(200,265)"/>
<path d="M0 0 C4.79234482 0.32675078 8.41830621 1.53253517 12.8125 3.5 C18.25503953 5.88154 23.08273144 6.85599568 29 7 C29 7.33 29 7.66 29 8 C22.00727785 9.18933594 17.46738512 8.99415978 11 6 C11 5.34 11 4.68 11 4 C7.37 3.34 3.74 2.68 0 2 C0 1.34 0 0.68 0 0 Z " fill="#25ADC8" transform="translate(249,219)"/>
<path d="M0 0 C2.5625 0.1875 2.5625 0.1875 4.5625 2.1875 C4.5625 3.5075 4.5625 4.8275 4.5625 6.1875 C1.5925 6.1875 -1.3775 6.1875 -4.4375 6.1875 C-3.3735 0.2595 -3.3735 0.2595 0 0 Z " fill="#161616" transform="translate(745.4375,250.8125)"/>
<path d="M0 0 C0.66 0 1.32 0 2 0 C3.00926479 4.15626368 3.10239579 8.04365094 3.0625 12.3125 C3.05347656 13.56675781 3.04445312 14.82101562 3.03515625 16.11328125 C3.01775391 17.54220703 3.01775391 17.54220703 3 19 C2.34 19 1.68 19 1 19 C0.67 15.04 0.34 11.08 0 7 C-0.66 7.66 -1.32 8.32 -2 9 C-1.51421457 5.87709365 -1.0013988 3.00419641 0 0 Z " fill="#003B43" transform="translate(200,306)"/>
<path d="M0 0 C0.66 0.33 1.32 0.66 2 1 C-2.07250599 7.98391453 -6.56180006 13.03338862 -13 18 C-13 16.35 -13 14.7 -13 13 C-12.1646875 12.6596875 -12.1646875 12.6596875 -11.3125 12.3125 C-6.17522503 9.39674934 -3.06896491 4.88761078 0 0 Z " fill="#9CC0F1" transform="translate(202,268)"/>
<path d="M0 0 C1.32 0 2.64 0 4 0 C4.49940808 6.11774896 3.24900602 9.02495953 0 14 C-0.33 14 -0.66 14 -1 14 C-0.67 9.38 -0.34 4.76 0 0 Z " fill="#C3B6F2" transform="translate(224,217)"/>
<path d="M0 0 C0.33 0 0.66 0 1 0 C1.51871665 7.56173611 1.76314334 13.36220901 -2.7109375 19.70703125 C-3.13632812 20.13371094 -3.56171875 20.56039063 -4 21 C-4.66 21 -5.32 21 -6 21 C-5.02999178 17.86612729 -4.03455517 15.0621993 -2.4375 12.1875 C-0.61307161 8.14202835 -0.28297254 4.39095325 0 0 Z " fill="#6492C1" transform="translate(265,304)"/>
<path d="M0 0 C2.33294775 -0.04241723 4.66702567 -0.04092937 7 0 C7.33 0.33 7.66 0.66 8 1 C10.52596259 1.23653523 13.03107207 1.42173692 15.5625 1.5625 C16.27341797 1.60568359 16.98433594 1.64886719 17.71679688 1.69335938 C19.47761912 1.79971777 21.2387832 1.90038846 23 2 C23 2.33 23 2.66 23 3 C20.27056463 3.05416741 17.54221436 3.09375225 14.8125 3.125 C13.65911133 3.15013672 13.65911133 3.15013672 12.48242188 3.17578125 C8.1850566 3.21266851 4.92098169 2.9958504 1 1 C1 3.97 1 6.94 1 10 C0.67 10 0.34 10 0 10 C0 6.7 0 3.4 0 0 Z " fill="#00808C" transform="translate(214,282)"/>
<path d="M0 0 C0.78375 0.04125 1.5675 0.0825 2.375 0.125 C1.16263672 0.73601562 1.16263672 0.73601562 -0.07421875 1.359375 C-4.13332193 5.76036283 -3.40732454 10.59472277 -3.4375 16.375 C-3.46263672 17.50164062 -3.48777344 18.62828125 -3.51367188 19.7890625 C-3.57254892 22.56805908 -3.60882525 25.34548033 -3.625 28.125 C-3.955 28.125 -4.285 28.125 -4.625 28.125 C-4.68283842 23.83338953 -4.7185412 19.54187855 -4.75 15.25 C-4.76675781 14.02667969 -4.78351562 12.80335938 -4.80078125 11.54296875 C-4.80722656 10.37636719 -4.81367187 9.20976562 -4.8203125 8.0078125 C-4.83078613 6.92902832 -4.84125977 5.85024414 -4.85205078 4.73876953 C-4.53484274 1.08712513 -3.67581928 0.17503901 0 0 Z " fill="#323232" transform="translate(531.625,252.875)"/>
<path d="M0 0 C0.99 0.66 1.98 1.32 3 2 C2.39169139 8.44807122 2.39169139 8.44807122 0.625 10.9375 C-1 12 -1 12 -4 12 C-3.71125 11.505 -3.4225 11.01 -3.125 10.5 C-1.58711584 7.08247965 -0.85152195 3.6493798 0 0 Z " fill="#80A8EA" transform="translate(266,311)"/>
<path d="M0 0 C0 3 0 3 -1 6 C-1.66 6 -2.32 6 -3 6 C-3.33 6.66 -3.66 7.32 -4 8 C-6 6.1875 -6 6.1875 -8 4 C-8 3.01 -8 2.02 -8 1 C-6.8553125 1.309375 -6.8553125 1.309375 -5.6875 1.625 C-2.78114056 2.33391203 -2.78114056 2.33391203 0 0 Z " fill="#81A6E8" transform="translate(284,296)"/>
<path d="M0 0 C0.66 0 1.32 0 2 0 C2 6.27 2 12.54 2 19 C0.35 19.33 -1.3 19.66 -3 20 C-2.26330078 19.00419922 -2.26330078 19.00419922 -1.51171875 17.98828125 C0.35105036 14.30606324 0.33744682 11.2053057 0.1875 7.1875 C0.17396484 6.49462891 0.16042969 5.80175781 0.14648438 5.08789062 C0.11138845 3.39158735 0.05758943 1.69568864 0 0 Z " fill="#1D223B" transform="translate(298,235)"/>
<path d="M0 0 C0.99 0 1.98 0 3 0 C2.07934219 6.30719307 1.0022542 9.91921368 -4 14 C-3.38722388 11.03824877 -2.74627478 9.61941217 -1 7 C-0.60612212 4.67612053 -0.26513915 2.34206251 0 0 Z " fill="#B2BBF2" transform="translate(228,217)"/>
<path d="M0 0 C0.66 0 1.32 0 2 0 C1.34 2.31 0.68 4.62 0 7 C3.465 6.505 3.465 6.505 7 6 C7 6.66 7 7.32 7 8 C3.37 8 -0.26 8 -4 8 C-2.25 2.25 -2.25 2.25 0 0 Z " fill="#03AAB7" transform="translate(201,325)"/>
<path d="M0 0 C0.71484375 1.765625 0.71484375 1.765625 1 4 C-0.43359375 5.921875 -0.43359375 5.921875 -2.4375 7.75 C-3.09621094 8.36359375 -3.75492187 8.9771875 -4.43359375 9.609375 C-5.20896484 10.29773438 -5.20896484 10.29773438 -6 11 C-6.66 10.67 -7.32 10.34 -8 10 C-7.21718695 8.66144944 -6.42348123 7.32926356 -5.625 6 C-5.18414062 5.2575 -4.74328125 4.515 -4.2890625 3.75 C-3.86367188 3.1725 -3.43828125 2.595 -3 2 C-2.34 2 -1.68 2 -1 2 C-0.67 1.34 -0.34 0.68 0 0 Z " fill="#81AEF5" transform="translate(291,281)"/>
<path d="M0 0 C0.66 0 1.32 0 2 0 C1.1875 2.9375 1.1875 2.9375 0 6 C-0.99 6.33 -1.98 6.66 -3 7 C-3.33 8.65 -3.66 10.3 -4 12 C-4.99 11.01 -5.98 10.02 -7 9 C-5.625 7 -5.625 7 -4 5 C-3.34 5 -2.68 5 -2 5 C-1.34 3.35 -0.68 1.7 0 0 Z " fill="#5FBAF3" transform="translate(277,291)"/>
<path d="M0 0 C3.59336471 0.99815686 4.95725379 1.94825458 7.375 4.875 C9 8 9 8 8.75 10.375 C8.37875 11.179375 8.37875 11.179375 8 12 C7.0234375 10.20963542 6.046875 8.41927083 5.0703125 6.62890625 C4.08589976 4.83381685 4.08589976 4.83381685 2 4 C2 3.34 2 2.68 2 2 C1.34 2 0.68 2 0 2 C0 1.34 0 0.68 0 0 Z " fill="#7F8FC8" transform="translate(289,226)"/>
<path d="M0 0 C1.38308641 2.76617283 0.90563946 4.07408791 0 7 C-1.9375 9.3125 -1.9375 9.3125 -4 11 C-4.66 11 -5.32 11 -6 11 C-4.54955729 6.89041233 -2.48889248 3.56741255 0 0 Z " fill="#1FCCF8" transform="translate(274,283)"/>
<path d="M0 0 C0.66 0 1.32 0 2 0 C2 0.66 2 1.32 2 2 C1.5875 2.391875 1.175 2.78375 0.75 3.1875 C-0.95190478 4.9501871 -1.89655964 6.48962608 -3.0625 8.625 C-5 12 -5 12 -7 13 C-6.35952602 9.55251042 -5.00294981 7.15355815 -3.0625 4.25 C-2.53785156 3.45078125 -2.01320312 2.6515625 -1.47265625 1.828125 C-0.74369141 0.92320312 -0.74369141 0.92320312 0 0 Z " fill="#C7B5F1" transform="translate(211,249)"/>
<path d="M0 0 C0.99 0.33 1.98 0.66 3 1 C2.67 4.63 2.34 8.26 2 12 C1.34 12 0.68 12 0 12 C0 8.04 0 4.08 0 0 Z " fill="#CEB7B1" transform="translate(166,151)"/>
<path d="M0 0 C1.98 0.495 1.98 0.495 4 1 C4 2.32 4 3.64 4 5 C2.68 5 1.36 5 0 5 C-0.33 6.32 -0.66 7.64 -1 9 C-0.67 6.03 -0.34 3.06 0 0 Z " fill="#90C3F2" transform="translate(232,217)"/>
<path d="M0 0 C0.66 0.66 1.32 1.32 2 2 C1.625 4.125 1.625 4.125 1 6 C0.34 5.67 -0.32 5.34 -1 5 C-1.33 6.32 -1.66 7.64 -2 9 C-2.6875 6.1875 -2.6875 6.1875 -3 3 C-1.5625 1.125 -1.5625 1.125 0 0 Z " fill="#42CDEA" transform="translate(192,289)"/>
<path d="M0 0 C0 0.66 0 1.32 0 2 C0.99 2.33 1.98 2.66 3 3 C2 4 2 4 -1.5625 4.0625 C-2.696875 4.041875 -3.83125 4.02125 -5 4 C-5 3.01 -5 2.02 -5 1 C-2 0 -2 0 0 0 Z " fill="#00C2CE" transform="translate(188,327)"/>
<path d="M0 0 C0.66 0.33 1.32 0.66 2 1 C0.02 1.99 0.02 1.99 -2 3 C-2 4.32 -2 5.64 -2 7 C-3.32 7.33 -4.64 7.66 -6 8 C-6 6.68 -6 5.36 -6 4 C-3 1.75 -3 1.75 0 0 Z " fill="#24D6F9" transform="translate(200,285)"/>
<path d="M0 0 C2.97 0.495 2.97 0.495 6 1 C4.95125002 3.62187494 4.35068687 4.79371361 1.875 6.25 C1.25625 6.4975 0.6375 6.745 0 7 C0.66 5.68 1.32 4.36 2 3 C1.34 2.01 0.68 1.02 0 0 Z " fill="#3DBAD8" transform="translate(242,217)"/>
<path d="M0 0 C0.66 0.99 1.32 1.98 2 3 C-0.625 7.875 -0.625 7.875 -4 9 C-2.80100302 5.9168649 -1.52299523 2.93720508 0 0 Z " fill="#1B2537" transform="translate(272,311)"/>
<path d="M0 0 C-1.98 0.99 -1.98 0.99 -4 2 C-4 4.97 -4 7.94 -4 11 C-4.66 11 -5.32 11 -6 11 C-6 7.37 -6 3.74 -6 0 C-3.50907189 -1.24546405 -2.58919267 -0.7767578 0 0 Z " fill="#A6A8A8" transform="translate(566,243)"/>
<path d="M0 0 C0.99 0 1.98 0 3 0 C1.60667426 3.36720387 0.0210714 4.9859524 -3 7 C-2.25 2.25 -2.25 2.25 0 0 Z " fill="#28D5F7" transform="translate(233,240)"/>
<path d="M0 0 C0.99 0 1.98 0 3 0 C3 0.66 3 1.32 3 2 C2.34 2 1.68 2 1 2 C0.67 3.65 0.34 5.3 0 7 C-0.66 6.67 -1.32 6.34 -2 6 C-1.125 1.125 -1.125 1.125 0 0 Z " fill="#F1A7EF" transform="translate(218,217)"/>
<path d="M0 0 C2.31 0 4.62 0 7 0 C6.67 0.66 6.34 1.32 6 2 C5.34 2 4.68 2 4 2 C3.67 2.99 3.34 3.98 3 5 C2.34 5 1.68 5 1 5 C0.67 3.35 0.34 1.7 0 0 Z " fill="#74C3E9" transform="translate(235,217)"/>
<path d="M0 0 C1.98 0.495 1.98 0.495 4 1 C3.34 2.32 2.68 3.64 2 5 C1.01 5 0.02 5 -1 5 C-0.67 3.35 -0.34 1.7 0 0 Z " fill="#72AAE4" transform="translate(257,325)"/>
<path d="M0 0 C0 2.31 0 4.62 0 7 C-0.66 7 -1.32 7 -2 7 C-2 5.35 -2 3.7 -2 2 C-3.32 1.67 -4.64 1.34 -6 1 C-3 0 -3 0 0 0 Z " fill="#01323D" transform="translate(255,281)"/>
<path d="M0 0 C0.66 0 1.32 0 2 0 C2 1.65 2 3.3 2 5 C0.02 5.99 0.02 5.99 -2 7 C-1.125 1.125 -1.125 1.125 0 0 Z " fill="#020B0F" transform="translate(185,319)"/>
<path d="M0 0 C1.32 1.32 2.64 2.64 4 4 C2.35 5.32 0.7 6.64 -1 8 C-0.67 5.36 -0.34 2.72 0 0 Z " fill="#121F34" transform="translate(275,299)"/>
<path d="M0 0 C0.66 0 1.32 0 2 0 C2 1.32 2 2.64 2 4 C1.34 4 0.68 4 0 4 C-0.33 5.65 -0.66 7.3 -1 9 C-2.60031344 5.79937313 -1.03173691 3.27728194 0 0 Z " fill="#51D2F8" transform="translate(240,222)"/>
</svg>
